<svg xmlns="http://www.w3.org/2000/svg" width="599.22" height="338.74" viewBox="0 0 599.22 338.74"><defs><style>.cls-1{fill:#c43b58;}</style></defs><title>apps</title><g id="Layer_1" data-name="Layer 1"><path class="cls-1" d="M560.41,33.45c-96.33,10.78-193-2.54-289.44-4.06-46.88-.74-94.11,1.33-140.1,11a377.33,377.33,0,0,0-66.58,20.3c-9.88,4.08-20.47,8.13-29,14.68-8,6.13-12.17,14.55-13.71,24.4-1.57,10.11-1.42,20.62-1.49,30.83-.07,9.81.16,19.64,1,29.42,1.64,18.72,5.51,37.77,14.93,54.25C46.25,232.14,62.48,244,81.6,251c23.35,8.63,48.71,13,73.15,17.27,103.73,18.28,209.55,17.33,314.49,15.55,10.7-.18,23,1.06,33.11-3.07,8.76-3.57,13.3-11.52,16.57-19.95,8.91-23,14.62-47.46,18.63-71.75,8.22-49.79,8.45-100.47,7.11-150.78-.33-12.27-.76-24.53-1.19-36.8A1.52,1.52,0,0,0,542,0Q404,3.06,266.09,10.9q-68.92,3.91-137.76,9Q111,21.24,93.67,22.6c-9.44.74-19,1.08-28.38,2.74-8,1.42-16.15,4.27-21.68,10.48s-7.56,14.51-8.79,22.52C21.94,142,30.66,230,56.93,310.22c2.44,7.46,4.71,15.72,10.13,21.65,5.94,6.52,14.51,7.31,22.83,6.7,22.31-1.63,44.6-4.62,66.81-7.26,45.33-5.4,90.58-11.49,135.91-17,90.13-10.86,181-19.28,271.89-14.31q16.65.91,33.25,2.44c1.08.1,1.57-1,1.45-1.9Q587.38,217.8,570.75,135.8c-5.49-27-11.29-54-17.65-80.83-2.42-10.18-5.25-20.76-11.94-29.07-5.95-7.4-14.48-11.89-23.63-14-9.74-2.25-19.88-2.2-29.81-1.64-13.26.75-26.5,1.94-39.74,2.93l-85.7,6.42L192.85,32.3,1.51,46.64c-.73,0-1.61.65-1.5,1.5L15.54,175c2.34,19.08,3.89,38.49,7.84,57.32,3.38,16.1,9.4,32.29,21.39,44,11.54,11.28,27.64,18,43.76,14.19,1.88-.45,1.08-3.34-.8-2.89-15.57,3.7-31.07-3.37-41.9-14.48-12-12.3-17.32-29.29-20.38-45.82-3.39-18.24-5-36.88-7.27-55.29L11,113.54,3,48.14l-1.5,1.5L334.37,24.69l82.72-6.2C443,16.55,469.16,13.42,495.16,13c10.72-.19,22.08.53,31.83,5.4,10.91,5.44,16.89,15.45,20.4,26.78,3.65,11.74,5.93,24,8.62,36q4.38,19.57,8.49,39.19,18.82,90,31.81,181.07l1.44-1.9c-87.66-8-175.78-2.48-263.09,7-43.74,4.77-87.38,10.5-131,16-21.83,2.76-43.66,5.46-65.51,8q-16.61,1.89-33.24,3.62c-9.4,1-21.37,3.91-30.29-.33-9.35-4.44-12.13-16.23-15.06-25.23Q54.79,294,50.85,279.11A556.84,556.84,0,0,1,34.11,91.47c.87-10.79,2-21.63,3.6-32.33,1.49-9.62,4.17-19.55,12.72-25.26C58,28.83,67.51,27.75,76.33,27c11-1,22.12-1.77,33.18-2.62q66.35-5.1,132.78-9.08,133.35-8,266.91-11.5Q525.6,3.37,542,3l-1.5-1.5C542.18,50,543.8,98.58,539.72,147a477.21,477.21,0,0,1-11.61,73.45c-2.82,11.53-6.17,22.94-10.1,34.14-4,11.37-8.71,22.08-21.6,24.92-11.72,2.58-24.84,1.34-36.78,1.54q-19.23.32-38.47.53c-25,.25-50.07.31-75.09-.09-50.52-.81-101.08-3.45-151.19-10-25.5-3.35-50.88-7.72-76-13.35-22.47-5-46.81-10.28-64.58-25.93C24.5,205.87,22.46,161.68,23.15,124.75,23.34,114.44,23,103.5,26,93.56c3.6-11.78,13.2-18.15,23.77-23.21a350.73,350.73,0,0,1,65.39-23.27c44-11.15,89.63-14.62,135-14.82,92.22-.39,184.24,12.43,276.49,7.06q16.93-1,33.79-2.87c1.89-.22,1.91-3.22,0-3Z"/><path class="cls-1" d="M333.5,134.66a27.12,27.12,0,0,0-21.4,14.18,1.53,1.53,0,0,0,.54,2l14.26,6.51c2.11,1,4.79,1.72,6.66,3.07,1.67,1.2,3.32,5.33,2.78,7.45-.35,1.4-2.45,3.07-3.45,4a109.18,109.18,0,0,1-23.73,17.33c-1.69.93-.18,3.53,1.52,2.59a116.47,116.47,0,0,0,16-10.52c4.5-3.54,10.94-7.93,13.06-13.51,1.58-4.15-.35-7.51-4-9.62-6.77-3.9-14.46-6.69-21.56-9.93l.53,2a24,24,0,0,1,18.81-12.69c1.9-.2,1.92-3.2,0-3Z"/><path class="cls-1" d="M195.88,182.23a160.19,160.19,0,0,1,14.76-67.11l-2.8-.76a239.85,239.85,0,0,0,20,86.39c.77,1.77,3.36.24,2.59-1.51a235.87,235.87,0,0,1-19.58-84.88c-.06-1.36-2.13-2.19-2.79-.76a163.7,163.7,0,0,0-15.17,68.63,1.5,1.5,0,0,0,3,0Z"/><path class="cls-1" d="M192.47,150.81H215.1a1.5,1.5,0,0,0,0-3H192.47a1.5,1.5,0,0,0,0,3Z"/><path class="cls-1" d="M243.76,148.6v78.2a1.5,1.5,0,0,0,3,0V148.6a1.5,1.5,0,0,0-3,0Z"/><path class="cls-1" d="M234.61,152c6.57,1.56,14.59-2.19,20.66.73,5.35,2.57,5.23,9,2.66,13.57-2.21,3.88-6,6.63-9.56,9.23-1.54,1.13,0,3.74,1.51,2.59,6.95-5.12,16-13,11.89-22.79-4.55-10.75-17.95-4.23-26.37-6.22-1.87-.44-2.68,2.45-.79,2.89Z"/><path class="cls-1" d="M276.76,141.6v78.2a1.5,1.5,0,0,0,3,0V141.6a1.5,1.5,0,0,0-3,0Z"/><path class="cls-1" d="M267.61,145c6.57,1.56,14.59-2.19,20.66.73,5.35,2.57,5.23,9,2.66,13.57-2.21,3.88-6,6.63-9.56,9.23-1.54,1.13,0,3.74,1.51,2.59,6.95-5.12,16-13,11.89-22.79-4.55-10.75-17.95-4.23-26.37-6.22-1.87-.44-2.68,2.45-.79,2.89Z"/></g></svg>
