<svg xmlns="http://www.w3.org/2000/svg" width="682.62" height="367.32" viewBox="0 0 682.62 367.32"><defs><style>.cls-1{fill:#c43b58;}</style></defs><title>hjemmesider</title><g id="Layer_1" data-name="Layer 1"><path class="cls-1" d="M526.45,55.58l-204.59.15-204.59.14L1.51,56a1.52,1.52,0,0,0-1.45,1.9Q30.27,157.6,54.85,258.93q7,29,13.59,58.13a1.46,1.46,0,0,0,1,1Q190.18,337,312.31,344q60.87,3.44,121.87,3.86c39.68.28,79.33-1.27,119-1.28,43.17,0,86.88,3.07,127.55,18.62,1.12.42,2.1-.83,1.85-1.85A1273,1273,0,0,1,644.65,98.64q-1.38-37.62-.52-75.26a1.52,1.52,0,0,0-1.5-1.5l-258.17,20-258.17,20c-8.47.66-18.7,0-26.62,3.52-7,3.1-10.12,10-12.94,16.66A371.84,371.84,0,0,0,69,135.19a383.11,383.11,0,0,0-4.52,167.53c1.78,9,3.77,18.1,6.4,26.92,2,6.83,5,13.57,11,17.85s13.38,5.49,20.47,6.17c9.95.95,20,1.43,29.94,2.11Q164,358,195.87,360c84.48,5.28,169.16,9,253.8,6.58,42-1.2,84-3.92,125.8-8.7q14.79-1.69,29.53-3.74c8.12-1.12,17.82-1.39,24.7-6.41,5.62-4.1,7.82-10.87,9-17.44,1.69-9.35,2.69-18.88,3.95-28.3q17-126.9,24.67-254.81c.84-13.85,3.1-32.48-9.64-42C652.09,1,645,0,638.14,0c-9.57,0-19.23,1.31-28.75,2.15Q545.9,7.73,482.57,15,357.68,29.44,233.7,50.55q-62.83,10.7-125.36,23.11c-19.74,3.91-39.66,7.47-59.2,12.25C34.92,89.39,19,95.29,12,109.23c-5.3,10.56-5.26,24.5,4.36,32.54,1.47,1.23,3.61-.88,2.12-2.12-13.29-11.11-6.11-31.47,6-40.3,13.88-10.14,32.72-12.22,49.1-15.6Q132.64,71.56,192,60.88,311.46,39.42,432,24.16q59.83-7.57,119.84-13.59,29.76-3,59.55-5.59c15.36-1.35,41.3-7.8,50.24,9.39,3.62,7,3.63,15.38,3.32,23-.41,9.84-1.16,19.67-1.8,29.5q-2,30.09-4.48,60.14-5,60.6-12.16,121-3.69,31.21-7.92,62.37c-1.18,8.6-1.55,18-4.53,26.27-3.45,9.53-11.94,12-21.08,13.33-40.15,6-80.71,9.65-121.24,11.84-80.25,4.35-160.71,2.47-240.92-1.69-40.19-2.08-80.35-4.75-120.5-7.51-9.32-.64-18.68-1.09-28-2-9.14-.89-18.52-3-24-11.14-4.73-7-6.28-16.5-8.18-24.63Q67,301.54,64.87,288A380.71,380.71,0,0,1,75.09,124q3.8-13.19,8.54-26.06c3-8.1,5.66-17.43,10.73-24.5,6.33-8.82,19.29-7.68,28.94-8.43l30.9-2.39L215,58l122.61-9.48,245.21-19,59.81-4.63-1.5-1.5a1276.72,1276.72,0,0,0,22.07,266.3q7.13,37.44,16.48,74.42l1.85-1.85C631,342.93,576.2,342.83,522.87,343.9c-57.78,1.17-115.48,1.26-173.23-1.13q-87.45-3.61-174.5-13.43-44.26-5-88.33-11.6-5.34-.8-10.69-1.62c-4.62-.72-5-1-6.08-5.59q-2.6-11.44-5.27-22.89-4.9-21-10-41.87Q31.35,150.74,3,57.05L1.51,59l204.59-.14,204.59-.15,115.76-.08a1.5,1.5,0,0,0,0-3Z"/><path class="cls-1" d="M113.11,151.82V264.74a1.5,1.5,0,0,0,3,0V151.82a1.5,1.5,0,0,0-3,0Z"/><path class="cls-1" d="M141,157.48A821.06,821.06,0,0,1,139,264.78c-.16,1.92,2.84,1.91,3,0A821.06,821.06,0,0,0,144,157.48c-.09-1.92-3.09-1.93-3,0Z"/><path class="cls-1" d="M120.25,207h25.41a1.5,1.5,0,0,0,0-3H120.25a1.5,1.5,0,0,0,0,3Z"/><path class="cls-1" d="M168.24,209.78a1.5,1.5,0,0,0,0-3,1.5,1.5,0,0,0,0,3Z"/><path class="cls-1" d="M200.17,237.42l19.25-3.6a1.52,1.52,0,0,0,1.1-1.45c.07-7-6.07-12.72-13.06-12.69-7.55,0-13.6,6.57-15.51,13.44a27.4,27.4,0,0,0,.1,13.7c.83,3.44,2.12,9.18,5.5,11.14s8.45-.06,11.86-.76l18.23-3.73c1.89-.39,1.09-3.28-.8-2.9L207.7,254.5c-4.29.88-7.9,2.25-10.58-2.06-1.86-3-2.71-7.81-2.94-11.26-.43-6.42,1.86-13.33,7.62-16.8,6.42-3.86,15.8-.09,15.72,8l1.1-1.44-19.25,3.6c-1.9.35-1.09,3.25.8,2.89Z"/><path class="cls-1" d="M241,224.11l-.12,24.45c0,1.64,2.65,2.11,2.94.4.73-4.19,1.6-8.35,2.68-12.46.52-2,2.32-11.9,4.12-12.8s5.78,8.88,6.41,10.11l6,11.68a1.51,1.51,0,0,0,2.59,0l12.06-24.36h-2.59q8.61,16.32,16.19,33.15c.8,1.76,3.38.23,2.6-1.51q-7.59-16.83-16.2-33.15a1.51,1.51,0,0,0-2.59,0L263,244h2.59l-9-17.51c-1.12-2.17-2.69-7.49-6.25-6.42-3.06.91-3.94,6.26-4.71,8.67a144.29,144.29,0,0,0-4.72,19.45l2.95.4.12-24.45a1.5,1.5,0,0,0-3,0Z"/><path class="cls-1" d="M304,224.11l-.12,24.45c0,1.64,2.65,2.11,2.94.4.73-4.19,1.6-8.35,2.68-12.46.52-2,2.32-11.9,4.12-12.8s5.78,8.88,6.41,10.11l6,11.68a1.51,1.51,0,0,0,2.59,0l12.06-24.36h-2.59q8.61,16.32,16.19,33.15c.8,1.76,3.38.23,2.6-1.51q-7.59-16.83-16.2-33.15a1.51,1.51,0,0,0-2.59,0L326,244h2.59l-9-17.51c-1.12-2.17-2.69-7.49-6.25-6.42-3.06.91-3.94,6.26-4.71,8.67a144.29,144.29,0,0,0-4.72,19.45l3,.4.12-24.45a1.5,1.5,0,0,0-3,0Z"/><path class="cls-1" d="M369.17,235.42l19.25-3.6a1.52,1.52,0,0,0,1.1-1.45c.07-7-6.07-12.72-13.06-12.69-7.55,0-13.6,6.57-15.51,13.44a27.4,27.4,0,0,0,.1,13.7c.83,3.44,2.12,9.18,5.5,11.14s8.45-.06,11.86-.76l18.23-3.73c1.89-.39,1.09-3.28-.8-2.9L376.7,252.5c-4.29.88-7.9,2.25-10.58-2.06-1.86-3-2.71-7.81-2.94-11.26-.43-6.42,1.86-13.33,7.62-16.8,6.42-3.86,15.8-.09,15.72,8l1.1-1.44-19.25,3.6c-1.9.35-1.09,3.25.8,2.89Z"/><path class="cls-1" d="M423,210.79A27.13,27.13,0,0,0,401.56,225a1.53,1.53,0,0,0,.54,2.06l14.26,6.51c2.1,1,4.78,1.72,6.66,3.07,1.67,1.2,3.32,5.32,2.78,7.45-.35,1.4-2.45,3.07-3.45,4a109.18,109.18,0,0,1-23.73,17.33c-1.69.93-.18,3.53,1.52,2.59a116.47,116.47,0,0,0,16-10.52c4.5-3.54,10.94-7.93,13.06-13.51,1.58-4.15-.35-7.51-4-9.62-6.77-3.9-14.46-6.69-21.56-9.93l.53,2A24,24,0,0,1,423,213.79c1.9-.2,1.92-3.2,0-3Z"/><path class="cls-1" d="M439.62,230.42,435.93,259c-.24,1.91,2.76,1.89,3,0l3.69-28.56c.25-1.91-2.76-1.89-3,0Z"/><path class="cls-1" d="M451.17,206.83a1.5,1.5,0,0,0,0-3,1.5,1.5,0,0,0,0,3Z"/><path class="cls-1" d="M477.65,234.52c-10-2.09-23.48-2.75-26.59,9.55-2,7.93-2.81,23.67,7.81,25.95,12.33,2.65,19.53-17.26,23.43-25.4a242.83,242.83,0,0,0,23.86-102.85c0-1.66-2.58-2.08-2.94-.4A467.86,467.86,0,0,0,493.43,265c.1,1.93,3.1,1.94,3,0a465.19,465.19,0,0,1,9.68-122.87l-2.95-.4A241.52,241.52,0,0,1,482,238.24a179.56,179.56,0,0,1-10.42,20.34c-2,3.28-4.89,7.36-8.88,8.41-4.76,1.25-7.78-2.32-9-6.39-1.72-5.89-1.55-16.44,2.9-21,5-5.1,14.05-3.49,20.23-2.2,1.89.39,2.69-2.5.8-2.89Z"/><path class="cls-1" d="M519.17,237.42l19.25-3.6a1.52,1.52,0,0,0,1.1-1.45c.07-7-6.07-12.72-13.06-12.69-7.55,0-13.6,6.57-15.51,13.44a27.4,27.4,0,0,0,.1,13.7c.83,3.44,2.12,9.18,5.5,11.14s8.45-.06,11.86-.76l18.23-3.73c1.89-.39,1.09-3.28-.8-2.9L526.7,254.5c-4.29.88-7.9,2.25-10.58-2.06-1.86-3-2.71-7.81-2.94-11.26-.43-6.42,1.86-13.33,7.62-16.8,6.42-3.86,15.8-.09,15.72,8l1.1-1.44-19.25,3.6c-1.9.35-1.09,3.25.8,2.89Z"/><path class="cls-1" d="M555.74,219.74a104.43,104.43,0,0,0,7.64,44.47,1.5,1.5,0,0,0,2.9-.79,183.08,183.08,0,0,1-1.85-21c-.17-5.94-.31-12.52,2.67-17.87,6-10.67,20.16-8.47,30.11-6.43,1.89.39,2.7-2.5.8-2.89C587.38,213,573.23,211,565.79,221c-3.64,4.89-4.36,11.24-4.42,17.16a171.78,171.78,0,0,0,2,26l2.9-.79a102.53,102.53,0,0,1-7.54-43.68c.09-1.93-2.91-1.93-3,0Z"/><path class="cls-1" d="M168.19,239.43a70.93,70.93,0,0,1-6.93,49c-.92,1.7,1.67,3.21,2.59,1.51a74.21,74.21,0,0,0,7.24-51.33c-.42-1.89-3.31-1.09-2.9.79Z"/></g></svg>
