<svg xmlns="http://www.w3.org/2000/svg" width="1377.5" height="1555.28" viewBox="0 0 1377.5 1555.28"><defs><style>.cls-1{fill:#fcf0de;}.cls-2{fill:#c43b58;}</style></defs><title>migfarve</title><g id="Layer_8" data-name="Layer 8"><path class="cls-1" d="M1.42,1543.52c.14-.84.27-1.52.37-2,.24-1.22.46-2.24.63-3,0,0,2.11-9.32,11-30a283.43,283.43,0,0,1,18.5-25.5c84.84-104.17,220.52-119.64,250-123,0,0,13.56-4.83,23-2,.48.14,2.91.89,6,2,5.34,1.91,8.74,3.49,10,4,5.61,2.29,11.71,1,20-1,16.41-4,24.66-5.86,35-10,4.1-1.65,11.79-5.45,27-13,26-12.92,33.53-17,42-25,2.21-2.08,8.88-5.06,10-11a29.71,29.71,0,0,0,0-6,95.31,95.31,0,0,0-1-11c-2.45-16.36-8-42-8-42-2.75-12.7-3.5-22.13-5-41-1.35-17-1.23-35.64-1-73,.12-19.36.35-27.89-1-42a262.59,262.59,0,0,0-5-33c-5.93-27-10.48-26.32-11-42-.3-9.2,1-18.06-4-21-3-1.77-5.94,0-13-2a35.92,35.92,0,0,1-9-4c-10.39-6-27.19-9.25-41-13-14.23-3.87-25.48-8.78-39-14-5.93-2.29-9.67-3.74-15-6a304.13,304.13,0,0,1-33-16c-9.8-5.58-16.77-10.38-22-14a352.74,352.74,0,0,1-35-28c-12.15-11-15.74-15.72-18-19a70,70,0,0,1-10-21,67.11,67.11,0,0,1-2-11c-2.21-20.53-3.32-30.8-3-46,.19-9.21,1.8-22.47,5-49,.55-4.55,1.33-10.82,3-19,1.93-9.46,3.56-14.27,5-20a158.52,158.52,0,0,0,4-34c.06-20.15-4.81-19.36-5-42a255.55,255.55,0,0,1,1-28,113.29,113.29,0,0,0,1-19,103.87,103.87,0,0,0-1-11,116.58,116.58,0,0,0-3-14c-2.47-9.27-5-16.33-6-19-6.65-18.18-8.38-18.77-13-32-2.83-8.12-5.44-15.58-7-26-1.47-9.78-1.28-17.21-1-28a198.29,198.29,0,0,1,2-27,161.3,161.3,0,0,1,12-41c6.34-14.18,13.16-23.79,19-32,5.39-7.59,9.75-13.72,17-21,6.33-6.36,13.22-11.57,27-22,11.35-8.59,12.07-8.61,17-13a111.35,111.35,0,0,0,18-20,90.44,90.44,0,0,0,7-12c2.2-4.44,6.79-13.68,5-15-1.41-1.05-5.83,3.53-13,9a140.89,140.89,0,0,1-21,13c-3.8,2-6.75,3.42-8,4,0,0-6.21,2.89-12,5-6.72,2.45-19.49,7.1-36,7-9-.06-18-1-18-2,0-.67,5-1.45,15-3,11-1.71,13-2,13-2,10.06-1.48,11.3-1.53,13-3,2.67-2.31,2-4.24,6-10a52.27,52.27,0,0,1,5-6c8.31-9.09,12.47-13.64,15-16,3.63-3.39,7.42-6.26,15-12,13.35-10.11,20-15.17,25-17,4.36-1.61,10.09-3.05,10-5-.06-1.34-2.79-1.24-5-4s-1.19-4.76-3-9c-1.22-2.87-2.55-4-4-6-1.79-2.45-3-5.14-6-23-1.19-7.07-1.78-10.6-2-13a90.06,90.06,0,0,1,0-19c.72-6.51,2-10.88,4-18,0,0,3.57-12.5,11-22a4.47,4.47,0,0,1,3-2c.87,0,1.53.36,4,2,1.83,1.21,2.74,1.81,3,2,3.27,2.34,7.58,2.84,9,3,4.14.47,8-.61,13-3,7.55-3.6,12.25-7.52,19-13,10.29-8.36,15.44-12.53,19-15,1.78-1.24,6.74-4.61,21-12,11.63-6,16.65-8.1,29-14,16.58-7.93,14.65-7.6,34-17,23-11.16,19.57-8.66,34-16,3.59-1.83,12.19-6.26,24-11,9.41-3.78,14.21-5.09,20-5,1.47,0,5.65.68,14,2,4,.64,7.22,1.19,11,3a47.22,47.22,0,0,1,5,3c7.55,4.86,11.33,7.31,14,9,5,3.17,7.53,4.76,10,6a76.88,76.88,0,0,0,13,5c3.77,1.11,7.18,1.88,21,4,14.09,2.16,16.92,2.34,24,4a90.6,90.6,0,0,1,11,3c3.34,1.21,10.56,4.24,24,17,13.71,13,21,24,27,33,4.77,7.22,7.23,12,8,18,.8,6.27,1.23,9.7,0,14-.57,2-1.62,4.58-1,8,.38,2.1,1.13,3,2,5,1.39,3.17,1.59,5.78,2,11,.34,4.31.09,5.93,0,14-.06,5.53-1.41,7.68,0,9s3.76.23,8,0c4.56-.25,6.77.82,12,2,6.67,1.5,8.73,1,18,2,4.18.44,5.07.67,24,4,23.2,4.08,34.82,6.11,36,6,2.87-.29,9.48-1.22,16,2,2,1,1.7,1.24,5,3,5.58,3,8.79,3.51,11,7,.49.77.2.54,1,2,2.26,4.14,4,5,6,8,.66,1,1.44,3,3,7,1.8,4.61,1.8,5.35,3,8a43.92,43.92,0,0,0,4,7,58.57,58.57,0,0,0,9,10c5.36,5,5.54,4,11,9,3.84,3.47,3.17,3.4,10,10,4.13,4,5.08,4.7,7,7a54.28,54.28,0,0,1,6,9c3.49,6.07,5.78,8,12,16a264.74,264.74,0,0,1,25,38c2.85,5.33,5.15,10.2,6,12,4.06,8.6,6.77,15.37,9,21,3.17,8,4.75,12,6,16a135.33,135.33,0,0,1,5,23,100,100,0,0,1,1,19c-.46,9.16-3.55,10.9-3,19a35.5,35.5,0,0,0,3,13c1.07,2.33,1.72,3,3,6,1.53,3.61,1.87,5.71,3,10,1.63,6.18,2,5.94,4,13,1.5,5.27,1.49,6.08,3,12a223.48,223.48,0,0,0,7,23c1.42,3.82,2,5,5,13,2.56,6.82,2.31,6.42,3,8a76.63,76.63,0,0,0,9,15c4.42,6.08,5,5.74,8,10,1.5,2.15,4.55,6.8,8,16a153.91,153.91,0,0,1,8,33c3,22,.15,28.47,2,45a71,71,0,0,1,0,17c-.29,2.35.18,4.21-1,6-2.59,3.94-9.52,4.81-11,5-2.52.32-3.59,0-5,1-2,1.4-2.69,4-3,6-1.67,11,3,23,3,23a101.27,101.27,0,0,0,9,18c14.83,19,22.61,35.23,27,47,2.41,6.46,4.68,13.91,13,37,5.2,14.44,5.28,14.19,6,17a97.2,97.2,0,0,1,1,44c-1.72,7.85-2.11,4.53-9,26-4.33,13.49-6.52,20.41-8,29-1.18,6.86-1.83,13.7-3,26-1,10-.92,12.1-2,17-1.27,5.81-3.2,10.62-7,20-3.15,7.79-4,9.1-9,21-3.57,8.46-5.36,12.74-6,15-1.63,5.78-2.11,11.93-3,24-.5,6.75-.75,11.8-1,17-.41,8.52-.71,16.91-1,25-.34,9.63-.41,12.69-1,18a89,89,0,0,1-2,13c-2.7,10.67-7.67,18.06-13,26a70.09,70.09,0,0,1-7,9c-4.1,4.43-7.16,7.66-12,9-2,.55-2,.13-7,1-4.33.74-7.35,1.57-9,2-4.12,1.06-8.41,1.7-17,3-17.16,2.58-25.73,3.87-34,4-11.81.18-16.48-1.24-31,0-3.86.33-2.33.32-9,1-17.1,1.72-24.8,1.5-36,5a8.06,8.06,0,0,0-3,1c-3.26,2.21-3.38,7.5-3,14,.81,13.82,1.21,20.73,5,29,2.64,5.75,5.43,9.26,10,15a143.21,143.21,0,0,0,22,22c7.14,5.82,14.59,11.07,33,22,14.78,8.77,25.83,15.32,41,23,25.64,13,46.11,20.49,86,35,40.73,14.81,43.37,14.07,58,22,10.53,5.7,20.64,12.31,39,20,9.56,4,16.38,6.22,28,10,29.64,9.63,35.28,9.13,61,18,3.79,1.3,14.86,5.17,29,11,8.31,3.42,17.95,7.39,29,13,7.29,3.69,21.18,10.74,35,21,20.79,15.43,32.88,31.81,50,55,13.59,18.41,10.4,18.3,21,31,5.24,6.28,9.19,10.13,8,13-2.54,6.13-26.1,1.69-30,1-136.19-24.25-276.67-1.39-415-3-132.17-1.54-105.55,3.15-334,3-85.95-.06-135.68-.09-208-1-133.87-1.69-166.32-4.13-254-2-41.28,1-135,4-135,4h0s-4.76,0-7-2-1.85-6.64-1-14C1.12,1545.26,1.42,1543.52,1.42,1543.52Z"/><path class="cls-2" d="M1003.42,709.29c-.17,8.78,6.3,16.43,10.71,23.54,5.73,9.24,11.54,18.44,17.18,27.75,10.86,17.93,17,38.07,23,58,.55,1.84,3.44,1.06,2.89-.8-5.5-18.33-10.94-37.38-20.51-54.06-5-8.76-10.55-17.26-15.87-25.85l-8.2-13.22c-3-4.79-6.31-9.55-6.2-15.41a1.5,1.5,0,0,0-3,0Z"/><path class="cls-2" d="M1055,816.33c5.68,22.41,9.67,44.52,1.87,66.95-3.34,9.61-7.64,18.83-10.49,28.61-3.14,10.73-5,21.78-6.84,32.79-.32,1.89,2.57,2.7,2.89.8,1.91-11.32,3.82-22.67,7.11-33.69,3.16-10.58,8-20.54,11.34-31.07,6.83-21.7,2.45-43.71-3-65.19-.47-1.87-3.36-1.08-2.89.8Z"/><path class="cls-2" d="M1040.36,945.69c-2.39,9.86-1.26,20-3.76,29.87-2.4,9.47-6.74,18.27-11,27-3.78,7.84-7.57,15.75-10,24.14-2.93,10-3.29,20.5-3.08,30.9,0,1.93,3,1.94,3,0-.22-10.7.22-21.34,3.43-31.64,2.85-9.13,7.25-17.66,11.36-26.26,3.6-7.55,7.1-15.24,9.16-23.37,2.49-9.85,1.37-20,3.75-29.87.46-1.88-2.43-2.68-2.89-.8Z"/><path class="cls-2" d="M789,1186.53a243.3,243.3,0,0,0,58.89-1.39c10-1.48,19.91-3.53,30.07-4,9.69-.45,19.39-.21,29.08-.69a346.45,346.45,0,0,0,55.93-7.31c7.81-1.68,16.17-3.22,22.78-8,6.29-4.56,10.37-11.39,14.26-18a1.5,1.5,0,0,0-2.59-1.52c-4.48,7.57-9.21,15.37-17.38,19.41-7.69,3.81-16.95,5.08-25.32,6.69a341.9,341.9,0,0,1-55.27,6c-9,.24-18.07,0-27.07.75-8.5.73-16.85,2.5-25.29,3.74a240.26,240.26,0,0,1-58.09,1.29c-1.92-.19-1.91,2.81,0,3Z"/><path class="cls-2" d="M999.52,1147.27c3.65-6.18,7.29-12.42,9.82-19.17s3.16-13.53,3.47-20.63c.74-17.22,1.42-34.45,2.13-51.67.08-1.93-2.92-1.93-3,0l-2,47.7c-.31,7.52-.5,15-2.93,22.16s-6.31,13.65-10.11,20.1a1.5,1.5,0,0,0,2.59,1.51Z"/><path class="cls-2" d="M1008,569.44c-6.09-.52-11.44,2.22-16.72,4.93a136.89,136.89,0,0,0-18.62,11.25c-9,6.61-12.24,17.22-9.36,28,1,3.71,3.15,7.95,7.3,8.74s7.42-2.42,9.87-5.35c4.08-4.89,7.88-9.21,13.55-12.37,5.49-3.06,17.4-8,22.27-1.59,1.15,1.52,3.75,0,2.59-1.52-5-6.63-14.43-4.58-21.14-2a42.58,42.58,0,0,0-11.29,6.58c-3.89,3.16-6.33,7.39-9.91,10.79-8,7.57-11.3-5.33-11.25-11.3A20.69,20.69,0,0,1,973,589.17c4.76-3.93,10.36-7.07,15.75-10,5.89-3.25,12.29-7.28,19.25-6.69,1.92.16,1.91-2.84,0-3Z"/><path class="cls-2" d="M871.61,585c-21-23.38-53.85-25.88-83.27-26.49q-13.05-.27-26.09-.07c-7.75.11-16.61-.76-24.17,1.16-6,1.53-10.18,7.37-14.07,11.78a211.37,211.37,0,0,0-38.4,63c-.43,1.08.83,2.16,1.84,1.85,11.07-3.39,14.26-15.25,20.18-23.88,9.07-13.2,26.72-15.72,41.34-18.47a85.93,85.93,0,0,1,28.92-.93c8.31,1.21,16.56,2.76,24.89,3.86a458.27,458.27,0,0,0,54.78,3.91c4.07,0,9,.78,13-.12a4.25,4.25,0,0,0,3.58-3.52c1.4-5.22.53-11.89-4.12-15.09-1.6-1.09-3.1,1.51-1.52,2.6,2.62,1.79,3,4.56,3.07,7.48a26.57,26.57,0,0,1-.13,2.68c-.68,2.47-2.1,3.46-4.24,3-4.63,1-10.69,0-15.42-.11q-15.43-.37-30.8-1.78-16.12-1.47-32.11-4.1c-9.41-1.54-18.65-3.29-28.24-2.53-8.94.71-17.86,2.68-26.57,4.76-7.28,1.73-14.71,4-20.86,8.4-5.49,3.93-8.9,9.33-12.11,15.15-3.5,6.36-7,13.53-14.43,15.82l1.84,1.84a211.23,211.23,0,0,1,26.1-47.35c5.51-7.52,11.5-15.18,18.29-21.61,4.44-4.2,9.08-4.21,14.87-4.41q7.25-.26,14.49-.36c35.54-.54,81.16-3.38,107.24,25.68,1.29,1.44,3.41-.68,2.12-2.12Z"/><path class="cls-2" d="M951.71,434.68c14.75,28.46,17.76,61.39,30.3,90.78a146,146,0,0,0,11.18,21.26c4.3,6.7,9.22,13,13.19,19.92,8.09,14.09,11.18,30.24,12.52,46.25.78,9.25,1,18.51,1.36,27.77.19,4.36.5,8.7.69,13.06s1.37,11.17-1.18,15c-1.06,1.62,1.53,3.12,2.59,1.52,3.54-5.35,1.72-14.29,1.4-20.28-.47-8.68-.72-17.37-1.15-26.05-.77-15.71-2.3-31.71-7.88-46.54-5.77-15.31-16.91-27.44-24.55-41.75-8.39-15.75-13.52-32.94-18.19-50.09-4.85-17.82-9.13-35.88-17.69-52.38-.88-1.72-3.47-.2-2.59,1.51Z"/><path class="cls-2" d="M949,636.78c-2.49,8.12-5.09,17-2.71,25.5,2.52,9,10.32,17.06,15.65,24.53,11.66,16.36,22.62,32.25,30.58,50.79,3.87,9,7.45,18.17,11.7,27a198,198,0,0,0,14.37,24.25c11.35,17,21.2,38.68,3.43,55.2-16.85,15.67-40,13-60.58,7.79l.89,2.21c1.23-2.48,9.76-1,12.13-1.18s5.19-.54,6.34-2.82c4-7.89-7.21-12.68-12.28-15-11-5.1-22.7-8.25-34.95-6.64-7.3,1-17.63,7.65-11.43,16l.89-2.2c-19.92,7.29-39.38-11.07-35.18-31.3,4.56-22,29.75-30.11,48.31-19.73,1.69.94,3.2-1.65,1.51-2.59-20.73-11.6-48.77-1.77-53,22.88C881,833.38,902.33,853,923.85,845.09c.81-.3,1.52-1.36.9-2.2-4.52-6.08,3-10.47,8-11.35a49.26,49.26,0,0,1,13.12-.24c9.1.9,17.51,4.31,25.61,8.39,2.58,1.29,8.28,4.24,6.77,8.15-1.06,2.77-5.1,2.15-7.52,2.12-3.13,0-9.22-.91-11,2.6a1.53,1.53,0,0,0,.9,2.21c16.56,4.2,35.17,7.28,51.29-.21s26.15-23,22.18-40.87c-2.16-9.69-7.47-18.17-12.93-26.33a199.05,199.05,0,0,1-15.14-25.86c-8.92-19-15.53-38.76-27.41-56.27-7.08-10.44-14.58-20.6-21.9-30.87-4.09-5.74-8.09-11-8.36-18.34-.23-6.29,1.7-12.5,3.52-18.44.57-1.85-2.33-2.65-2.89-.8Z"/><path class="cls-2" d="M999.26,951.46c6.69-9.43,4.49-22.8-5.73-28.73-5-2.93-10.43-3.09-16-1.89-4.57,1-8.06,1.37-12.5-.34a72.93,72.93,0,0,0-11.47-3.58c-31.43-6.46-61.09,9.55-90.85,16.68-8,1.92-16.12,2.58-24.2,4-6.59,1.14-12.78,3.28-17.42,8.27a1.52,1.52,0,0,0,.67,2.51,328.55,328.55,0,0,0,88.33,4c15.14-1.38,29.44-2.86,44.6-.7a74.65,74.65,0,0,0,19.92.3c7.66-.93,15.13-2.17,22.61.45,1.83.63,2.61-2.26.8-2.9-6.49-2.26-13-1.84-19.78-1-7.42.91-14.34,1.43-21.8.41-7.05-1-13.94-1.86-21.09-1.68S921,948.32,913.85,949a328.37,328.37,0,0,1-91.3-3.58l.67,2.5c5.79-6.23,14.18-7.35,22.2-8.35a167,167,0,0,0,22.5-4.23c17-4.52,33.28-11.31,50.52-14.74a97.17,97.17,0,0,1,26.07-2,63.2,63.2,0,0,1,14.17,2.67c3.4,1.07,6.71,3,10.26,3.45,8.15,1.07,15.14-4.09,23.08.52,8.9,5.17,10.41,16.51,4.65,24.63-1.12,1.58,1.48,3.08,2.59,1.51Z"/><path class="cls-2" d="M828.12,946.79a8.16,8.16,0,0,0-4.82,3.93c-1.47,2.9-.81,3.75,1.49,5.65A72.55,72.55,0,0,0,844.52,968c7.67,3,15.63,4.3,23.78,5.08a146,146,0,0,1,28.9,5.25c18.4,5.58,36.07,12.16,55,15.76,9.56,1.82,19.19,3.24,28.84,4.57,5.77.8,15.11,3.86,20.19-.44s4.68-15,4.47-21a64.35,64.35,0,0,0-7.34-27.41c-.89-1.72-3.48-.2-2.59,1.51a60.83,60.83,0,0,1,7,29.38c-.08,3.95-.13,8.81-1.73,12.52-2.84,6.58-11.88,3.54-17.29,2.8-19-2.6-37.93-5.49-56.31-10.9-17.32-5.1-33.81-12.42-51.93-14.37-9.17-1-18.29-1.53-27.09-4.52a68.89,68.89,0,0,1-13.07-6c-3.06-1.83-14.62-7.45-6.42-10.51,1.79-.67,1-3.57-.8-2.89Z"/><path class="cls-2" d="M926.41,880.71a2.24,2.24,0,0,0-4-.53,2.14,2.14,0,0,0,.4,2.56,2.24,2.24,0,0,0,2.62.39,1.5,1.5,0,1,0-1.52-2.59c1.13-.54,1.7.91.73,1.46-.24.12-.28.15-.11.09a.55.55,0,0,1-.31,0,.85.85,0,0,1-.69-.61,1.55,1.55,0,0,0,1.85,1,1.53,1.53,0,0,0,1-1.85Z"/><path class="cls-2" d="M923.78,878.09a2.79,2.79,0,0,0-1.84,3.17,2.67,2.67,0,0,0,2.71,2,2.36,2.36,0,0,0,2.33-2.57,2.83,2.83,0,0,0-2.17-2.63A1.5,1.5,0,0,0,924,881c.33,0,.14,0-.06-.11.12.12.11.1,0,0,.08.15.08.13,0-.05l.06.23q0-.31,0-.06c0-.25.18-.42,0-.13l.54-.54c-.33.22.28-.11-.07,0,.1,0,.23,0,0,0,0,0,.49.11.19,0l.11.1c-.1-.11-.11-.12,0,0a.71.71,0,0,1,.13.36c0-.28,0,.14,0,0s-.09.13-.13.19c.14-.19,0,0-.17.06a1.55,1.55,0,0,0,1-1.85,1.51,1.51,0,0,0-1.85-1Z"/><path class="cls-2" d="M415.09,918.73a306.2,306.2,0,0,0,4.69,96.44c3.46,16.42,8.62,32.43,11.93,48.89,3.38,16.84,4.54,34,4.84,51.18.6,33.88-1.37,67.63,1.83,101.44a481.11,481.11,0,0,0,7.08,48.38c1.62,8.15,3.6,16.19,5.47,24.27.94,4.08,1.77,8.45.61,12.57-1.3,4.59-4.89,7.86-8.63,10.56-12,8.67-25.36,16.1-38.28,23.27-13.57,7.52-27.63,14.29-42.42,19.06a151.09,151.09,0,0,1-21.68,5.33c-7.85,1.3-17.43,3-25.1.19-3.39-1.26-6.37-3.38-9.93-4.19a33,33,0,0,0-10.16-.27c-6.9.59-13.79,1.45-20.65,2.42a441.29,441.29,0,0,0-164.58,58.47C85.87,1431.3,62.21,1448,42,1467.88c-18.67,18.33-35.4,40.86-40.45,67.06A86.73,86.73,0,0,0,0,1553.83c.06,1.93,3.06,1.94,3,0-.78-29,14.15-54.85,33.22-75.69,8.57-9.37,15.84-16.37,31.82-29.14a346.07,346.07,0,0,1,36.33-25.24s65.47-46.39,166.06-61.85q11.52-1.77,23.14-2.9c4-.38,8.07-.84,12,.24s7.29,3.7,11.3,4.68c6.47,1.58,13.51.61,20-.25a145.8,145.8,0,0,0,21.2-4.48c28.71-8.29,54.54-24.08,79.67-39.81,5-3.11,10.31-6.19,13.85-11s4-10.66,2.93-16.5c-1.4-8-3.75-15.87-5.4-23.83q-2.55-12.35-4.46-24.83c-5.22-34.22-5.53-68.39-5.12-102.92.2-16.68.23-33.39-1.18-50a283.11,283.11,0,0,0-8.71-47.79c-8.56-32.73-14.32-65.24-13.3-99.22.25-8.2.85-16.39,1.74-24.55C418.3,916.82,415.3,916.83,415.09,918.73Z"/><path class="cls-2" d="M829.46,1185.73c-6.58,18.54-1.68,39,8.88,55,11.7,17.81,29.72,30.29,47.48,41.46a692.77,692.77,0,0,0,62,35.14c21.45,10.6,43.61,19.12,66.3,26.64,24.11,8,48,16.29,71,27.1,21.24,10,41.05,22.6,63.75,29.11,41.48,11.9,83.44,22,121.88,42.25,21.43,11.32,41.18,25.6,57.67,43.44,18.06,19.54,32.22,42.21,46.27,64.69,1,1.63,3.62.13,2.59-1.51-11.85-19-23.77-38-38-55.28a209,209,0,0,0-46.86-42.1c-34.57-22.62-74.41-35.62-113.93-46.57-10.77-3-21.65-5.6-32.34-8.85-11.54-3.51-22.24-8.65-32.86-14.28a530.74,530.74,0,0,0-63.68-29c-23.09-8.59-46.86-15.2-69.71-24.44a519.41,519.41,0,0,1-64.47-32c-21.61-12.45-44.7-25.15-62.49-42.87-17.35-17.29-29.22-42.76-20.56-67.17.65-1.83-2.25-2.61-2.89-.8Z"/><path class="cls-2" d="M854.81,675.16c-4.72-7.74-9.36-15.55-14.18-23.24-3.53-5.63-7.46-11.25-13-15-11.71-7.94-26.87-5.72-39.7-2.2-26.19,7.18-54,18.33-70.49,41-1.13,1.56,1.47,3.06,2.59,1.51,15.43-21.3,41.25-31.54,65.63-38.78,12.6-3.74,27.95-7.05,39.8.6,6.17,4,10.15,10.32,13.91,16.45,4.32,7,8.6,14.12,12.9,21.18,1,1.64,3.6.14,2.59-1.52Z"/><path class="cls-2" d="M847.33,684c-11.72-13.91-22.91-31.28-43.19-30.81-9.68.23-19,3.5-28.11,6.45l-32.79,10.63c-1.1.36-1.63,2.19-.36,2.74,16,7,32.09,13.58,49.74,14.73,9.25.6,18.43,1.26,27.66,2.06a47.91,47.91,0,0,0,24.3-4c1.76-.79.24-3.37-1.51-2.59-8.3,3.7-16.68,4.22-25.61,3.27-8.29-.88-16.52-1.24-24.84-1.78-17.1-1.12-32.69-7.55-48.23-14.32l-.36,2.75,29.16-9.45c9-2.91,18-6.36,27.49-7.31a32,32,0,0,1,26.17,8.72c6.77,6.3,12.41,13.93,18.36,21,1.24,1.48,3.36-.65,2.12-2.12Z"/><path class="cls-2" d="M813.07,654.63c-8.78,8.27-6.5,20.52-3.79,31,.48,1.87,3.37,1.08,2.89-.8-2.42-9.38-4.94-20.55,3-28,1.4-1.33-.72-3.44-2.13-2.12Z"/><path class="cls-2" d="M949.89,664.17c7.15-8.77,15.56-18.85,27.85-19.12,13.24-.3,21.24,10.66,27.81,20.57,1.07,1.6,3.67.1,2.59-1.51-6.91-10.44-15.15-21.4-28.79-22-13.88-.65-23.56,10.13-31.58,20-1.21,1.48.9,3.62,2.12,2.12Z"/><path class="cls-2" d="M957.72,676.71,980.48,675c5.12-.37,9.82-1.86,13.89,2.23,2.52,2.55,4.52,6.25,6.61,9.15l2.59-1.52-1.12-1.53a1.51,1.51,0,0,0-2.75,1.16,129.25,129.25,0,0,1,2.16,23.39l1.5-1.5a195.55,195.55,0,0,1-25.15-4.76c-1.87-.48-2.67,2.42-.79,2.9a203.63,203.63,0,0,0,25.94,4.86,1.51,1.51,0,0,0,1.5-1.5,134.51,134.51,0,0,0-2.26-24.19l-2.74,1.15,1.12,1.54c1.13,1.53,3.73.06,2.59-1.52-2.62-3.62-5.06-7.55-8-11-2.28-2.7-4.13-2.67-7.55-2.45-10.12.65-20.24,1.5-30.35,2.25-1.92.14-1.93,3.14,0,3Z"/><path class="cls-2" d="M984.16,673.66A29.21,29.21,0,0,0,985.4,704c1.06,1.6,3.66.1,2.59-1.52a26.16,26.16,0,0,1-1.24-27.26c.93-1.7-1.66-3.21-2.59-1.51Z"/><path class="cls-2" d="M960.3,674.75a14.92,14.92,0,0,0,10.2-8c.84-1.73-1.74-3.25-2.59-1.51a12.09,12.09,0,0,1-8.4,6.67c-1.89.42-1.09,3.31.79,2.89Z"/><path class="cls-2" d="M970.32,675a18.28,18.28,0,0,0,15.08-9.11,1.5,1.5,0,0,0-2.59-1.51A15.2,15.2,0,0,1,970.32,672c-1.92.1-1.93,3.1,0,3Z"/><path class="cls-2" d="M985.66,671.87A30.54,30.54,0,0,0,1001,666.4c1.57-1.1.08-3.7-1.51-2.59a27.64,27.64,0,0,1-13.82,5.06c-1.91.16-1.93,3.16,0,3Z"/><path class="cls-2" d="M997.29,677.86a25.37,25.37,0,0,0,20-8c1.33-1.4-.79-3.52-2.12-2.12a22.41,22.41,0,0,1-17.84,7.07c-1.93-.11-1.92,2.89,0,3Z"/><path class="cls-2" d="M1002.81,683.44a30.82,30.82,0,0,0,20-6.81c1.51-1.19-.63-3.3-2.13-2.12a27.5,27.5,0,0,1-17.84,5.93c-1.93,0-1.93,3,0,3Z"/><path class="cls-2" d="M1005.27,691.32a25.72,25.72,0,0,0,15.41-4c1.63-1,.13-3.62-1.51-2.59a22.89,22.89,0,0,1-13.9,3.58c-1.93-.11-1.93,2.89,0,3Z"/><path class="cls-2" d="M751.75,669.32a22.93,22.93,0,0,0,24.75-11.49c.92-1.7-1.67-3.21-2.59-1.51a19.89,19.89,0,0,1-21.37,10.11c-1.88-.38-2.69,2.52-.79,2.89Z"/><path class="cls-2" d="M777.71,660a19.18,19.18,0,0,0,21.8-13.81,1.5,1.5,0,0,0-2.89-.8,16.14,16.14,0,0,1-18.11,11.72c-1.89-.33-2.7,2.56-.8,2.89Z"/><path class="cls-2" d="M805.16,655.62a28.49,28.49,0,0,0,17.3-9.85c1.23-1.47-.88-3.61-2.12-2.13a26,26,0,0,1-16,9.08c-1.9.32-1.1,3.21.8,2.9Z"/><path class="cls-2" d="M821.87,660a49.83,49.83,0,0,0,15.58-1.43c1.87-.47,1.08-3.37-.79-2.89A47.24,47.24,0,0,1,821.87,657c-1.93-.13-1.92,2.87,0,3Z"/><path class="cls-2" d="M833.29,668.24a15.9,15.9,0,0,0,6.75-.61c1.84-.57,1.05-3.47-.8-2.89a13.77,13.77,0,0,1-6,.5c-1.91-.24-1.89,2.76,0,3Z"/><path class="cls-2" d="M747.28,671.48a26,26,0,0,0,16.43-14.67c.75-1.75-1.84-3.28-2.59-1.51a23.2,23.2,0,0,1-14.64,13.29c-1.84.56-1.06,3.46.8,2.89Z"/><path class="cls-2" d="M742.55,918a49,49,0,0,0-15.4,46.2c.37,1.89,3.27,1.09,2.89-.8a46,46,0,0,1,14.63-43.28c1.44-1.29-.68-3.4-2.12-2.12Z"/><path class="cls-2" d="M878.84,808.55a679.2,679.2,0,0,1-40.29,67.71c-7.16,10.58-14.72,20.85-22.34,31.09-6.86,9.22-13.27,18.81-16,30.12-.45,1.88,2.44,2.68,2.89.8,2.87-11.9,10-21.77,17.2-31.41,7.53-10,14.87-20.21,21.88-30.62a681.68,681.68,0,0,0,39.25-66.17c.89-1.71-1.7-3.23-2.59-1.52Z"/><path class="cls-2" d="M1001.85,865.77c1.47,8.5,8.95,14.68,13.78,21.39A129.78,129.78,0,0,1,1030,913c.73,1.75,3.63,1,2.89-.8a134.1,134.1,0,0,0-12.72-23.7c-5-7.35-13.9-14.53-15.45-23.48-.33-1.9-3.22-1.09-2.89.8Z"/><path class="cls-2" d="M956.38,444.28q.23-5.19.29-10.4a1.5,1.5,0,0,0-3,0q-.06,5.21-.29,10.4c-.09,1.93,2.91,1.93,3,0Z"/><path class="cls-2" d="M741.43,376.11q-2-1.42-3.94-2.82a1.51,1.51,0,0,0-2,.54,1.52,1.52,0,0,0,.54,2.05q2,1.39,3.94,2.82a1.51,1.51,0,0,0,2.05-.54,1.54,1.54,0,0,0-.54-2.05Z"/><path class="cls-2" d="M954.24,436.14a244.58,244.58,0,0,0-16.41-30.72c-1-1.63-3.62-.13-2.59,1.51a244.7,244.7,0,0,1,16.41,30.73C952.43,439.42,955,437.89,954.24,436.14Z"/><path class="cls-2" d="M958,437.57c5.94-30.85-1-62.3-13.93-90.49C930.61,317.81,911.47,290.48,892,265a104.55,104.55,0,0,0-14.67-16c-5.79-5-12.25-9.16-17.61-14.64-9.14-9.35-12.55-22.21-19.06-33.24C834,189.83,824.77,184.6,812,182.52c-17-2.78-34-5.24-51-7.86-33.36-5.13-70.44-14-102.44,1.25-1.74.83-.22,3.42,1.51,2.59,28.59-13.63,61.49-6.89,91.39-2.29l48.56,7.47c7.15,1.11,14.71,1.7,21.56,4.15,6.45,2.31,11.3,6.86,15,12.51,6.23,9.47,9.35,20.64,15.85,30,7.91,11.34,20.77,17.78,30,27.9,10.2,11.18,18.56,24.3,27.16,36.72a424.7,424.7,0,0,1,24.4,38.91c17,31.27,27.91,67.26,21,102.94-.36,1.89,2.53,2.69,2.89.8Z"/><path class="cls-2" d="M705.66,162.57c4.6-16.08-.79-32.67-11.15-45.34-12.19-14.9-30.13-22.59-48.79-25.69-20.69-3.44-42.23-2.37-63.06-.82-21.84,1.62-43.74,5.06-64.35,12.7-20.37,7.55-39.08,18.82-57.09,30.82-8.16,5.44-16.31,11.09-23.18,18.14-3.61,3.7-6.63,7.88-10,11.76a50.51,50.51,0,0,1-14.71,11.42c-20,10.64-41.27,20.38-62.89,27.17a207.68,207.68,0,0,1-32.89,7.19c-10.1,1.46-20.24,3-29.65,7.15-11.25,5-21,12.74-30.71,20.17-8.12,6.22-16.18,12.61-23.33,20a97.32,97.32,0,0,0-10.3,12.35,74.2,74.2,0,0,0-4.12,6.64c-1.74,3.18-2.06,4.75-5.73,5.62-13.25,3.14-27.18,4.54-40.61,6.78a1.52,1.52,0,0,0,0,2.9,120.2,120.2,0,0,0,82.25-15.84c13.35-8.2,25.32-18.37,38.93-26.18a197.31,197.31,0,0,1,94.54-26.07c1.93,0,1.93-3,0-3a201.74,201.74,0,0,0-83.87,20c-27.43,13.28-49.13,36.19-78.78,44.94a117.27,117.27,0,0,1-52.27,3.2v2.9l34.81-5.82c2.81-.47,8.49-.28,10.56-2.3,1.2-1.17,1.94-4.16,2.76-5.66a72.13,72.13,0,0,1,4.12-6.65C237.29,255,254,243,269.62,231.59c9.05-6.59,18.55-12.36,29.46-15.26,9.77-2.6,19.89-3.38,29.82-5.15,20.76-3.72,40.47-11.57,59.55-20.35,9.85-4.53,20.09-8.87,29.44-14.38,8.41-5,13.56-12.3,19.94-19.45,7-7.81,15.53-13.9,24.19-19.69s17.54-11.46,26.67-16.61A200.32,200.32,0,0,1,549.19,98c21.36-4.14,43.35-5.46,65.07-5.59,22.34-.13,46.74,1.93,65.57,15.19,16.93,11.92,28.91,33.3,22.94,54.16a1.5,1.5,0,0,0,2.89.8Z"/><path class="cls-2" d="M703.22,124.45c3.51-18.45-6.07-35-17.5-48.7C673.48,61.08,658.66,44.5,640.39,37.6c-19-7.19-40.16-4.43-59.24-11.34-18.42-6.67-30.92-23.87-51.28-26C508.44-1.93,488,9.33,469.41,18.44l-65.29,32c-19.39,9.51-40.82,17.76-57.37,32-7.94,6.81-15.16,15.07-24.75,19.63a31.49,31.49,0,0,1-14.89,3.21A21.63,21.63,0,0,1,300.6,104c-2.78-1-4.39-3-6.88-4.47-7.74-4.48-12.57,10.3-14.67,15.27a105.81,105.81,0,0,0,5.12,92.12c.94,1.69,3.54.18,2.59-1.51a103,103,0,0,1-7.64-82.35,96.08,96.08,0,0,1,5.73-13.61c.92-1.79,2-4.54,3.45-5.91,2.83-2.59,5-.2,7.39,1.35,13.92,8.87,30.6-.34,41.39-9.71,7.68-6.66,14.74-13.72,23.44-19.11S378.73,66.27,388,61.73l60-29.44c19.35-9.5,38.89-21.21,59.82-26.82,10.39-2.79,21.55-3.67,31.84,0,8.94,3.23,16.35,9.36,24.08,14.7a71.39,71.39,0,0,0,23.69,11.05c8.77,2.16,17.79,2.89,26.73,3.92,11.54,1.33,23.21,3.19,33.41,9.1,9.77,5.66,17.74,14,25.54,22,14.65,15.12,31.54,34.64,27.23,57.33-.36,1.89,2.53,2.69,2.89.8Z"/><path class="cls-2" d="M286.7,213.17l7.25,5.75c1.49,1.18,3.63-.93,2.12-2.13l-7.24-5.74c-1.5-1.19-3.64.92-2.13,2.12Z"/><path class="cls-2" d="M282.31,256.35C275,282.17,253,299.12,232.93,315.1c-20.79,16.5-39.31,34-52.48,57.36A174.39,174.39,0,0,0,171.1,524c5.93,14.6,12.83,29,16.22,44.45,3.83,17.43.57,34.66.11,52.22-.44,16.75,3.46,33.09,4.73,49.71,1.33,17.52-2.38,34.24-6.33,51.19A372.75,372.75,0,0,0,176,821.37c.63,15.23,2.07,30.88,8.82,44.78,6.5,13.38,17.36,24.33,28.22,34.26,47.88,43.79,109.22,64.32,169.77,84L407,992.23c1.84.6,2.63-2.29.8-2.89-61.55-20-125.73-37.83-177.57-78.31-11.63-9.07-22.94-19.1-32.36-30.49-11.2-13.53-16.44-29-18.07-46.38-3.15-33.48-.44-68,6.42-100.82,3.21-15.34,7.73-30.5,9-46.18,1.3-16.68-2.37-33-4.06-49.52-1.72-16.74,1.13-33.09,1.19-49.8.06-15.47-4.22-30.05-9.91-44.31-5.45-13.66-11.78-27-15.77-41.2a160.57,160.57,0,0,1-5.84-39.71,173.52,173.52,0,0,1,16.44-77.48c11.34-24.07,28.09-43.82,48.61-60.57,18.9-15.43,40.51-29.87,52.78-51.61a72.16,72.16,0,0,0,6.55-15.81,1.51,1.51,0,0,0-2.9-.8Z"/><path class="cls-2" d="M814.6,330.63c-25.87-25.75-53.16-52.44-87.37-66.72-18.57-7.74-37.88-10.21-57.9-9.46-21.18.8-42.67,4.28-63.76.67-19.25-3.3-38.5-12.17-48-30.13-.91-1.7-3.5-.19-2.6,1.52,17.21,32.61,58.83,34.46,91,32.37,22.29-1.46,44.52-3.31,66.3,2.95,18.53,5.32,35.41,15.08,50.8,26.53,17.78,13.23,33.68,28.79,49.36,44.39a1.5,1.5,0,0,0,2.12-2.12Z"/><path class="cls-2" d="M417.19,241.42c-9.25,38.08,3.59,76.66,22.58,109.59,9.88,17.13,21.37,33.3,32.83,49.39,5.1,7.15,10.39,14.29,17,20.13s14.71,10,22.93,13.55c22.21,9.52,44.73,18.36,67.08,27.52,1.79.74,2.57-2.17.8-2.89l-56.74-23.25c-8.72-3.57-17.63-7-25.54-12.17s-14.32-12.62-20-20.31c-21.9-29.71-44.59-61.4-55.22-97.16-6.14-20.65-8-42.54-2.85-63.6.46-1.87-2.44-2.67-2.89-.8Z"/><path class="cls-2" d="M520.1,562.05c-29.79,10.42-58.47-8-78.68-28.53a675.64,675.64,0,0,1-56.31-65.43C368,445.52,352.74,421,344.05,393.85c-9.78-30.53-9.49-62.66-7.75-94.32.87-15.73-.25-34.76,12.79-46,8-6.88,23-17.09,14.48-29.39-1.09-1.58-3.69-.08-2.59,1.52,5.26,7.62-1.48,15.7-7.35,20.45-4.93,4-10.1,7.56-13.39,13.13-6.79,11.48-6.17,26.49-6.88,39.34-1.78,31.95-2.18,64.44,7.54,95.29,8.56,27.17,23.55,51.78,40.6,74.4a698.78,698.78,0,0,0,56.58,66.14c21.12,21.74,51.38,41.54,82.82,30.54,1.81-.63,1-3.53-.8-2.89Z"/><path class="cls-2" d="M302.69,256.86A291.07,291.07,0,0,1,285,352.2a286,286,0,0,1-21.14,45.07c-7.79,13.41-16.77,26.16-23.61,40.11-6.61,13.47-10.61,27.83-10.47,42.91.13,15.6,4.16,30.94,10,45.33,11.83,29.11,31.22,54,46.95,81,8.89,15.23,16.64,31.3,20.65,48.56,3.67,15.83,4.06,32.93,13.92,46.56,1.12,1.55,3.73,0,2.59-1.51-9-12.48-9.91-28-12.91-42.6s-8.6-28.28-15.45-41.36c-14.36-27.39-33.93-51.7-47.52-79.52-7.33-15-13.14-31.11-14.78-47.82a90.52,90.52,0,0,1,8.49-47.67c6.58-14.07,15.5-26.84,23.39-40.17a289.6,289.6,0,0,0,19.94-40.63,293.47,293.47,0,0,0,20.6-103.55c0-1.93-3-1.93-3,0Z"/><path class="cls-2" d="M402,228.73c22.13-3.24,44.24-6.69,66.41-9.7,5.54-.76,11.36-1.35,16.77.46,4.54,1.53,8.33,4.67,12.11,7.49,6.52,4.87,13.39,8.16,21.58,8.9,37.18,3.36,60.71-33.4,90.94-47.76,9.78-4.65,19.67-5.92,30.4-5.53,9.46.34,19.07.8,27.38-4.47,1.63-1,.12-3.62-1.51-2.59-8.57,5.43-18.66,4.24-28.31,4a61.75,61.75,0,0,0-24.17,3.75c-15.88,6.09-28.82,17.66-42,28.09C557.43,222.63,540,233.67,521.11,233c-9.82-.33-17.16-4.85-24.8-10.52-7.1-5.27-14-7.75-23-7-11.68.91-23.35,3.24-34.93,4.94l-37.22,5.43c-1.9.28-1.1,3.17.8,2.9Z"/><path class="cls-2" d="M346,899.74c-10.06.24-18.24-9.54-25.28-15.59L298.44,865c-14.51-12.47-30.29-24.3-43.39-38.26-24.9-26.53-22.4-64.54-19.2-98.16.19-1.92-2.81-1.9-3,0-2.55,26.75-4.92,55.75,6.75,80.84,6.39,13.72,17.2,23.73,28.49,33.45l38.62,33.19c7.32,6.29,14.55,12.7,22,18.87,5.06,4.22,10.47,8,17.32,7.81,1.92,0,1.93-3,0-3Z"/><path class="cls-2" d="M440.5,1316.62c-6.29,24.28-12.62,50.05-5.09,74.8,6.79,22.35,21.92,42.2,35.25,61.06,12.27,17.35,25.74,34.29,42.67,47.34,17.64,13.59,37.95,20.81,60.1,22.55,24.2,1.9,49.1-.58,73.16-3.32a458.69,458.69,0,0,0,69.08-12.84c45-12.29,86.47-33.7,119.9-66.5,39.38-38.62,67.76-87.28,97.62-133.19,1.06-1.63-1.54-3.13-2.59-1.52-26,40-50.76,81.53-82.55,117.23a262.63,262.63,0,0,1-112.41,74.71c-43.27,14.83-89.45,20.84-135,22.69-24.13,1-48.65-.55-70.3-12.26-18.42-9.95-33.26-25.27-46.09-41.58-7.35-9.34-14.1-19.14-20.73-29-7.42-11.06-15-22.13-20.65-34.26-12.87-27.9-6.86-56.62.53-85.11a1.51,1.51,0,0,0-2.9-.8Z"/><path class="cls-2" d="M533.15,942.81c.71,9.49,4.86,18,8,26.82a221.27,221.27,0,0,1,12.09,55.72q.62,7.39.75,14.83c0,3.08-1,7.68.37,10.48a1.49,1.49,0,0,0,1.69.69,2.93,2.93,0,0,0,2.13-2.19,1.46,1.46,0,0,0-.38-1.46l-.42-.33c-1.5-1.18-3.64.93-2.12,2.12v-1l1.7.69c-.72-1.51.07-5.39.06-7.11,0-2.48-.08-5-.19-7.43q-.27-6.49-.92-13a229.75,229.75,0,0,0-4-25.16,223.78,223.78,0,0,0-7.27-25.91c-3.17-9.12-7.8-18-8.53-27.77-.14-1.91-3.14-1.93-3,0Z"/><path class="cls-2" d="M823.4,946.71a10.38,10.38,0,0,1-9.17-3.46c-1.3-1.43-3.42.7-2.12,2.13a13.48,13.48,0,0,0,12.09,4.22c1.9-.27,1.09-3.16-.8-2.89Z"/><path class="cls-2" d="M820.41,661.61a16.36,16.36,0,0,0,.11,21.47c.73.83,2,1.62,2.83.9a3.3,3.3,0,0,0,.71-1.48c.41-1.12,1.3-2,1.81-3a9.93,9.93,0,0,0,.65-4.44l0-5.15a19.25,19.25,0,0,0-.22-3.31,18.35,18.35,0,0,0-2.55-5.7,1.12,1.12,0,0,0-.61-.6c-.41-.1-.77.26-1,.59l-1.77,2.21"/><path class="cls-2" d="M819.35,660.55c-4,5.15-5.6,11.65-3.27,17.94,1.1,3,5.17,10.14,8.79,5.91,4-4.71,4.13-13.36,2.64-19-.47-1.78-1.82-5.9-3.82-6.52s-3.38,1.78-4.44,3.11c-1.19,1.49.92,3.63,2.12,2.12l1.77-2.21.08,1.07c1.71,1.65,1.64,4.7,1.77,6.89.19,3.25.72,9-2,11.36-1.15,1-.72,1.2-2.19-.23s-2.09-3.65-2.49-5.4a15.17,15.17,0,0,1,3.12-12.92c1.18-1.5-.93-3.64-2.12-2.12Z"/><path class="cls-2" d="M992,679.27a21.91,21.91,0,0,0-1.22,16.29c.45,1.41,1.18,2.9,2.56,3.42.49-1.39,2-2.2,2.7-3.48a7.47,7.47,0,0,0,.66-3.76V686.6A11.18,11.18,0,0,0,996,682a3.77,3.77,0,0,0-3.63-2.39"/><path class="cls-2" d="M990.66,678.51c-2.67,5.82-4.83,17.7,1.89,21.77a1.52,1.52,0,0,0,2.05-.54c1.37-2.5,3.1-3.32,3.48-6.3a51,51,0,0,0,.09-7.42c-.1-3.95-1.4-7.52-5.77-7.88-1.92-.16-1.91,2.84,0,3,3.77.31,2.8,7,2.77,9.32s-.16,3.51-1.67,5.68a21.25,21.25,0,0,0-1.49,2.09l2-.54c-5.07-3.07-2.67-13.6-.81-17.67.8-1.74-1.78-3.27-2.59-1.51Z"/><path class="cls-2" d="M992.07,676.58l-1.65,10.12,2.94.4a17.34,17.34,0,0,1,1.47-8.48l-2.74-1.16C990,684.14,990,693,993.47,699.18l2.36-1.81-2.27-1.82c-1.26-1-3.25.24-2.35,1.82a14.17,14.17,0,0,0,4,4.47,1.51,1.51,0,0,0,2.2-.9c2.26-8.34,3.42-16.21-1.25-24a1.52,1.52,0,0,0-2.36-.3,3.63,3.63,0,0,0-.49,4.56c1.38,2.81,3.31,4,3.16,7.47a19.27,19.27,0,0,1-2.85,8.79l2.74.35.17-.89c.68-1.81-2.22-2.59-2.89-.8a3.74,3.74,0,0,0-.18,2.49c.21,1.33,2.14,1.39,2.75.36a22.08,22.08,0,0,0,3.3-11.08,11.57,11.57,0,0,0-.82-4.65c-.28-.62-3.18-4-2.77-4.48l-2.35-.3c4.24,7,3,14.1,1,21.63l2.2-.89a8.54,8.54,0,0,1-2.89-3.4l-2.36,1.82,2.26,1.82c1.27,1,3.25-.24,2.36-1.82-3-5.37-2.89-13.59-1.08-19.41.49-1.59-2.05-2.73-2.74-1.16a20.62,20.62,0,0,0-1.88,10c.1,1.58,2.66,2.16,2.95.39L995,677.38c.31-1.89-2.58-2.7-2.89-.8Z"/><path class="cls-2" d="M995.17,685.74a10.4,10.4,0,0,1-.33,4.86c-.55,1.85,2.34,2.64,2.9.8a14,14,0,0,0,.33-6.46c-.34-1.9-3.23-1.09-2.9.8Z"/><path class="cls-2" d="M822,683.71a2,2,0,0,0,1.83,1.06,1.47,1.47,0,0,0,1.29-.74c2.58-4.12,2.83-9.57,2.23-14.29a13.14,13.14,0,0,0-2.23-5.8c-.21-.32-2.76-3.91-2.81-2.66l-1.1,1.45.36-.08-1.85-1,.1.26c.68,1.79,3.58,1,2.9-.79l-.11-.27a1.55,1.55,0,0,0-1.84-1l-.36.07a1.52,1.52,0,0,0-1.1,1.45c-.09,2.38,3.2,3.76,4.14,5.81,1.09,2.37,1.11,4.81,1,7.39,0,.89,0,1.79-.13,2.68a9.24,9.24,0,0,1-.76,3.23c-.75,1-.42,1.6,1,1.81-1-1.62-3.64-.12-2.59,1.51Z"/><path class="cls-2" d="M753.92,373.09c-30.61,1.23-61.68,11.4-81.1,36.17-9.68,12.34-15.12,28.11-19,43.16-2.11,8.17-3.87,16.42-6,24.59-2.17,8.49-5.22,16.42-8.19,24.64-2.77,7.65-6.6,14.87-9.76,22.42-3.46,8.27-6.51,16.7-9.46,25.16-1.61,4.6-3.17,8.48-6.41,12.18-2.67,3-6,5.46-9.14,8-6.57,5.21-12.95,10.38-18.51,16.68C565.28,610,545,634.33,538.63,666.44c-.82,4.13-2.35,7.75-3.41,11.8-1.15,4.38-2.27,8.76-3.75,13-3.45,9.93-9.67,17.74-15.9,26A103.81,103.81,0,0,0,502,740.44C498,750,494.19,758.53,486.86,766c-1.35,1.38.77,3.5,2.12,2.12a60,60,0,0,0,12.21-18c3.24-7.35,5.79-14.93,10.16-21.73,4.71-7.32,10.35-14,15.32-21.1a68.88,68.88,0,0,0,9.45-20.92c2.09-7.28,4.32-14.29,5.92-21.66a114.8,114.8,0,0,1,7.34-22.58c6.8-15.22,17.27-28.63,28-41.27,5.28-6.23,10.52-12.73,16.42-18.39s12.66-10.26,18.84-15.59c5.53-4.78,8.33-10.13,10.7-16.92,2.85-8.17,5.79-16.32,9.11-24.31,3-7.23,7.42-14.22,9.83-21.59,2.6-7.93,5.65-15.65,7.8-23.74,4.35-16.31,7.39-32.85,13.67-48.6,7.3-18.32,19.46-32.77,36.88-42.17,16.39-8.84,34.79-12.78,53.3-13.53,1.92-.07,1.93-3.07,0-3Z"/><path class="cls-2" d="M939.3,403.65c-6.27-12.6-15.42-25.5-28.54-31.62-14.52-6.78-28.3-2.78-43.25-.39-37,5.92-73.91-.83-111,1.28-1.92.11-1.93,3.11,0,3,34.18-1.94,68.17,3.56,102.34-.19,15.06-1.65,30.37-7.54,45.41-3,15.33,4.65,25.59,18.68,32.43,32.42.86,1.72,3.45.21,2.59-1.52Z"/><path class="cls-2" d="M940.79,406.53c-.39-.77-.78-1.54-1.18-2.3a1.5,1.5,0,1,0-2.59,1.51c.4.77.79,1.54,1.18,2.31a1.5,1.5,0,1,0,2.59-1.52Z"/><path class="cls-2" d="M488.76,766c-8.14-3-14.25-9.14-20-15.41s-11.3-12.33-17.23-18.24c-11.83-11.8-24.71-22.82-39.31-31.06-13.63-7.68-28.84-13-44.51-14-14.14-1-31.55.87-41.58,12.06-12.44,13.87-10.68,33.67-8.64,50.78.23,1.89,3.23,1.91,3,0-1.87-15.71-3.88-33.68,6.47-47.07,10.21-13.21,30.37-14.23,45.62-12.28,32.21,4.1,58.59,24.9,80.54,47.47,10.56,10.86,20.17,25.17,34.86,30.66,1.81.68,2.6-2.22.8-2.89Z"/><path class="cls-2" d="M318.22,750a377.83,377.83,0,0,0,14,55.33c5.62,16.67,11.87,33,23.5,46.49s24.74,26.1,37.68,38.35,26.47,23.68,41.35,33.37A368,368,0,0,0,491,953.05c1.76.75,3.29-1.83,1.52-2.59-33.31-14.23-64.21-32.47-91-56.94-12.78-11.67-24.92-24.08-36.9-36.57-6.33-6.6-12.28-13.49-16.74-21.53S340.1,818.6,337,809.91a377.73,377.73,0,0,1-15.91-60.72c-.34-1.9-3.23-1.1-2.89.79Z"/><path class="cls-2" d="M511.91,947.87c7.07-.47,12.37-5,17.11-9.88,1.34-1.39-.78-3.51-2.12-2.12-4.12,4.24-8.79,8.58-15,9-1.92.13-1.93,3.13,0,3Z"/><path class="cls-2" d="M487.93,921c9.82,33,12.29,66.6,11.86,100.84-.1,7.95-.28,15.9-.47,23.85-.09,4-.15,8-.3,12-.06,1.69.06,3.85-.61,5.43-1.31,3.08-1.87,3.65-4.87,2.33s-2.61-1.32-2.82-4.14c-1.24-16.94-1.58-34-1.72-51q-.24-28.95,1.22-57.87c.09-1.93-2.91-1.93-3,0q-1.5,30.38-1.19,60.81.17,15.21.8,30.41.32,7.35.72,14.7c.17,2.87-.12,6.75,1.52,9.32,2.62,4.08,8.25,2.81,10.78-.65,1.64-2.26,1.95-5.18,2.12-7.88.3-4.77.26-9.58.37-14.36.47-20,1-40.14-.2-60.18a285.43,285.43,0,0,0-11.31-64.38c-.55-1.85-3.45-1.06-2.9.79Z"/><path class="cls-2" d="M481.94,950.8a1.5,1.5,0,0,0,0-3,1.5,1.5,0,0,0,0,3Z"/><path class="cls-2" d="M480.9,948.49c-4.73,8.15-4.9,17.4-5.08,26.57l-.69,34c-.43,21.62-.54,44.26,8.19,64.55,2.69,6.25,8.41,12.69,16,11.06,7.86-1.7,10.89-10.06,12.39-17a230.06,230.06,0,0,0,4.4-64.17,237.09,237.09,0,0,0-5.16-35.37c-2.45-10.88-5.22-22.13-11-31.77-1-1.65-3.6-.14-2.59,1.52,9.17,15.22,12.33,35.25,14.51,52.65a233.6,233.6,0,0,1,.42,54.8c-1,8.87-1.9,18.65-4.91,27.12-1.83,5.14-6.33,10.84-12.54,9.13-5.62-1.54-8.26-7.5-10-12.49-6.4-18.62-7.12-37.64-6.73-57.13q.3-15.53.62-31.06c.21-10.36-.6-21.61,4.79-30.88a1.5,1.5,0,0,0-2.59-1.52Z"/><path class="cls-2" d="M488.61,921.59c2.89,1.6,4.13,4.62,5.51,7.45q2.43,5,4.84,10c.85,1.74,3.43.22,2.59-1.51-1.95-4-3.84-8.12-5.88-12.12-1.35-2.64-2.91-4.93-5.54-6.39-1.69-.94-3.21,1.65-1.52,2.59Z"/><path class="cls-2" d="M513.28,944.77l-8.65.86c-1.9.19-1.92,3.19,0,3l8.65-.86c1.91-.19,1.93-3.19,0-3Z"/><path class="cls-2" d="M496.28,950.57a18.56,18.56,0,0,0-5.41.31c-1.89.37-1.09,3.26.8,2.89a16.2,16.2,0,0,1,4.61-.2c1.92.18,1.91-2.82,0-3Z"/><path class="cls-2" d="M437.82,769.16a113.5,113.5,0,0,0-54.66-30.22c-7.41-1.67-15.25-2.35-18.93,5.63-4.54,9.87,2,20.36-1.29,30.36-.6,1.84,2.3,2.63,2.9.8,2.72-8.32-1.17-16.22-.27-24.6.56-5.25,3.09-10.17,9-10.49,4.56-.25,9.83,1.57,14.19,2.83a110.69,110.69,0,0,1,47,27.81c1.38,1.36,3.5-.76,2.13-2.12Z"/><path class="cls-2" d="M403.54,813c21.34-2.17,22.48,26.2,24.84,40.34,2,11.83,9,27.24,23.09,27.5,7.48.14,14.23-4.79,19.84-9.19,4.95-3.88,9.85-8.78,11.2-15.17,1.89-9-7.95-20.75-17.13-14.65l2.2.9-2.73-9.39c-.54-1.85-3.44-1.07-2.9.79q1.38,4.71,2.74,9.4a1.51,1.51,0,0,0,2.2.89c6.47-4.29,13.39,3.83,12.85,10.12-.62,7.15-7,12.46-12.42,16.38-6,4.33-13,8.81-20.55,5.93-6.24-2.39-10.65-8.39-13-14.44-4.73-12.09-2.5-25.91-8.2-37.73-4.08-8.47-12.13-15.68-22-14.68-1.9.19-1.92,3.2,0,3Z"/></g></svg>
