<svg xmlns="http://www.w3.org/2000/svg" width="2672" height="2953" viewBox="0 0 2672 2953"><defs><style>.cls-1{fill:#c43b58;}</style></defs><title>migproeve</title><g id="Layer_3" data-name="Layer 3"><g id="Layer_4" data-name="Layer 4"><path class="cls-1" d="M839.63,553c-48-9.83-97.92-.42-141.49,21.2-44,21.81-80.42,55.94-109.65,95a512,512,0,0,0-71.88,134.86c-8.92,25.27-15.16,51.68-16.24,78.54-1.09,27.08,4.47,53.34,10.54,79.57,3.66,15.82,7.4,31.68,9.34,47.82a196.52,196.52,0,0,1-.07,45.22c-3.26,29.66-10.33,60.24-.48,89.43.62,1.82,3.51,1,2.89-.8-8.74-25.91-3.88-53.15-.5-79.55,1.69-13.23,3-26.52,2.39-39.87a248.2,248.2,0,0,0-5-37.21c-5.27-26.37-13.11-52.33-15.54-79.2-2.44-27.09,1.18-54.31,8.37-80.45,7.06-25.66,17.4-50.29,29.06-74.16a544.3,544.3,0,0,1,36.25-63.68c27.07-40.53,61.09-77.32,103.11-102.6,47-28.3,103.66-42.38,158.06-31.25,1.88.39,2.69-2.51.8-2.89Z"/><path class="cls-1" d="M837.43,556.74q88.07-4.77,176.32-2,21.91.69,43.8,1.84c12.75.67,26.23.56,38.48,4.61,13.23,4.38,20.39,14.53,26.09,26.63,4.92,10.42,9.72,20.48,16.56,29.83,13.21,18.06,30.11,32.91,45.26,49.26,8,8.67,15.62,17.82,21.76,27.95,6.51,10.74,11.54,22.27,16.74,33.68s10.55,22.77,17.71,33.07c6.91,10,15.3,18.75,23.69,27.46,9,9.35,18,18.72,25.41,29.45a185,185,0,0,1,17.66,32.68c11.51,27,18.4,55.87,26.18,84.11q13.08,47.43,26.14,94.87a1.5,1.5,0,0,0,2.89-.8L1338.6,944c-7.27-26.37-13.8-53.13-23.06-78.89-8.36-23.28-19.6-45.19-36.08-63.79-8.53-9.62-17.87-18.48-26.36-28.14a151.39,151.39,0,0,1-21.88-33c-11-22.17-19.58-45-35.46-64.34-14.93-18.21-33-33.49-48.11-51.57a136.17,136.17,0,0,1-19-29.32c-4.89-10.39-9.18-21.73-18.24-29.31-8.1-6.76-18.55-9.25-28.8-10.44-14.23-1.64-28.71-1.91-43-2.53q-100.56-4.38-201.21,1.12c-1.92.11-1.93,3.11,0,3Z"/><path class="cls-1" d="M526,1141.65a299.31,299.31,0,0,0-.16,112.69c3.66,19.1,9.78,37.34,15.92,55.75a275,275,0,0,1,12.61,59.73c1.87,18.22,3.3,36.47,7,54.44a299.62,299.62,0,0,0,14,47.09c11.86,30.65,28.2,59.36,46.68,86.48,38.23,56.07,84.88,105.85,128.18,157.93,45,54.13,90.67,110.68,151.2,148.31,54.33,33.78,124.15,52.21,186.67,31.79a166.59,166.59,0,0,0,21.59-8.83c1.74-.85.22-3.44-1.51-2.59-60.54,29.69-132.47,16.84-189.87-14.06-61.41-33.06-108.13-87.35-152.15-140.15q-32.43-38.88-65.34-77.34c-21.74-25.42-43.29-51.05-63.06-78-39.4-53.79-70.58-113.25-78-180.35-2-18.43-3.1-37-6.79-55.23-3.81-18.86-11.07-36.7-16.69-55a294.37,294.37,0,0,1-11.62-112.72c.89-9.76,2.31-19.44,4.16-29.06.36-1.89-2.53-2.69-2.89-.8Z"/><path class="cls-1" d="M1112.15,1885.2a643.13,643.13,0,0,0,66.21-58.86c20.32-20.78,40.07-42.88,56.58-66.85,8.8-12.78,16.14-26.46,25.83-38.62,9.17-11.48,19.21-22.27,28.69-33.49,17.87-21.12,35-42.94,50-66.21,16.7-25.94,30.54-53.72,39.3-83.36.54-1.86-2.35-2.65-2.9-.8-16.06,54.36-49.17,101.31-85.19,144.29-9,10.74-18.38,21.15-27.41,31.85-9.37,11.12-17,23.17-24.75,35.43-15.66,24.8-35.29,47.3-55.44,68.54a642.34,642.34,0,0,1-73,66c-1.52,1.18.62,3.29,2.12,2.12Z"/><path class="cls-1" d="M1377.83,1536.78c-.91-17.66,1.12-35.22,2.94-52.76l5.54-53.25c1.8-17.3,4-34.62,5.25-52,1.2-16.92-1.44-33-3.94-49.65-3-19.93-3.58-40.1-3.67-60.22a1.5,1.5,0,0,0-3,0c.07,17.38.51,34.79,2.57,52.07,2,17,6,33.76,5.41,51s-3.11,34.64-4.9,51.86l-5.54,53.25c-2.06,19.81-4.69,39.7-3.66,59.66.1,1.92,3.1,1.93,3,0Z"/><path class="cls-1" d="M1360.23,1028.42c-2.17,14.46,2.51,28,7.73,41.31,6.11,15.59,10.65,30.67,12,47.46s1.14,33.61,1.4,50.38q.4,26,.8,52c.3,19.11.5,38.24-2,57.23-.25,1.91,2.75,1.9,3,0,4.28-33.1,1.8-67.12,1.28-100.4-.49-31.86,1.88-65.59-9.24-96-6-16.43-14.85-33.13-12.15-51.17.29-1.89-2.6-2.7-2.89-.79Z"/><path class="cls-1" d="M1065,1095c15.36-8,28.92-18.09,41.91-29.48,6.13-5.38,12.53-10.67,20.17-13.75,8.47-3.4,17.87-4.39,26.93-4.06,17.63.63,34.64,6.3,51.29,11.66q27.45,8.84,54.88,17.77c1.84.6,2.63-2.29.8-2.89q-28.26-9.21-56.54-18.31c-16.9-5.44-34.26-11-52.18-11.28-16.8-.27-31.06,4.85-43.88,15.63-14.3,12-28.22,23.41-44.9,32.12-1.71.9-.19,3.49,1.52,2.59Z"/><path class="cls-1" d="M1064.79,1095.09c14.26,7.14,29.53,10.2,45.35,11.35,16.47,1.21,33.3,1.94,49.81,1.54,15.56-.38,29.31-6.88,43.31-13q11.46-5.06,22.81-10.39c8.59-4,17.83-9.9,27.71-8.42,1.89.28,2.71-2.61.8-2.9-6.45-1-12.26.61-18.19,3.18-7.53,3.27-14.87,7-22.33,10.41-15.28,7-31.71,16.33-48.68,17.88-16.27,1.47-33.33,0-49.61-.9-17.21-.94-33.92-3.51-49.47-11.3-1.72-.86-3.24,1.73-1.51,2.59Z"/><path class="cls-1" d="M1061.22,1068c22-21.93,46-45.66,77.81-51.31,17.15-3,34.4,1.11,51.26,4.09s34,4.73,48.78,13.78c15.89,9.68,31.35,20.13,46.57,30.83,1.58,1.11,3.09-1.49,1.52-2.59-14.45-10.16-29.15-20-44.14-29.33a78.22,78.22,0,0,0-22.14-9.94c-8.49-2.2-17.25-3.42-25.88-4.95-16.77-3-34.2-7.44-51.33-5.57-15,1.64-29.22,7.72-41.83,15.84-15.92,10.24-29.41,23.72-42.74,37a1.5,1.5,0,0,0,2.12,2.12Z"/><path class="cls-1" d="M823.62,1103.6l-28.89-13.66c-8.29-3.92-16.54-8.19-25.21-11.24s-17.83-4.68-27-5.81-18.33-2.22-27.48-1.84c-17.62.74-33.61,8.57-48.51,17.4-17.26,10.23-34.2,21-51.28,31.56-1.64,1-.13,3.61,1.52,2.59,16.07-9.91,32.06-19.95,48.22-29.73,15.33-9.27,31.76-18.06,50.05-18.82,8.56-.36,17.18.63,25.67,1.62,9.47,1.11,19,2.73,28,5.92s17.64,7.7,26.3,11.8l27.09,12.8c1.74.82,3.26-1.77,1.51-2.59Z"/><path class="cls-1" d="M819.08,1101.09c-28.77,20.18-62.61,28.64-97.52,26.7-35.53-2-70.34-11.73-106.1-10-1.93.1-1.94,3.1,0,3,37-1.75,73,8.78,109.82,10.22,34.07,1.33,67.3-7.64,95.32-27.29,1.57-1.1.07-3.7-1.52-2.59Z"/><path class="cls-1" d="M821.92,1081.53c-24-21.13-55.22-30.87-86.22-36.34-18-3.16-35-3.65-52.64,1.39a236.39,236.39,0,0,0-24.79,9c-7.77,3.2-15.7,6.27-23,10.44-8.1,4.63-14.41,11-20.31,18.14-6.91,8.39-13.71,16.9-20.56,25.35-1.21,1.49.9,3.62,2.12,2.12l16.53-20.39c5.3-6.54,10.52-13.31,17.29-18.41s14.93-8.59,22.85-11.91c7.55-3.17,15.13-6.31,22.88-9a108.12,108.12,0,0,1,53.32-4.77,258.59,258.59,0,0,1,44.12,10.56c16.88,5.8,32.83,14.11,46.29,25.94,1.44,1.27,3.57-.85,2.12-2.13Z"/><path class="cls-1" d="M796.41,985.22c-13-6.2-23-16.87-35-24.64-13.09-8.47-28.88-10.53-43.81-13.91-16.79-3.79-33.44-7.42-50.62-8.87-17.34-1.46-34.73-2.41-52.09-3.54-15.65-1-32.41-1.64-45.94,7.57-1.59,1.08-.09,3.68,1.51,2.59,12.39-8.43,27.63-8.2,42-7.32,16.53,1,33.07,2.09,49.58,3.31,16.95,1.26,33.34,4.31,49.89,8.05,15,3.39,31.92,5.17,45.33,13.08,13.24,7.8,23.62,19.62,37.6,26.27,1.74.83,3.26-1.76,1.52-2.59Z"/><path class="cls-1" d="M569.63,939.6c-41.86,32.37-38.23,90.35-31,137a1.51,1.51,0,0,0,2.74.36l12.08-28.38c3.84-9,7.11-18.66,12-27.14,5.43-9.35,14.7-12.94,24.67-15.68a167.24,167.24,0,0,1,31.74-5.27c20.15-1.52,40.38-.38,60.53.47,21.16.89,42.32,1.95,63.49,2.67,17.37.58,35.94-.12,50-11.68,1.49-1.22-.64-3.34-2.12-2.12-14.38,11.85-34.11,11.37-51.72,10.65q-32.3-1.32-64.59-2.73c-20.35-.86-40.83-1.84-61.14.24a162.25,162.25,0,0,0-28.75,5.38c-7.87,2.28-15.91,5.2-21.31,11.67-6.26,7.51-9.35,17.84-13.12,26.7l-14.35,33.71,2.74.35c-7.12-45.68-10.8-102.39,30.19-134.09,1.52-1.18-.61-3.29-2.12-2.12Z"/><path class="cls-1" d="M1037.69,975c11-21.93,31.24-39,51.8-51.77,11.42-7.1,23.8-10.86,36.94-13.24,14-2.53,28.15-4.53,42.22-6.75,13.86-2.19,27.76-4.81,41.81-5.25,14.62-.47,28.64,2.48,42.57,6.67,23.77,7.15,46.6,17.9,60.76,39.18,14.52,21.81,19.06,48.72,21.47,74.32l2.56-1.06-25.06-27.76c-7.88-8.73-15.41-18.23-24.39-25.87-15.57-13.24-38.27-18.67-57.93-22.37-20.86-3.93-42.93-4.4-63.12,2.93-10.38,3.77-19.85,9.52-29.51,14.76-10.5,5.7-21.22,11-32,16.13-19.47,9.36-52.47,24.57-67.5-.42a1.5,1.5,0,0,0-2.59,1.51c9.35,15.55,29.18,17.39,45.13,12.73,10.74-3.13,20.81-8.48,30.83-13.33,11-5.31,21.83-10.8,32.49-16.7,10.37-5.75,20.71-11.39,32.27-14.36a109.32,109.32,0,0,1,34.25-2.8,177.91,177.91,0,0,1,34.57,6c11.1,3,22.63,6.3,32.63,12.11,11.52,6.69,20,17.63,28.78,27.38l29,32.14a1.51,1.51,0,0,0,2.56-1.06c-2.22-23.52-6.16-47.71-17.59-68.71-12.09-22.21-32.22-35.7-55.64-44-12.68-4.51-25.9-8.4-39.31-9.89-14.78-1.65-29.61.39-44.2,2.66q-22.65,3.52-45.26,7.15c-13.65,2.17-27.4,4.46-39.92,10.61s-24.28,15.24-34.81,24.54-20,20.24-26.43,33c-.86,1.72,1.72,3.24,2.59,1.51Z"/><path class="cls-1" d="M767.24,1084.16c12.38,12.88,5.35,28.45-3.91,40.61l2.36-.3-1-.91c-1.45-1.26-3.58.85-2.12,2.13l1,.9a1.53,1.53,0,0,0,2.35-.31c5.13-6.73,10.16-14.18,11.09-22.82a26.65,26.65,0,0,0-7.65-21.42c-1.34-1.4-3.46.72-2.12,2.12Z"/><path class="cls-1" d="M690,1078.88c-2.28,2.88-5.6,6-6.84,9.57-1.32,3.78-.92,8.7-.82,12.63.21,8.51,1.9,16.84,6.69,24,1.07,1.59,3.67.09,2.59-1.52-4.21-6.27-5.87-13.38-6.23-20.86a67.14,67.14,0,0,1,.1-9.62c.51-5.24,3.53-8.15,6.63-12.07,1.19-1.5-.92-3.64-2.12-2.12Z"/><path class="cls-1" d="M1184.87,1053a36.11,36.11,0,0,1,9.32,21c.61,6.31,0,17.47-5.55,21.7-1.51,1.16,0,3.77,1.51,2.59,6.42-4.89,7.66-16.08,7.1-23.57a39.46,39.46,0,0,0-10.26-23.79c-1.3-1.43-3.42.69-2.12,2.12Z"/><path class="cls-1" d="M1109.12,1062c-7,15.61.11,31.44,10.07,43.85,1.21,1.51,3.32-.63,2.13-2.12-9-11.24-16-26-9.6-40.21.78-1.75-1.81-3.28-2.6-1.52Z"/><path d="M1155.66,1058.83c-7-2.68-14.78,2.21-18.88,8.44-1.35,2.07-2.49,4.43-2.33,6.89.24,3.65,3.18,6.47,5.92,8.89,4.67,4.13,10.64,8.56,16.55,6.59,2.85-1,5-3.26,6.87-5.64,3.75-4.84,6.75-11,5.39-16.92s-8.93-10.45-13.92-6.92"/><path class="cls-1" d="M1156.06,1057.38c-9.4-2.92-21.64,5-23,14.92-.63,4.51,2.13,8,5.22,10.88,3.83,3.61,8.61,7.63,14,8.31,10.24,1.3,18.6-12.13,18.71-21.15.1-8.25-8.51-16.14-16.51-11.47a1.5,1.5,0,0,0,1.51,2.59c3.68-2.15,8.07-.33,10.38,3,2.06,3,1.87,7,.83,10.29-2.52,8.13-9.9,16.89-19,12.18-5.63-2.91-14.21-9.39-11.46-16.48s11.06-12.51,18.48-10.21c1.85.58,2.64-2.32.8-2.89Z"/><path d="M733.55,1086.46c-6.34-1.55-13.37,1.41-17.21,6.68a21,21,0,0,0-2.55,18.68,8.23,8.23,0,0,0,2.12,3.66,9.94,9.94,0,0,0,4.31,1.82c6.29,1.52,13.73,2.79,18.55-1.53a17.75,17.75,0,0,0,4.25-7c1.68-4.35,3-9.12,1.81-13.64s-5.48-8.51-10.08-7.79"/><path class="cls-1" d="M734,1085a18.9,18.9,0,0,0-21.48,12.35,22.89,22.89,0,0,0-.12,14.85c1.75,5,5.47,6.2,10.44,7.19,4.6.91,9.8,1.5,14.16-.65s6.58-6.74,8.12-11.24c2.91-8.47,1.65-22.37-10.32-21.68-1.92.11-1.94,3.12,0,3,10.88-.63,9.44,12.9,6.82,19.53-3.58,9.05-11,9.73-19.48,7.82-8.86-2-9.47-12.74-6-19.73a15.77,15.77,0,0,1,17.07-8.55c1.88.36,2.69-2.53.8-2.89Z"/><path class="cls-1" d="M757.35,1522.66c59.74-20.85,123.33-42.86,187.53-33.42,14.82,2.18,29.45,6.08,44.51,3.64,7.86-1.28,15.44-3.8,23.11-5.88a144.16,144.16,0,0,1,24.83-4.4c16.12-1.46,32.41-1.2,48.58-1.42l49.42-.65c18-.24,35.94-.16,53.87-.91,16.88-.71,33.75-2.72,49.63-8.76,1.78-.68,1-3.58-.8-2.89-29.6,11.24-62.7,9-93.81,9.44-32.7.43-65.6-.14-98.26,1.58-15.53.82-30,4-44.88,8.13-8.29,2.28-16.59,3.93-25.23,3.57s-17-2.17-25.44-3.59c-30.09-5-60.67-3.27-90.54,2.4-35.33,6.7-69.44,18.44-103.32,30.27-1.81.63-1,3.53.8,2.89Z"/><path class="cls-1" d="M759.41,1521.19c34.36,6.94,68.75,8.29,103.68,6.58,18.08-.88,36-1.35,54,1.4,16.49,2.52,32.7,6.67,49.28,8.67a130.83,130.83,0,0,0,47.43-2.9c15.75-3.87,30.94-9.71,46.62-13.84,16.37-4.32,33.07-5,49.75-7.38,15.8-2.27,29.44-8.36,43.87-14.81a107.27,107.27,0,0,1,25.27-8.19c7.16-1.26,14.4-1.88,21.6-2.84,13.45-1.79,27.1-4.89,36.48-15.43,1.28-1.43-.83-3.56-2.12-2.12-9,10.1-22.1,12.93-35,14.63-13.13,1.73-26.13,2.75-38.62,7.51-14.52,5.54-27.94,13.51-43.28,16.78-15.62,3.33-31.73,3.28-47.41,6.32-31.89,6.19-61.22,22-94.46,20.18-17-.94-33.62-5.06-50.34-8.07a233.42,233.42,0,0,0-49.31-3.5c-19.25.62-38.4,2-57.68,1.26a371.66,371.66,0,0,1-59-7.14c-1.89-.38-2.69,2.51-.8,2.89Z"/><path class="cls-1" d="M784.84,1534.58c29,11.37,50.18,35.34,77.14,50.15,14.28,7.84,29.94,12.6,45.65,16.6,17.35,4.41,34.84,8.84,52.55,11.48,64.21,9.6,132-17.49,181-58.21,27-22.45,50.51-50.09,83.23-64.52,1.76-.77.23-3.36-1.52-2.59-27.55,12.15-48.84,33.78-70.85,53.66-24,21.65-50.5,39.65-80.41,52.06-31.49,13.06-66.4,21.3-100.6,18-17.91-1.75-35.45-6.12-52.9-10.35-16.8-4.07-33.76-8.33-49.36-16-29.74-14.57-52-41-83.09-53.17-1.8-.71-2.58,2.19-.8,2.89Z"/><path class="cls-1" d="M765.73,1537c20.61,34.14,49.18,62.29,79.14,88.24,15,13,30,26.21,46.26,37.66a148.25,148.25,0,0,0,54.13,24c19,4.18,38.55,5.23,58,5.15,19.74-.07,40.22,0,59.75-3.07,19.22-3.06,34.42-12.31,47.27-26.75,13.33-15,24.87-31.8,36.55-48.07A1480.68,1480.68,0,0,0,1227,1489.61a1.5,1.5,0,0,0-2.59-1.51q-31.34,54.39-67.14,106-18,26-37.19,51.14c-11.53,15.16-24.16,30.54-42.72,37.08s-39.74,5.9-59.31,6.44-39.16.46-58.51-2.35C940,1683.6,921,1677.81,904,1667.68c-17.27-10.27-32.51-23.77-47.79-36.72-33.08-28-65.27-58.07-87.86-95.5a1.5,1.5,0,0,0-2.59,1.52Z"/><path class="cls-1" d="M820,1297.48c-23,59.32-81.95,94.77-107.66,152.62-6.7,15.09-10.7,31.14-10.64,47.7a1.5,1.5,0,0,0,3,0c-.21-65.22,57.9-108.48,93.5-156.18,10-13.4,18.62-27.73,24.69-43.34.7-1.8-2.2-2.58-2.89-.8Z"/><path class="cls-1" d="M1271.28,1425.25c-31.13-9.33-49.18-40.42-69.38-63.52-23.94-27.39-50.76-52-77.82-76.3-13.72-12.29-27.24-26.24-44.71-33-1.8-.71-2.58,2.19-.8,2.89,16.93,6.59,30.09,20.35,43.39,32.26s26.79,24.17,39.78,36.69c13.18,12.7,26,25.82,38,39.61,10.55,12.06,20,25,30.87,36.84,11.08,12.09,23.89,22.67,39.83,27.45,1.86.56,2.65-2.33.8-2.89Z"/><path class="cls-1" d="M1081.54,1271.21c14,6.52,24.67,19,28.09,34.19a50.24,50.24,0,0,1-1.18,26.09,42.4,42.4,0,0,1-4.93,10.75c-3.4,5.11-8.46,4.26-13.8,4.55-32.14,1.76-59.55,21.57-80.4,44.74-5.2,5.77-10.07,11.81-14.82,18-2.69,3.47-5.42,7.12-9.29,9.37s-8.62,3.19-13.13,3.87c-16.31,2.49-35.15,5.17-50.27-3.21-13.2-7.31-20.7-21.25-31.2-31.57a66,66,0,0,0-37.75-18.35c-8-1-16.33-.63-24.06-3.15-9.71-3.16-14.84-11.65-14.7-21.67s5.26-18.86,10.31-27.09c5.65-9.22,11.4-18.38,17.1-27.57,1-1.65-1.57-3.15-2.59-1.52-5.55,9-11.13,17.87-16.64,26.83-4.55,7.39-9.16,15.17-10.66,23.84-2.45,14.09,4.21,27.06,18.46,30.68,7.85,2,16,1.59,24,2.82a63.4,63.4,0,0,1,25.35,9.89c14.28,9.56,22,25.63,35.51,35.91s30.56,10.4,46.71,8.55c7.8-.89,16.49-1.36,23.62-4.9,7.46-3.7,12-11.56,17-17.83,12-14.85,25.53-28.83,41.77-39.07a105.57,105.57,0,0,1,26-12,87.22,87.22,0,0,1,13.08-2.88c4.78-.66,9.62-.31,14.37-.94,7.75-1,11-9,13.31-15.64A53.51,53.51,0,0,0,1113,1307c-3-16.87-14.56-31.23-30-38.41-1.74-.82-3.26,1.77-1.51,2.59Z"/><path class="cls-1" d="M841.74,1042.94c13.08,25.64,25,52.65,28.21,81.53a123.48,123.48,0,0,1-1.65,39.21A101.2,101.2,0,0,1,863,1181a88,88,0,0,1-4.82,10c-.8,1.43-1.65,2.84-2.53,4.23l-.91,1.37a4.44,4.44,0,0,1-4.26,2.65c.93-1.7-1.66-3.21-2.59-1.52-1.81,3.29,1.6,6.44,4.93,5.13,2.49-1,4.07-4,5.42-6.12a89.24,89.24,0,0,0,5.54-10.05c6.67-14.21,9.72-29.91,9.94-45.56.5-35.35-13.66-68.7-29.43-99.62-.87-1.73-3.46-.21-2.59,1.51Z"/><path class="cls-1" d="M1003.15,1044.17l-9.43,81.9c-.22,1.92,2.79,1.9,3,0l9.43-81.9c.22-1.91-2.78-1.9-3,0Z"/><path class="cls-1" d="M1349.39,1389.16v75.13a1.5,1.5,0,0,0,3,0v-75.13a1.5,1.5,0,0,0-3,0Z"/><path class="cls-1" d="M596.93,1448.24a40,40,0,0,1,21.83,32.51c.15,1.91,3.15,1.93,3,0a43.1,43.1,0,0,0-23.32-35.1c-1.71-.88-3.23,1.71-1.51,2.59Z"/><path class="cls-1" d="M896,510.08c-19.16-68.69-39.25-144.3-9.42-213,12.13-28,32.22-52.66,59.71-66.56,28.71-14.52,62.36-15.85,93.29-8.54,66.77,15.77,113.23,68.82,147,125.5,18.27,30.63,34.11,62.77,49.42,95q24.47,51.46,45.63,104.41a1805.29,1805.29,0,0,1,70.58,214.45q3.53,13.5,6.84,27c.46,1.88,3.35,1.08,2.89-.8a1812.25,1812.25,0,0,0-70.26-223.33c-27.36-70.62-58.36-140.79-95.79-206.71-32.73-57.63-76.67-113.69-142.14-134.69-29.53-9.48-62.21-11.58-92-1.91-29.14,9.47-52.77,30.12-68.38,56.23-37.55,62.77-25.89,138-8.17,205.11,2.53,9.58,5.18,19.12,7.84,28.66a1.5,1.5,0,0,0,2.9-.79Z"/><path class="cls-1" d="M1153.38,275.87,1307.88,467c25.61,31.68,51.73,63,76.29,95.51,23.52,31.11,44.24,63.94,63.57,97.78,40.44,70.8,79.44,142.45,119.09,213.7,38.73,69.59,79.64,138.5,113.15,210.82,32.6,70.36,50.09,146.58,84.84,216,34.13,68.16,76.49,131.36,101.81,203.77,24.9,71.25,37.8,146,48.65,220.43,5.33,36.63,8.91,74,19.27,109.68a216.92,216.92,0,0,0,19.34,46.49c9.1,16,20,31,28.74,47.3,37.2,69.51,14.15,150.31,3.62,223.52a1120,1120,0,0,0-8.65,237.53c1.38,19.77,3.34,39.49,5.74,59.15l2.56-1.06c-25.69-23.5-38.67-55.8-52.31-87-13.8-31.59-29.58-60-55.2-83.53-51.67-47.53-136.91-82.89-142.22-163-.12-1.92-3.13-1.93-3,0,3.7,55.88,49.39,94,91.39,124.7,25.17,18.41,51.28,36.55,71.24,60.83,18.16,22.08,29.11,48.56,40.41,74.51,12,27.58,25,55,47.57,75.63.85.78,2.73.33,2.56-1.06a1125.94,1125.94,0,0,1-3.43-243.59c3.85-40.39,11.07-80.16,17.08-120.24,5-33.3,8.54-67.38,3.72-100.91-5.29-36.81-23.48-65-42.38-96.05-20.42-33.6-29.44-70.63-35.34-109.13-11.5-75.13-20.71-150.52-40.72-224-9.56-35.08-21.4-69.57-36.43-102.71-15.72-34.66-34.91-67.59-53.51-100.75-19-33.91-37.2-68.19-51.21-104.51-14.24-36.93-25.34-75-39.6-111.92-28.21-73.07-67.65-141.12-105.64-209.39L1477.9,708c-19.51-35-38.73-70.34-60.69-103.94-20.38-31.18-43.52-60.37-66.9-89.32q-77.68-96.24-155.51-192.37l-39.3-48.62c-1.21-1.5-3.32.63-2.12,2.12Z"/><path class="cls-1" d="M1397.37,751.58c-9,65.07,6.43,129.23,22.1,192,8.06,32.29,16.25,64.62,21.37,97.54,5.64,36.29,6,72.78,4.86,109.41-1.1,36.28-3.19,72.64-.76,108.91,2.29,34.15,9.31,67.67,19.06,100.43,10,33.65,22.65,66.42,35.29,99.15,12.12,31.37,24.26,62.8,38.72,93.19,29.87,62.82,73.08,118.17,101.11,182,26.74,60.88,42.21,126.11,51.53,191.76,9.39,66.1,12.66,132.88,15.06,199.53,2.57,71.3,6.51,142.79-21.15,210.2-13.28,32.37-30.93,62.68-48.44,92.9-15.77,27.22-31.72,54.47-50.54,79.74-38.06,51.1-92.79,95.82-159.49,97a129.75,129.75,0,0,1-44.83-7.22l.66,2.51c99.34-82,166.3-201.29,185.4-328.67,5-33.14,7.77-67.67,4.34-101.1-3.37-32.9-16.16-60.63-37.2-85.88-21.74-26.09-47.47-48.66-64.6-78.37-19-33-29.21-70.43-40.74-106.47-13.94-43.61-28.16-87.13-41.8-130.84-12.89-41.3-24.27-86.17-8.56-128.33.68-1.81-2.22-2.59-2.89-.8-12.2,32.75-8.27,67.72.19,100.87,9.83,38.55,23.44,76.3,35.55,114.17,11.74,36.71,22.42,74,36,110.06,11.8,31.43,28,59,50.46,84s48,48.42,60.85,80.05c13.59,33.61,12.31,72,9.47,107.52-5.25,65.63-23.51,130.18-52.61,189.2a524.67,524.67,0,0,1-136,172.5,1.51,1.51,0,0,0,.66,2.51c55.13,19.08,115.66-1.95,158.83-38.14,49.52-41.5,81.23-100.43,112.69-155.76,16.57-29.13,32.37-59,43-90.85,11.14-33.29,15.07-68.09,15.65-103.06.57-35.17-1.25-70.42-2.63-105.56-1.32-33.72-3-67.44-5.67-101.09-5.23-65.71-14.27-131.45-32.41-195a609.91,609.91,0,0,0-33.57-90.6c-14.92-31.93-33.49-61.84-51.93-91.81-18.77-30.52-36.47-61.41-51.11-94.16-15-33.59-28-68.12-41.06-102.51-12.63-33.29-24.62-66.94-33.06-101.58-8.87-36.39-12.51-73.22-12.41-110.64.11-36.94,2.83-73.84,2.45-110.8a519.24,519.24,0,0,0-11.21-100.11c-14-67.66-37.36-134.12-40.25-203.65a298.91,298.91,0,0,1,2.45-53.32c.26-1.88-2.63-2.7-2.89-.79Z"/><path class="cls-1" d="M1326.7,1642q-38,122.41-87.47,240.87-24.9,59.61-52.64,118c-8.82,18.56-18.89,36.74-26.9,55.66-6.77,16-8.47,33.5,6.23,45.51,7.22,5.9,15.94,9.48,23.86,14.3a124.18,124.18,0,0,1,24,18.85c14.24,14.49,24.65,34.16,17.39,54.59-.66,1.83,2.2,2.57,2.89.8l70.44-182.39c11-28.59,23.11-57.05,31.56-86.55a242.06,242.06,0,0,0,8.55-43.81c1-10.72,1.52-21.48,2.57-32.2,2.29-23.43,7.22-50.51,30.25-62.28,1.72-.88.2-3.47-1.52-2.59-18.56,9.49-26.21,28.9-29.59,48.42-4.22,24.39-3.36,49.26-8.58,73.53-6.66,30.94-19,60.37-30.38,89.8l-35.94,93.05-40.25,104.22,2.89.8c11.7-32.94-18.37-62.34-44.15-77.64-7.71-4.57-16.22-8-23-14-8.27-7.17-10.92-17.16-8.84-27.73,2-10.25,7.12-19.58,11.71-28.85q7.14-14.41,14.11-28.9,55.2-114.86,99.46-234.54,24.93-67.42,46.25-136.12c.58-1.85-2.32-2.64-2.89-.8Z"/><path class="cls-1" d="M1243.76,2171.45A1311.82,1311.82,0,0,0,1226.89,2352c-.31,13-1.57,27,2.53,39.54,3.75,11.52,12.47,20.08,20.24,29a259.52,259.52,0,0,1,62.85,151c.12,1.61,2.52,2.13,3,.4,1.51-6.18,9.63-4,12.29-.1,2.39,3.55,2.73,8.15,3.12,12.27,1,10.13,1.75,20.28,2.63,30.42l5.18,59.84a1.51,1.51,0,0,0,2.79.76l36.59-64.85c8.07-14.31,23.6-35.39,12.37-51.92-1.08-1.59-3.68-.09-2.59,1.52,6,8.75,3,19.23-1,28.14-4.34,9.53-10.08,18.54-15.23,27.66l-32.68,57.94,2.8.75-7-81.43c-.69-8,.12-20.9-7.57-26.11-4.93-3.34-13-1.95-14.49,4.31l2.94.4a263.91,263.91,0,0,0-52-138.69c-7.66-10.16-16.94-19.06-24.41-29.33-8.71-12-9.64-25.41-9.45-39.74q.6-44.28,4.3-88.46,4.27-51.78,12.7-103.11c.3-1.89-2.59-2.7-2.9-.8Z"/><path class="cls-1" d="M856.05,320.86c-40-10-81.53-14.62-122.76-11.64a367.55,367.55,0,0,0-102.24,22.6A402.83,402.83,0,0,0,461.36,453.75c-46.52,57-77.45,126-91.87,197.94-7.22,36-11.12,73.59-9.11,110.36,1,17.76,3.79,35.67,10.66,52.18,6.81,16.35,17.74,29.62,31,41.19,13.78,12,28.89,22.45,41.66,35.62A203.69,203.69,0,0,1,475,933.76c17.44,31.27,28.08,65.8,37.2,100.25,2.23,8.43,4.36,16.87,6.48,25.32.47,1.87,3.36,1.08,2.89-.79-16.24-64.87-34.79-135-87.35-180.59-13.7-11.87-28.83-22.15-41.29-35.4-12.79-13.6-20.86-30.27-25.15-48.35-4.21-17.77-5-36.17-4.75-54.37A485.63,485.63,0,0,1,367,685c9.47-72.86,35.59-143.86,77.68-204.23a403.17,403.17,0,0,1,161.13-135.2A369.06,369.06,0,0,1,825.21,317.3c10.1,1.78,20.11,4,30,6.45,1.87.47,2.67-2.43.79-2.89Z"/><path class="cls-1" d="M349,677.93C278,736.4,247.32,826.43,239.3,915.54c-4.25,47.22-2.65,94.9,2.83,142,3.6,30.92,8.87,61.74,9.53,92.93.65,30.73-4.95,60.24-13.4,89.66-8.06,28-17.77,55.69-23.07,84.44-5.4,29.24-5.43,59-3.95,88.65,1.52,30.28,4.52,60.5,4.59,90.84.08,31.76-4.45,62.76-11.76,93.62-7,29.37-15.55,58.34-22,87.83a673.09,673.09,0,0,0-13.65,89c-5,60.63,2.13,120,14.67,179.27,23,108.92,60.35,227.93,15.23,336.54a228.15,228.15,0,0,1-18.63,35.5c-1,1.51,1.12,2.89,2.35,1.82,75-65.28,127.68-153.69,153.63-249.39,25.91-95.52,25.46-198.77-5.69-293-10.39-31.45-28.1-61.81-31.76-95.1-3.19-29,9.37-64.42,40.76-71.62,1.88-.43,1.09-3.32-.8-2.89-21.08,4.83-35.08,23-40.68,43.13-7.58,27.21,1.54,55.06,11.63,80.34s19.87,50.25,26.69,76.61a485.49,485.49,0,0,1,13.34,76.82c9.46,102.57-12.57,207.8-61.7,298.27A485.93,485.93,0,0,1,179.9,2325.43l2.36,1.82C242,2233.89,222.84,2117.4,200,2015.68c-13.46-59.91-28.32-120-30.22-181.65-1.91-62.35,8.4-124.08,24-184.25,7.56-29.13,15.8-58.15,20.61-87.9,4.79-29.56,5-59.32,3.5-89.17-1.56-30.26-4.54-60.46-4.52-90.78a333.94,333.94,0,0,1,12.55-89.77c7.8-28.1,17.67-55.66,23.55-84.28,6-29.16,6.12-58.54,3.27-88.1-2.71-28-7.32-55.76-9.83-83.78-2.13-23.84-3.2-47.79-3-71.73.87-92.4,21.19-191.49,86.29-261a265.3,265.3,0,0,1,24.87-23.24c1.49-1.22-.64-3.34-2.12-2.12Z"/><path class="cls-1" d="M389.44,983.76c19,129.3-36.9,265.7,15.05,390.71,23.63,56.84,64.72,103.64,100.79,152.72,36.83,50.12,66.51,104.91,85.62,164.23,18.74,58.15,27.44,119.86,22.12,180.87A375,375,0,0,1,594.44,1961c-10.94,32-26.73,62-42.48,91.83-14.91,28.25-29.9,56.61-40.78,86.71-11.2,31-17.88,63.44-21.52,96.15-3.76,33.87-4.31,68-3.51,102,.4,17.08,1.16,34.14,2,51.2.77,15,.32,31.07,5.38,45.4,4.62,13.12,14.56,22.78,25,31.53,13.91,11.66,28.08,23,42.12,34.52,25.69,21,50.79,43.44,78.29,62.12,25.54,17.36,52.73,27.46,83.18,32.07,28.39,4.29,57.46,5.18,85.28,12.71a128.53,128.53,0,0,1,40.38,18.4c1.6,1.13,3-1.45,1.51-2.59a185.23,185.23,0,0,1-72.54-131.39c-4.67-56.47,20.07-109,44.14-158.42,24.31-49.89,45.33-100.32,58.35-154.43A661.25,661.25,0,0,0,897.53,2016,650.68,650.68,0,0,0,869,1833.08c-.56-1.84-3.46-1-2.89.8,33.88,110.28,37.48,229.1,11,341.35-13.42,56.83-35.82,109.34-61.23,161.68-23.06,47.51-45.93,98.16-42.22,152.26,3.66,53.62,31.29,104.25,74.21,136.49l1.51-2.59c-47.74-33.39-109.61-22.16-162.72-39.61-32.61-10.72-59.61-32.67-85.79-54.1-27.73-22.69-56.09-44.8-83.19-68.24-13.75-11.89-22.42-25-24.59-43.36-2-16.48-2.14-33.33-2.85-49.9-1.45-33.6-2.07-67.29-.13-100.88,2-34.09,6.62-68.13,15.84-101.06,9.15-32.68,23.46-63.31,39.07-93.35,14.75-28.38,30.38-56.36,42.83-85.86a374.38,374.38,0,0,0,25-87.84c8.92-57.2,4.87-115.92-8.77-172-14-57.69-38.13-113-69.91-163.06-32.94-51.92-75.42-97.18-106.61-150.26-16.51-28.09-28.91-58.09-35.47-90.07s-7.71-64.56-6.67-97c2.13-66.12,13.42-131.84,11.06-198.12A415.5,415.5,0,0,0,392.34,983c-.28-1.9-3.17-1.09-2.9.8Z"/><path class="cls-1" d="M324.77,2123.06a301.25,301.25,0,0,1-62.51,202.18,1.54,1.54,0,0,0,.31,2.36,83.15,83.15,0,0,0,56.73,9.69,78.62,78.62,0,0,0,9.56-2.4c3.34-1.07,6.69-2.93,10.19-3.39,10.54-1.39,7.09,12.88,6.79,19.21a132.4,132.4,0,0,0,.48,19.51,124.8,124.8,0,0,0,9.23,36.66c9.55,22.36,26.31,39.91,47.59,51.45,20.76,11.26,43.92,17.1,66.59,23.15,26.69,7.12,53.9,14.64,76.62,31,1.57,1.13,3.07-1.47,1.51-2.59-40-28.77-91.45-29.77-135.16-50.1-23.28-10.83-42.39-27.83-53.23-51.41a120.33,120.33,0,0,1-10.35-40.49,132.21,132.21,0,0,1-.15-19.5c.32-4.92,1.63-10.57-.54-15.25-2.45-5.27-8-5.45-12.89-3.85-7.74,2.53-15,5.15-23.15,6A80.59,80.59,0,0,1,264.08,2325l.3,2.35a304.69,304.69,0,0,0,62.37-155,299.15,299.15,0,0,0,1-49.27c-.12-1.92-3.12-1.93-3,0Z"/><path class="cls-1" d="M860,324.69a1711.09,1711.09,0,0,0-11.7,209,1.5,1.5,0,0,0,3,0,1711.09,1711.09,0,0,1,11.7-209c.23-1.92-2.78-1.9-3,0Z"/><path class="cls-1" d="M996.26,1562.28l.29,42.59a1.52,1.52,0,0,0,1.89,1.45l24.62-3.4c4.42-.61,8.84-1.2,13.25-1.82,2.45-.35,5.26-.5,7.36-2,4.63-3.25,3.17-11,3.21-15.76l.22-25.69c.07-8.62.21-24.21-12.58-22.84-6.48.7-11.93,5.74-17,9.41L996,1559.92c-1.55,1.13,0,3.73,1.51,2.6l15.94-11.62c5-3.61,9.83-7.79,15.2-10.8,3.3-1.85,7-3.22,10.49-1.35,2.87,1.52,3.87,4.26,4.48,7.29,1.12,5.57.44,11.71.39,17.35l-.15,18.08c0,3,.41,6.53-.08,9.51-.93,5.66-3.74,6.58-8.31,7.22q-18.91,2.65-37.86,5.23l1.9,1.44-.29-42.59a1.5,1.5,0,0,0-3,0Z"/><path class="cls-1" d="M991,1603.87l-44.4-.23,1.44,1.1c-2.43-17.44-4.78-38,8.41-52,5.41-5.73,13-9.22,20.9-7.61,7.52,1.53,14.36,7,15.24,15,.21,1.9,3.21,1.92,3,0-2-17.6-23.78-22.85-36.77-13.46-18.71,13.54-16.47,38.79-13.67,58.87a1.5,1.5,0,0,0,1.45,1.1l44.4.23a1.5,1.5,0,0,0,0-3Z"/><path class="cls-1" d="M995.57,1601.54h-6.8a1.5,1.5,0,0,0,0,3h6.8a1.5,1.5,0,0,0,0-3Z"/><path class="cls-1" d="M1047.79,1586.93c16.27,2,41.46,2.23,45.17-18.82l-1.85,1a31.68,31.68,0,0,0,22-2.14,34.15,34.15,0,0,0,9.36-7.19c3.7-3.8,8.32-4.44,12.51-7.34,6.49-4.5,10.3-12.23,13.06-19.4a71.8,71.8,0,0,0,4.57-29.24,1.51,1.51,0,0,0-1.9-1.44,138,138,0,0,0-16.73,7.2c-3.58,1.85-10.07,4.17-12.08,7.93-.94,1.75-.61,3.74-.41,5.62.35,3.47.66,6.94.83,10.43a169.51,169.51,0,0,1-.35,20.9c-.15,1.93,2.85,1.92,3,0,.4-5.38.6-10.76.5-16.15s-1.37-10.91-1.09-16.13c.29-5.44,6.74-7.75,11.11-10a131.72,131.72,0,0,1,16-6.9l-1.9-1.45a69.78,69.78,0,0,1-3.54,25.93c-2.59,7.58-6.65,16.72-13.87,20.93-2.82,1.65-6.06,2.17-8.73,4.09-2.93,2.11-5,5.18-8,7.3a28.4,28.4,0,0,1-23.56,4.17,1.53,1.53,0,0,0-1.85,1c-3.45,19.63-27.35,18.47-42.27,16.62-1.91-.23-1.89,2.77,0,3Z"/><path class="cls-1" d="M1123.27,1515.69a36,36,0,0,0-16.25,4.8c-4.2,2.35-10.27,5.86-13.07,9.93-3,4.42-3.73,11.74-4.5,16.9a96.71,96.71,0,0,0-.82,20.33c.12,1.91,3.12,1.93,3,0-.66-10.74-.11-22.62,3.71-32.8,1.9-5.06,7.27-8.22,11.76-10.93a33.7,33.7,0,0,1,16.17-5.23c1.92-.08,1.93-3.08,0-3Z"/><path class="cls-1" d="M1093.07,1539a22.23,22.23,0,0,0-7.4-10.91c-4.73-3.52-10-.08-15,1.74-9.06,3.32-21.16,6.63-25.83,16-.87,1.72,1.72,3.24,2.59,1.51,3.83-7.64,13.22-10.45,20.64-13.3,3.77-1.44,8-3.56,12-4.23,5.2-.88,8.67,5.78,10.11,10,.62,1.82,3.52,1,2.89-.79Z"/><path class="cls-1" d="M943.12,1594.41c-7.33,3.32-15.19,6.93-23.45,6.49-4.49-.24-9.16-1.65-12.54-4.75-2.26-2.08-3.71-4.9-6.38-6.55-5.35-3.29-12.26-1.31-18.09-2.94a25.33,25.33,0,0,1-16.52-14.9,1.54,1.54,0,0,0-2.21-.9c-7.83,3.39-15.15-3-17.13-10.31-1.74-6.47-1.18-18.08,6.43-20.71,8.81-3,9.54,8.61,8.91,14.14-.6,5.35-1.3,10.15,1,15.17.81,1.75,3.4.23,2.59-1.51-4-8.71,3.11-19.14-3-27.45-4.42-6-12.87-4-16.6,1.67-8.54,13,1.11,39.46,19.26,31.59l-2.2-.9a28.59,28.59,0,0,0,13,14.76,27.17,27.17,0,0,0,9.4,3c5.6.71,11.22-.75,15.64,3.74,2.74,2.78,4.63,5.52,8.22,7.31a25.36,25.36,0,0,0,10.11,2.53c8.81.43,17.12-3.35,25-6.9,1.76-.79.23-3.38-1.52-2.59Z"/><path class="cls-1" d="M864.64,1543.76c5.94-.69,11.52.6,17.15,2.4,4.65,1.48,10.62,2.95,13.63,7.14,3.5,4.87,2.33,11.94,2.18,17.59l-.48,17.91c0,1.93,3,1.93,3,0,.21-8,.5-15.92.64-23.87.08-5,0-10.19-3.48-14.16-3.08-3.53-7.68-5.16-12-6.62-6.74-2.28-13.48-4.22-20.65-3.39-1.9.22-1.92,3.22,0,3Z"/><path class="cls-1" d="M899.59,1552c2-6.52,9.71-6.16,15.21-6,4.68.1,9.55.35,13.62,2.94,7.76,4.93,11.48,16.52,14.6,24.63.69,1.79,3.59,1,2.89-.8-4-10.45-8.67-24.82-20.56-28.48-8.51-2.63-25.37-3.81-28.65,7-.57,1.85,2.33,2.64,2.89.79Z"/><path class="cls-1" d="M725,1093.69c-5.1,1-5.4,9.59-3.69,13.36.2.44.85.06.65-.38-1.44-3.16-1.35-11.31,3.24-12.26.48-.1.28-.82-.2-.72Z"/><path class="cls-1" d="M724.6,1090.66c-6.62,2.83-6.39,13.79-2.25,18.61,1.26,1.47,3.38-.66,2.13-2.12-3-3.51-2.94-11.94,1.63-13.9,1.77-.76.25-3.35-1.51-2.59Z"/><path class="cls-1" d="M1150.45,1064.66a17.89,17.89,0,0,0-8.81,6.77c-1.5,2.43-1.39,6.29,2.09,6.79,4.1.58,2.58-3.77,3.11-6.07a9.69,9.69,0,0,1,8.58-7.54l-1.45-1.9a8.56,8.56,0,0,1-7.43,5.58,1.53,1.53,0,0,0-1.44,1.1,6.35,6.35,0,0,0,1.4,5.93c1.22,1.49,3.33-.64,2.12-2.12a3.16,3.16,0,0,1-.63-3l-1.45,1.1a11.72,11.72,0,0,0,10.32-7.78,1.5,1.5,0,0,0-1.44-1.9,12.66,12.66,0,0,0-11.5,15l.39-1.46c-.71-.5-.82-1-.35-1.6a4.9,4.9,0,0,1,1.06-1.61,14.07,14.07,0,0,1,1.49-1.5,15.92,15.92,0,0,1,4.74-2.86c1.77-.7,1-3.6-.8-2.89Z"/><path class="cls-1" d="M1150.43,1081.81a7,7,0,0,0,5.88,2.51l-1.06-2.56c-1.33,1.4-4.18,1-4.88-.87s-3.56-1-2.89.8c1.43,4,6.91,5.34,9.89,2.19a1.52,1.52,0,0,0-1.06-2.56,4.24,4.24,0,0,1-3.76-1.63c-1.23-1.49-3.34.64-2.12,2.12Z"/><path class="cls-1" d="M732.41,1090c-10.54-3.55-13.55,13.3-9.39,19.86a1.51,1.51,0,0,0,2.74-1.16c-.8-4.66-1.74-11.66,3.87-13.79,1.79-.68,1-3.58-.79-2.89-7.41,2.81-7.1,10.9-6,17.48l2.74-1.16c-2.66-4.21-1.53-18,6-15.44,1.83.62,2.62-2.28.79-2.9Z"/><path class="cls-1" d="M730.65,1113.73a4.25,4.25,0,0,1-3.22-1.71l-1.06,2.56,1.79-.15c1.91-.16,1.92-3.16,0-3l-1.79.15a1.52,1.52,0,0,0-1.06,2.56,7.16,7.16,0,0,0,5.34,2.59c1.93.08,1.92-2.92,0-3Z"/><path class="cls-1" d="M2116.79,1132.38a1.5,1.5,0,0,0,0-3,1.5,1.5,0,0,0,0,3Z"/></g></g></svg>
