<svg xmlns="http://www.w3.org/2000/svg" width="959.41" height="579.13" viewBox="0 0 959.41 579.13"><defs><style>.cls-1{fill:#c43b58;}</style></defs><title>ommig</title><g id="Layer_1" data-name="Layer 1"><path class="cls-1" d="M880.6,24.14q-158.88-1.35-317.77.18-78.95.76-157.87,2.25c-52.69,1-105.56,1.19-158.17,4.18a587.71,587.71,0,0,0-82.44,10.49C135.91,47,107.58,53.65,78.52,55.34a1.55,1.55,0,0,0-1.5,1.5C64.67,178.51,74.36,301,90,421.91c4.31,33.39,9.06,66.72,13.94,100a1.44,1.44,0,0,0,1,1c67.34,15.76,134.91,31.54,203.77,39.11,69.12,7.59,138.85,6.7,208.16,2.39,69.7-4.34,139.12-12.07,208.67-18.12,34.62-3,69.27-5.62,104-7.18q26.24-1.19,52.5-1.48c6.13-.06,13.67.85,19-2.92,4.15-2.93,5.48-7.91,6.14-12.7,2.36-17.23,3.57-34.71,5.19-52s3.13-34.83,4.34-52.28c2.46-35.51,3.56-71.08,2.69-106.68-1.73-70.78-10.09-141.17-19.13-211.33-1.13-8.73-2.21-17.48-3.4-26.2-.74-5.35-1.87-10.56-6.11-14.25-4.73-4.12-11.34-5.64-17.16-7.51q-12-3.82-24-7.38-48.24-14.22-97.68-23.9A1101.2,1101.2,0,0,0,554.42.09a1088.8,1088.8,0,0,0-197,15.35C288.82,27.14,221,45.91,151.07,48.19a379.55,379.55,0,0,1-50.8-1.67,1.52,1.52,0,0,0-1.5,1.5q-4.48,103.66-1.46,207.46,3.06,104.19,13.75,208,5.91,57.42,14.15,114.58c.13.86,1.14,1.17,1.85,1.05,107.11-18.5,216.17-15.87,324.43-15.19,54,.34,108,.2,161.9-3.3,53.71-3.49,106.51-11.4,159.15-22.48,30.24-6.37,60.41-13.12,90.9-18.22,31.31-5.25,62.89-8.68,94.45-12.12a1.53,1.53,0,0,0,1.45-1.9,802.38,802.38,0,0,1-45.12-263.14c-.09-45.49,5.47-90.48,8.19-135.82.68-11.39,1.13-22.81,1.13-34.22,0-5.55-.1-11.09-.33-16.63-.17-4.17-.18-8.69-1.86-12.59-3-6.92-9.75-7.76-16.5-7.15-11.35,1-22.68,2.26-34,3.25-92.43,8-185.27,10-278,9.9C499.88,49.34,407,47.07,314.05,46.6s-185.66.87-278.21,7.95q-17.16,1.32-34.31,2.9c-.86.08-1.83.91-1.44,1.9,26.31,67.54,38.85,139.26,46.84,211C55,342.42,58.7,414.9,68.07,486.8q1.68,12.85,3.6,25.66c1.09,7.23,1.26,16.07,4.88,22.61,3,5.42,8.63,7.19,14.49,7.48,9,.43,18.26-.28,27.32-.47l118.77-2.48,237.54-5,237.53-5,29.95-.63c1.92,0,1.93-3,0-3L508.6,530.92,275.05,535.8l-117.77,2.47L99.4,539.48c-9.32.19-19,.67-21.87-10.25-2.19-8.3-2.94-17.19-4.16-25.67C63.14,432.51,59.22,360.77,52,289.4c-7.09-69.68-17.4-139.58-40-206.14Q7.78,70.81,3,58.55l-1.45,1.9C93,52,184.84,49.6,276.64,49.52c91.28-.09,182.54,2.08,273.82,2.77,91.79.69,183.66-.11,275.27-6.24q33.85-2.27,67.62-5.55c5-.49,10.17-1.42,15.23-1.4,7.34,0,10.6,4.45,11.32,11.34,1.12,10.88.76,22.11.51,33-1,45.07-7.58,89.8-8.87,134.86a803.64,803.64,0,0,0,34.92,258q4.69,15.27,10,30.34l1.45-1.9c-27.25,3-54.52,5.94-81.63,10.05-27.39,4.16-54.52,9.76-81.6,15.53-53.73,11.43-107.27,21.41-162.09,25.84-108.44,8.77-217.3,2.51-325.92,4.65-60.38,1.18-120.81,5.06-180.39,15.35l1.85,1Q113.3,474.27,106,370.39q-7.22-103-6.93-206.36.15-58,2.68-116l-1.5,1.5C182.43,57.88,263,35.73,343.14,21a1093.48,1093.48,0,0,1,476,18.06Q848,46.66,876.36,55.86c4.11,1.33,8.42,2.56,11.85,5.29,4.73,3.75,5.28,9.54,6,15.12,1.34,10.12,2.63,20.25,3.93,30.37,5.36,41.81,10.4,83.67,13.88,125.68s5.37,84.07,4.47,126.17-4.44,84.35-8.55,126.37c-1,10.51-2.09,21-3.15,31.52-.43,4.23-.55,9-2.7,12.83-3.11,5.5-9.67,5.42-15.2,5.46q-31.12.26-62.22,1.75c-41.54,2-83,5.41-124.38,9.21-82.34,7.56-164.66,16.65-247.38,18.72-41.32,1-82.71.31-123.89-3.26-41.87-3.63-83.35-10.48-124.51-18.88-20.34-4.14-40.62-8.65-60.86-13.3q-15.18-3.48-30.34-7c-2.32-.54-5.43-.53-6.81-2.67-1.06-1.63-.85-5.82-1.14-7.8q-1.14-7.8-2.26-15.6C97.05,453.61,91.31,411.37,86.57,369c-9.33-83.4-14.79-167.45-11-251.38Q76.95,87.17,80,56.84l-1.5,1.5c24.86-1.44,49.24-6.48,73.57-11.53,25.62-5.31,51.2-9.76,77.31-11.87,51.65-4.17,103.79-4,155.58-5q158.85-3.15,317.75-3.42,88.93-.15,177.87.61a1.5,1.5,0,0,0,0-3Z"/><path class="cls-1" d="M274,209.8c-10.43-2.63-19.9,5.48-26.83,12.34a84.94,84.94,0,0,0-17.27,25.06c-8.78,19.15-11.77,40.71-10.77,61.65.46,9.74,1.36,20.81,8.18,28.43s18.2,8.73,27.49,5.36c10.69-3.86,18.14-12.89,24.74-21.7,7.07-9.43,14-19.3,17.78-30.56,9.22-27.36-7.67-52.27-23.67-73-2.32-3-7.54,0-5.18,3,12.22,15.87,26.22,34.2,25.56,55.3-.33,10.53-4.88,20.25-10.41,29S272,322.27,264.53,329.34c-7.13,6.78-18,12.07-27.82,7.59-9.36-4.29-10.83-16.1-11.43-25.17-1.16-17.55.49-35.47,6.12-52.19a88.56,88.56,0,0,1,13.68-26.06c5.63-7.26,17-20.52,27.31-17.93,3.75.95,5.35-4.84,1.6-5.78Z"/><path class="cls-1" d="M325.48,271.4l-.25,50.47c0,3.27,5.32,4.21,5.9.79,1.47-8.65,3.28-17.23,5.52-25.72q1.67-6.36,3.64-12.64,1.13-3.58,2.35-7.14c.61-1.78,1.06-4.68,2.28-6.13,2.13-2.54,2.73-.77,3.88,1.41q1.56,3,3.1,6l6.22,12,12.88,25a3,3,0,0,0,5.18,0l24.89-50.27h-5.18q17.82,33.68,33.43,68.42c1.58,3.52,6.75.47,5.18-3q-15.6-34.74-33.43-68.42a3,3,0,0,0-5.18,0L371,312.44h5.18L359.75,280.6c-2.43-4.7-4.51-10.1-7.56-14.42-1.79-2.55-4.57-4.12-7.71-3s-4.65,4.25-5.75,7.05c-2,5.23-3.71,10.67-5.32,16.05a291.59,291.59,0,0,0-8.07,34.77l5.89.8.25-50.47c0-3.87-6-3.87-6,0Z"/><path class="cls-1" d="M502.48,284.4l-.25,50.47c0,3.27,5.32,4.21,5.9.79,1.47-8.65,3.28-17.23,5.52-25.72q1.67-6.36,3.64-12.64,1.13-3.58,2.35-7.14c.61-1.78,1.06-4.68,2.28-6.13,2.13-2.54,2.73-.77,3.88,1.41q1.56,3,3.1,6l6.22,12,12.88,25a3,3,0,0,0,5.18,0l24.89-50.27h-5.18q17.82,33.68,33.43,68.42c1.58,3.52,6.75.47,5.18-3q-15.6-34.74-33.43-68.42a3,3,0,0,0-5.18,0L548,325.44h5.18L536.75,293.6c-2.43-4.7-4.51-10.1-7.56-14.42-1.79-2.55-4.57-4.12-7.71-3s-4.65,4.25-5.75,7.05c-2,5.23-3.71,10.67-5.32,16.05a291.59,291.59,0,0,0-8.07,34.77l5.89.8.25-50.47c0-3.87-6-3.87-6,0Z"/><path class="cls-1" d="M636.32,301.54l-3.79,29.36c-.49,3.82,5.51,3.78,6,0l3.79-29.36c.49-3.81-5.51-3.78-6,0Z"/><path class="cls-1" d="M649.65,278.76c3.86,0,3.87-6,0-6s-3.87,6,0,6Z"/><path class="cls-1" d="M714.93,289.51c-12.06,0-26.56.46-34.89,10.61-6.42,7.83-7.85,20.11.8,26.88,18.95,14.85,46.3-5.46,46.49-26.57,0-4-5.56-3.74-6,0-3.84,33-7,66.25-11.63,99.2-1.79,12.85-4.43,26.19-11.44,37.33-7.24,11.52-21.89,22.12-35.93,16-3.51-1.53-6.57,3.64-3,5.18,13.12,5.74,27.68.59,37.3-9.34,10.06-10.37,14.79-24.52,17.41-38.43,3.18-16.85,4.5-34.11,6.48-51.13l6.84-58.79h-6c-.15,16.31-20.06,31.95-35.55,22.72-8.15-4.86-5.27-15.74.7-21.12,7.45-6.72,19.06-6.49,28.45-6.52,3.86,0,3.87-6,0-6Z"/></g></svg>
