<svg xmlns="http://www.w3.org/2000/svg" width="6339" height="3877" viewBox="0 0 6339 3877"><defs><style>.cls-1{fill:#f2ddf1;}.cls-2{fill:#c43b58;}</style></defs><title>prototype</title><g id="Layer_7" data-name="Layer 7"><path class="cls-1" d="M6339.5,3877.5H.5V-.5h6339Z"/></g><g id="Layer_3" data-name="Layer 3"><g id="Layer_4" data-name="Layer 4"><path class="cls-2" d="M3482.05,938.65c-.36,11.56,8.46,21.87,14.24,31.19,6.95,11.21,14,22.37,20.82,33.63,13.82,22.73,21.64,48.19,29.23,73.53,1.1,3.69,6.9,2.12,5.79-1.59-7.15-23.86-14.31-48.52-27-70.14-6.29-10.76-13-21.26-19.61-31.85l-10.24-16.51c-3.51-5.67-7.5-11.32-7.28-18.26.12-3.86-5.88-3.86-6,0Z"/><path class="cls-2" d="M3547.27,1074.1c7,27.62,12.16,55.09,2.75,82.81-4.31,12.71-10.07,24.86-13.79,37.78-3.86,13.39-6.17,27.16-8.49,40.88-.63,3.78,5.15,5.4,5.79,1.6,2.42-14.35,4.84-28.75,9-42.71,4-13.41,10.21-26,14.38-39.39,8.58-27.46,3-55.41-3.88-82.57-1-3.74-6.73-2.15-5.78,1.6Z"/><path class="cls-2" d="M3528.73,1236.85c-3,12.38-1.6,25.16-4.69,37.52-2.88,11.54-8.11,22.29-13.25,33-4.94,10.23-9.94,20.53-13.17,31.46-3.82,12.9-4.32,26.34-4,39.7.09,3.86,6.09,3.87,6,0-.28-13.41.27-26.75,4.3-39.65,3.58-11.44,9.08-22.12,14.23-32.9,4.73-9.91,9.33-20,11.92-30.74,2.92-12.13,1.54-24.64,4.5-36.75.92-3.75-4.87-5.35-5.79-1.59Z"/><path class="cls-2" d="M3212.44,1542.34a305.63,305.63,0,0,0,57.31.28c18.84-1.72,37.32-6.38,56.25-7.13,19.42-.77,38.73-.54,58.11-2.5a438,438,0,0,0,55.3-9.16c8.92-2.09,17.68-4.74,24.75-10.82,6.65-5.72,11.24-13.43,15.66-20.9,2-3.33-3.22-6.35-5.18-3-3.9,6.59-7.86,13.38-13.55,18.63-6.5,6-14.86,8.36-23.27,10.32a424,424,0,0,1-55.64,9.14c-18.08,1.75-36.12,1.66-54.24,2.24-18.36.59-36.17,4.94-54.39,6.82a305.12,305.12,0,0,1-61.11.1c-3.84-.38-3.82,5.62,0,6Z"/><path class="cls-2" d="M3479.18,1492.22c4.51-7.63,9-15.32,12.2-23.62,3.53-9.14,4.37-18.47,4.78-28.18q1.34-32.12,2.65-64.25c.16-3.86-5.84-3.86-6,0l-2.49,60.3c-.39,9.58-.66,19-3.85,28.13-3,8.71-7.8,16.69-12.47,24.59-2,3.33,3.22,6.36,5.18,3Z"/><path class="cls-2" d="M3489,761c-8.12-.79-15.49,3.17-22.48,6.81a168.39,168.39,0,0,0-23.13,14.09c-11.63,8.71-15.76,23-11.71,36.88,1.49,5.13,4.8,10.63,10.61,11.27,6.52.72,10.86-4.75,14.44-9.34a50,50,0,0,1,19-15.17c5.89-2.64,18.09-7.09,22.84-.49,2.23,3.1,7.44.11,5.18-3-6.85-9.51-20.49-6.19-29.64-2.28a54.64,54.64,0,0,0-16,10.52c-3.85,3.65-8,12.29-13.36,13.56-7.65,1.81-8.62-12.24-8.46-17.07a24.91,24.91,0,0,1,9.54-19.14c6.24-5,13.51-9.07,20.52-12.88s14.55-8.53,22.73-7.73c3.84.37,3.82-5.63,0-6Z"/><path class="cls-2" d="M3317.51,781c-27.08-30.33-70-33.11-107.93-33.82q-16.23-.3-32.47,0-8.36.15-16.72.44c-4.53.16-9.45,0-13.81,1.38-7.84,2.58-13.66,10.95-18.83,16.94a267.22,267.22,0,0,0-46.94,77.91c-.85,2.17,1.66,4.3,3.69,3.69,14.69-4.36,18.69-20.21,26.69-31.44,11-15.47,32.37-18.42,49.7-21.79,10.94-2.12,21.84-3.26,33-2,11.61,1.33,23.09,3.76,34.67,5.31a585.17,585.17,0,0,0,66.66,5.06c6.11.11,12.31.37,18.42,0,3.68-.2,6.31-1.43,7.37-5.12,2-7,.67-16.4-5.69-20.57-3.24-2.13-6.25,3.06-3,5.18,3.54,2.32,3.49,7.12,3.24,10.92-.16,2.44-.15,3.2-2.86,3.6s-5.94,0-8.73,0q-15,0-30-.87a572.2,572.2,0,0,1-61.81-6.76c-9.85-1.63-19.71-3.61-29.75-3.44-9.3.15-18.53,1.86-27.61,3.74-14.87,3.07-31.29,6.09-42.84,16.78-5.78,5.36-9.34,12.42-13.12,19.22s-7.94,14-15.83,16.3l3.69,3.69a263.72,263.72,0,0,1,24-46.73c9.27-14.32,19.93-29.15,32.6-40.68,7.1-6.47,20-4.56,29-4.76q15.26-.33,30.51-.17c19.58.22,39.5.45,58.74,4.49,19.57,4.11,38.33,12.55,51.83,27.67,2.58,2.89,6.81-1.37,4.24-4.24Z"/><path class="cls-2" d="M3416.92,592.49c9.44,18.14,14.58,37.91,19.84,57.56s10.67,39.05,18.67,57.66a182.21,182.21,0,0,0,13.82,26.18c5.25,8.2,11.23,15.91,16.16,24.31,10.25,17.46,14.31,37.49,16.08,57.45,1,11.31,1.3,22.67,1.73,34,.23,6.14.67,12.26.94,18.4.24,5.42,1.8,14.13-1.31,18.83-2.13,3.23,3.06,6.24,5.18,3,2.44-3.69,2.34-7.88,2.36-12.17,0-5.5-.28-11-.59-16.49-.62-11.18-.85-22.37-1.47-33.55-1.09-20-3.41-40.36-11.06-59s-21.59-33.85-30.86-51.73c-10-19.31-16.22-40.32-21.91-61.23-6.13-22.54-11.55-45.4-22.4-66.26-1.79-3.43-7-.4-5.18,3Z"/><path class="cls-2" d="M3413.4,846.8c-3.33,10.87-6.8,23-3,34.24,1.71,5.05,4.85,9.32,7.91,13.61q5.89,8.29,11.81,16.58c7.47,10.48,15.23,20.82,22.09,31.72,6.7,10.63,12,22,16.91,33.56,4.78,11.21,9.25,22.57,14.57,33.54s12.1,21.22,18.91,31.48c7.15,10.78,14.09,22.34,15.47,35.48,1.3,12.38-3.39,23-12.46,31.3-21,19.2-49.7,15.79-75.15,9.31l1.79,4.4c1-2.15,10.89-.73,13-.84,3.47-.17,8.42-.54,10.25-4,1.93-3.69.55-9.12-1.93-12.17-3.46-4.26-9-6.23-13.82-8.44-14.09-6.49-28.66-10.45-44.32-8.64-6,.69-12.65,2.59-16,8a12.22,12.22,0,0,0,.66,14.48l1.32-5a33,33,0,0,1-32.26-5.75c-9.51-7.78-13.27-20.17-10.87-32.09,5.47-27.09,36.45-37.56,59.44-24.57,3.37,1.9,6.39-3.28,3-5.18-26.69-15.08-63.08-2.22-68.5,29.51-2.33,13.6,1.91,27.61,12.65,36.58,10.49,8.75,25.15,12.12,38.11,7.29a3.06,3.06,0,0,0,1.32-5c-5.1-6.56,5.47-11.39,10.32-12.16a63.11,63.11,0,0,1,17.79,0c10.61,1.37,20.38,5.5,29.9,10.22,3.3,1.64,8.21,4,7.92,8.41-.13,2-.39,1.88-2.54,2.24a25.5,25.5,0,0,1-4.19.27c-4.56,0-14-1.55-16.43,3.81-.77,1.7-.25,3.88,1.79,4.4,21.81,5.56,46.41,9.42,67.36-1.22,9.53-4.84,18.8-12.81,23.76-22.4,5.29-10.23,5.25-22,2.15-32.93-3.43-12.06-10.44-22.55-17.37-32.84a231.76,231.76,0,0,1-19.27-34.25c-5.38-11.93-10.06-24.17-15.49-36.08a219.1,219.1,0,0,0-19.79-34.52c-8.78-12.59-17.81-25-26.72-37.54-4.39-6.15-8.3-12-8.71-19.8-.4-8,2.09-15.89,4.4-23.42,1.13-3.7-4.66-5.28-5.79-1.6Z"/><path class="cls-2" d="M3478.86,1245c9.1-12.56,5.51-30.85-8.4-38.23-7.86-4.16-15.07-3-23.38-1.37-9.43,1.88-18.06-4-27.2-5.76-39.71-7.8-76.88,12.08-114.45,21.13-10,2.42-20.22,3.29-30.37,5-8.58,1.44-16.88,4.24-22.9,10.8-1.39,1.53-1,4.59,1.33,5a415.28,415.28,0,0,0,112.08,5.14c9.41-.86,18.81-2.1,28.26-2.55,9.73-.47,19.08.46,28.71,1.82a94.31,94.31,0,0,0,25.34.11c9.14-1.15,18.25-2.54,27.16.66,3.64,1.3,5.21-4.49,1.59-5.79-16.25-5.83-33.77,1.57-50.54-.5-9.52-1.19-18.72-2.67-28.36-2.45-9.46.23-18.87,1.39-28.28,2.33a411.73,411.73,0,0,1-114.37-4.55l1.33,5c10.35-11.3,28.64-9.78,42.54-12.48,17.21-3.34,33.73-9.36,50.41-14.6s33.92-9.74,51.57-9.82a83.13,83.13,0,0,1,25.75,3.67c7.14,2.28,12.64,5.31,20.34,4,5-.89,9.76-2.57,14.92-1.52a20.65,20.65,0,0,1,11.24,6.43c6.49,7.27,6,17.91.5,25.54-2.27,3.13,2.94,6.13,5.18,3Z"/><path class="cls-2" d="M3261.52,1237.46a11.29,11.29,0,0,0-7.16,6.37c-2,5.06,1.45,6.86,5.19,9.75a92.37,92.37,0,0,0,25.91,14c10.05,3.5,20.47,4.63,31,5.61a165,165,0,0,1,34.44,6.89c11.21,3.51,22.17,7.72,33.41,11.11a334.65,334.65,0,0,0,35.1,8.35c11.84,2.22,23.77,4,35.71,5.62,7.61,1,19.26,4.79,25.93-.78,3.67-3.07,4.53-8,5.22-12.49a79,79,0,0,0,.83-16.9,82.39,82.39,0,0,0-9.33-33.19c-1.79-3.43-7-.4-5.18,3a75.18,75.18,0,0,1,8.14,25.93c.95,8.09,1.53,18.88-1.85,26.5-2.27,5.12-8.17,4-12.74,3.4s-9.43-1.27-14.14-1.93c-9.73-1.37-19.46-2.85-29.13-4.62a372.94,372.94,0,0,1-54.58-14.51c-17.74-6.12-34.95-10.84-53.68-12.57-20.91-1.93-39.85-7.84-55.91-21.88l.78,2.92c.35-2.27,1.31-4,3.64-4.81,3.61-1.29,2.06-7.08-1.6-5.79Z"/><path class="cls-2" d="M3387,1154.8a3.87,3.87,0,0,0-3.6-2.79,3.79,3.79,0,0,0-3.49,1.87,3.83,3.83,0,0,0,.69,4.57,3.92,3.92,0,0,0,4.63.65,3,3,0,0,0,1.08-4.1,3.06,3.06,0,0,0-4.1-1.08l-.1,0,.71-.3a.65.65,0,0,1-.21,0l.8-.11h-.11l.8.1a1.18,1.18,0,0,1-.31-.08l.72.3-.1,0a1.42,1.42,0,0,1,.59.55c.32.43.12.15.06,0l.3.72a.78.78,0,0,1,0-.21l.1.8v-.11l-.1.8a.54.54,0,0,1,0-.22l-.3.72c.24-.45,0-.19-.83.78a.56.56,0,0,1,.17-.09l-.71.3.19,0-.8.1h.31l-.8-.11a1.61,1.61,0,0,1,.29.09l-.72-.31c.25.14.13,0-.37-.3-.33-.5-.44-.62-.31-.36l-.3-.72,0,.1a3,3,0,1,0,5.78-1.6Z"/><path class="cls-2" d="M3382.31,1150.72a4.61,4.61,0,0,0-2.6,2.07,4.69,4.69,0,0,0-.5,3.3,4.47,4.47,0,0,0,4.55,3.39,4.13,4.13,0,0,0,3.37-1.85,4.4,4.4,0,0,0,.62-2.53,5.09,5.09,0,0,0-1.24-3,4,4,0,0,0-2.31-1.36,3.25,3.25,0,0,0-2.31.3,3.08,3.08,0,0,0-1.38,1.79,3,3,0,0,0,.3,2.32,2.89,2.89,0,0,0,1.79,1.37l.24,0c-.53-.25-.66-.3-.4-.16l-.42-.33.17.17c-.32-.45-.42-.57-.29-.37a.8.8,0,0,1,.08.16c-.2-.54-.26-.67-.17-.38,0,.07,0,.15.05.23l-.11-.8a2.46,2.46,0,0,1,0,.47l.11-.8c0,.15-.16.49.05,0s.06-.17,0,0l1.08-1.08c-.11.08-.48.25,0,0s.14-.08,0-.06l.8-.11a1.68,1.68,0,0,1-.39,0l.8.11c-.33-.06-.42-.22.22.15-.39-.22.46.48.24.22s.42.69.2.25l.2.48a1,1,0,0,1,0-.25l.1.8a2.42,2.42,0,0,1,0-.38l-.11.79a1.53,1.53,0,0,1,.06-.25l-.2.48c.11-.18.07-.15-.1.09-.41.5.24-.13-.28.26q-.34.24-.15.12c.2-.13.06-.07-.43.16a3.27,3.27,0,0,0,1.8-1.38,3.1,3.1,0,0,0,.3-2.31c-.46-1.43-2.12-2.68-3.69-2.09Z"/><path class="cls-2" d="M2739.21,1203.11a386.51,386.51,0,0,0,6.66,125.3c4.49,20.4,10.9,40.35,14.83,60.88,4.06,21.15,5.34,42.71,5.64,64.21.6,42.43-1.7,84.68,2.39,127a611.44,611.44,0,0,0,8.93,60.53c2.05,10.28,4.6,20.42,6.92,30.63,1.18,5.17,2.22,10.78.4,16-1.56,4.44-5.06,7.84-8.71,10.63-7.31,5.59-15.59,10.14-23.43,14.94-8.27,5.08-16.61,10-25.08,14.78-17.06,9.53-34.72,18.13-53.31,24.25a192.78,192.78,0,0,1-27.59,7c-9.33,1.6-20.56,3.66-29.88,1.17-3.95-1.06-7.31-3.42-11.08-4.91-4.62-1.81-9.5-2-14.41-1.74-8.76.55-17.54,1.76-26.23,3A558.18,558.18,0,0,0,2356,1830.17c-31,18.5-61.3,39.86-87.19,65.18-24,23.41-45.4,52.28-51.78,85.84a109.25,109.25,0,0,0-1.87,23.81c.11,3.85,6.11,3.87,6,0-1.05-35.86,17.3-68,40.73-93.83,24.56-27.11,54.73-49.29,85.55-68.72a553.67,553.67,0,0,1,208.5-78.39q14.28-2.25,28.68-3.72c4.56-.46,9.3-1.13,13.89-.61,5.08.57,9.12,3.49,13.74,5.35,8.42,3.39,18.06,2.28,26.85,1.24a182.81,182.81,0,0,0,27-5.31c36.67-10.08,69.7-30,101.69-50,6.78-4.24,14.23-8.35,19.18-14.82,5.1-6.67,5.58-14.49,4.12-22.53-1.92-10.51-5-20.86-7.1-31.34q-3.08-15-5.38-30.21c-6.43-42.45-6.9-84.87-6.37-127.7.27-21.17.35-42.39-1.37-63.52-1.69-20.68-5.66-40.8-10.89-60.85-5.33-20.4-10.53-40.71-13.5-61.62a378.42,378.42,0,0,1-3.49-64.53c.31-10.28,1.07-20.53,2.19-30.74.42-3.84-5.58-3.81-6,0Z"/><path class="cls-2" d="M3262.44,1539.93c-8.61,24-1.92,50.74,12,71.36,15.11,22.4,37.91,38.09,60.45,52.23,25.54,16,51.67,31.19,78.73,44.49,27.23,13.38,55.36,24.07,84.14,33.6,29.83,9.87,59.32,20.2,87.81,33.56,27.13,12.72,52.42,28.82,81.44,37.09,52.65,15,105.94,27.88,154.59,53.88,27,14.43,51.75,32.64,72.42,55.33,22.11,24.27,39.58,52.26,56.93,80,2,3.26,7.23.26,5.18-3-15.15-24.22-30.39-48.51-48.63-70.57a264.22,264.22,0,0,0-59.14-52.9c-43.85-28.68-94.46-45.11-144.59-59-14.15-3.92-28.49-7.3-42.5-11.71-14.87-4.68-28.58-11.72-42.3-19a633.48,633.48,0,0,0-81.74-36.6c-28.53-10.35-57.78-18.64-85.88-30.16-27.75-11.38-54.45-25.22-80.39-40.24-27-15.64-56-31.59-78.08-54-21-21.41-35.37-52.85-24.66-82.72,1.3-3.64-4.49-5.21-5.79-1.59Z"/><path class="cls-2" d="M3296.48,895c-8.17-13.41-15.55-28.15-25.6-40.26-8.87-10.68-21.33-15.62-35.09-15.44-14.48.19-28.66,4.81-42.24,9.44-13.12,4.47-26.09,9.71-38.12,16.66-13.41,7.75-25.29,17.69-34.38,30.3-2.26,3.13,2.94,6.13,5.18,3,19.53-27.08,53-40.08,84-49,16.13-4.64,36.11-8.37,50.37,3.11,6.4,5.16,10.72,12.38,15,19.3q7.91,12.92,15.77,25.87c2,3.29,7.19.28,5.18-3Z"/><path class="cls-2" d="M3286.85,905.9c-8.14-9.67-15.86-20.45-25.57-28.63A43.59,43.59,0,0,0,3231,866.7c-12.46.43-24.41,4.65-36.15,8.46l-40.49,13.13c-2.2.71-3.25,4.37-.72,5.48,20.56,9,41.1,17.34,63.73,18.77,11.74.73,23.38,1.68,35.1,2.63a61,61,0,0,0,30.7-5.21c3.52-1.58.47-6.76-3-5.18-9.81,4.44-20,5.21-30.58,4.11-10.75-1.12-21.42-1.68-32.19-2.35-21.51-1.36-41.16-9.44-60.7-17.95l-.72,5.48,36.81-11.93c11.34-3.68,22.86-8.08,34.81-9.21,12.23-1.17,22.88,2.33,31.87,10.71,8.54,8,15.68,17.59,23.18,26.5,2.49,3,6.72-1.3,4.24-4.24Z"/><path class="cls-2" d="M3242,868.86c-11.47,10.63-8.58,26.67-5.08,40.18,1,3.73,6.75,2.15,5.78-1.6-2.93-11.35-6.23-25.28,3.54-34.34,2.84-2.63-1.41-6.87-4.24-4.24Z"/><path class="cls-2" d="M3416.36,882.46c8.68-10.68,19-23.36,34-23.82,16.46-.51,26.36,13.13,34.51,25.44,2.12,3.2,7.32.2,5.18-3-9.07-13.7-20-28-38-28.42-17.53-.43-29.81,13.09-40,25.59-2.41,3,1.81,7.24,4.25,4.24Z"/><path class="cls-2" d="M3425.45,898.62l30.05-2.22,6.79-.5c3.6-.27,5.55-.28,8.17,2.44,3.3,3.42,5.87,8.11,8.67,12l5.18-3-1.43-1.94a3,3,0,0,0-5.48,2.32,159.4,159.4,0,0,1,2.68,29.25l3-3a243.68,243.68,0,0,1-31.46-6c-3.74-1-5.33,4.82-1.59,5.79a257.19,257.19,0,0,0,33,6.19c1.61.19,3-1.54,3-3a168,168,0,0,0-2.9-30.85l-5.48,2.31,1.43,1.94c2.26,3.07,7.45.11,5.18-3-3.46-4.77-6.69-9.88-10.46-14.4-3-3.56-6.21-3.38-10.59-3l-37.81,2.79c-3.83.28-3.86,6.29,0,6Z"/><path class="cls-2" d="M3457.89,893.1a37.84,37.84,0,0,0,1.56,39.37c2.14,3.19,7.34.19,5.18-3a31.82,31.82,0,0,1-1.56-33.31c1.87-3.38-3.31-6.41-5.18-3Z"/><path class="cls-2" d="M3429,896.11a19.92,19.92,0,0,0,13.54-10.67c1.68-3.46-3.49-6.51-5.18-3a14.23,14.23,0,0,1-9.95,7.92c-3.77.83-2.18,6.62,1.59,5.78Z"/><path class="cls-2" d="M3441.37,896.43a24.25,24.25,0,0,0,20-12c1.95-3.34-3.23-6.36-5.18-3a18,18,0,0,1-14.81,9.08c-3.85.19-3.87,6.19,0,6Z"/><path class="cls-2" d="M3460.73,892.51a39.78,39.78,0,0,0,19.92-7.06c3.14-2.2.14-7.4-3-5.18a33.65,33.65,0,0,1-16.89,6.24c-3.82.31-3.85,6.32,0,6Z"/><path class="cls-2" d="M3475.42,900.07a33.08,33.08,0,0,0,26-10.35c2.66-2.8-1.58-7.05-4.24-4.25a27.14,27.14,0,0,1-21.74,8.6c-3.86-.21-3.85,5.79,0,6Z"/><path class="cls-2" d="M3482.39,907.12a40.13,40.13,0,0,0,26-8.92c3-2.39-1.24-6.61-4.24-4.24a33.63,33.63,0,0,1-21.75,7.16c-3.86-.07-3.87,5.93,0,6Z"/><path class="cls-2" d="M3485.49,917.07a33.59,33.59,0,0,0,20-5.18c3.26-2.06.26-7.25-3-5.18a28,28,0,0,1-17,4.36c-3.86-.23-3.85,5.78,0,6Z"/><path class="cls-2" d="M3165.09,889.26a30,30,0,0,0,32.5-15c1.83-3.4-3.35-6.43-5.18-3a23.91,23.91,0,0,1-25.72,12.26c-3.77-.77-5.38,5-1.6,5.79Z"/><path class="cls-2" d="M3197.87,877.47a25.34,25.34,0,0,0,28.89-18.22c1-3.74-4.8-5.33-5.79-1.6-2.46,9.3-11.91,15.71-21.5,14-3.78-.66-5.4,5.12-1.6,5.79Z"/><path class="cls-2" d="M3233.12,872a36.85,36.85,0,0,0,22.33-12.72c2.47-2.94-1.76-7.2-4.24-4.24a31.91,31.91,0,0,1-19.69,11.18c-3.8.62-2.19,6.4,1.6,5.78Z"/><path class="cls-2" d="M3253.93,877.52a63.38,63.38,0,0,0,20-1.84c3.74-.95,2.15-6.73-1.6-5.79a58,58,0,0,1-18.37,1.63c-3.86-.25-3.84,5.75,0,6Z"/><path class="cls-2" d="M3268.35,887.93a21,21,0,0,0,8.81-.81c3.68-1.14,2.11-6.93-1.59-5.79a16.65,16.65,0,0,1-7.22.6c-1.62-.2-3,1.53-3,3a3.07,3.07,0,0,0,3,3Z"/><path class="cls-2" d="M3160,892a33.86,33.86,0,0,0,21.4-19c1.5-3.51-3.66-6.57-5.18-3a28.21,28.21,0,0,1-17.82,16.27c-3.68,1.13-2.11,6.93,1.6,5.79Z"/><path class="cls-2" d="M3153,1201.35a62.91,62.91,0,0,0-19.73,59.42c.77,3.78,6.55,2.18,5.79-1.6a56.8,56.8,0,0,1,18.18-53.57c2.9-2.56-1.36-6.79-4.24-4.25Z"/><path class="cls-2" d="M3324.91,1063.43a859.61,859.61,0,0,1-50.53,85c-9,13.36-18.55,26.34-28.18,39.26-8.84,11.85-17.23,24.21-20.69,38.8-.89,3.75,4.9,5.36,5.79,1.59,3.47-14.64,12.21-26.85,21.09-38.71,9.69-12.94,19.17-26,28.2-39.44a857.32,857.32,0,0,0,49.5-83.45c1.78-3.42-3.4-6.46-5.18-3Z"/><path class="cls-2" d="M3480.1,1136.52c1.73,10.86,11.45,18.83,17.59,27.36a161.12,161.12,0,0,1,18,32.21c1.46,3.52,7.27,2,5.79-1.59a169.42,169.42,0,0,0-16.61-30.84c-3.06-4.46-6.36-8.75-9.82-12.9-4-4.83-8.12-9.41-9.14-15.83-.6-3.81-6.39-2.19-5.79,1.59Z"/><path class="cls-2" d="M3424.86,604q.3-6.56.37-13.12c.05-3.86-5.95-3.87-6,0q-.08,6.57-.37,13.12c-.17,3.86,5.83,3.86,6,0Z"/><path class="cls-2" d="M3152.92,517q-2.48-1.8-5-3.56a3,3,0,0,0-4.1,1.07,3.07,3.07,0,0,0,1.08,4.11q2.49,1.75,5,3.56a3,3,0,1,0,3-5.18Z"/><path class="cls-2" d="M3422,593.21a305.07,305.07,0,0,0-20.72-38.79c-2.05-3.26-7.25-.25-5.18,3a305.07,305.07,0,0,1,20.72,38.79c1.56,3.52,6.73.48,5.18-3Z"/><path class="cls-2" d="M3426.86,595.86c7.63-39.21-1.23-79.2-17.67-115-8.63-18.81-19.29-36.6-30.7-53.84-11.19-16.88-22.74-33.72-35-49.82a132.9,132.9,0,0,0-19.67-21.31c-7.17-6-15.07-11.24-21.62-18-11-11.33-15.31-26.89-22.95-40.32-3.47-6.1-7.69-11.83-13.29-16.13-6.92-5.32-15.24-7.48-23.73-8.88-21.92-3.63-43.93-6.78-65.9-10.16-42.06-6.48-88.76-17.48-129.07,1.86-3.48,1.67-.44,6.85,3,5.18,35.17-16.88,75.91-8.73,112.75-3.06l62.42,9.61c9.52,1.47,19.75,2.17,28.79,5.67,7.47,2.89,13.14,8.4,17.45,15,7.84,12,11.81,26.19,20.1,38,10,14.27,26.19,22.42,37.87,35.18,13.16,14.38,23.92,31.32,35,47.34s21.69,32.39,30.89,49.57c20.75,38.74,34.17,83.47,25.6,127.55-.73,3.77,5.05,5.39,5.78,1.59Z"/><path class="cls-2" d="M3108.26,248.64c6.07-20.9-1.25-42.44-14.76-58.79C3078,171,3055,161.37,3031.33,157.52c-26.39-4.3-53.82-3-80.37-.93-27.82,2.12-55.71,6.59-81.9,16.49-25.87,9.78-49.65,24.19-72.54,39.54-11.06,7.41-22.06,15.25-30.95,25.24-4.16,4.67-7.79,9.8-12.1,14.33-5.08,5.34-11.15,9.14-17.67,12.49-25.28,13-51.58,25.34-78.78,33.74a268.28,268.28,0,0,1-41.22,8.79c-13.35,1.93-26.57,4.18-38.87,10-12.94,6.12-24.32,15.1-35.64,23.74-10.92,8.35-21.79,16.89-31.33,26.83a122.06,122.06,0,0,0-12.64,15.34,93.88,93.88,0,0,0-5,8.1c-.75,1.37-1.33,3-2.18,4.26-1.5,2.29-2.5,2-5.34,2.51l-50.35,8.41c-2.86.48-2.87,5.31,0,5.79A153,153,0,0,0,2540.87,391c16.62-10.47,31.7-23.08,48.84-32.78a247.64,247.64,0,0,1,117.39-32c3.86-.08,3.87-6.08,0-6a255.48,255.48,0,0,0-106.64,25.56c-17.3,8.4-32.83,19.16-48.41,30.33-15.86,11.37-32.37,20.93-51.22,26.4A146.64,146.64,0,0,1,2436,406.4v5.79l43.57-7.28c4.93-.82,12.51-.06,15-5a116.78,116.78,0,0,1,9.25-15.75c14.42-19.89,35.63-35.15,55.43-49.28,10.74-7.68,22.05-14.27,34.9-17.66s26.29-4.36,39.39-6.81c26.33-4.94,51.32-15.14,75.54-26.35,12-5.55,24.47-10.81,35.81-17.61,11-6.57,17.55-16.52,26.06-25.72,9.16-9.91,20.35-17.56,31.54-25s22.5-14.54,34.22-21a250.27,250.27,0,0,1,77.38-27.66c26.87-4.81,54.59-6.38,81.87-6.24s57.44,3.42,80,20.5c19.79,15,33.68,40.69,26.43,65.67-1.08,3.71,4.71,5.3,5.78,1.59Z"/><path class="cls-2" d="M3105.18,200.51c4.75-24.42-8.46-46.25-23.73-64.16a306,306,0,0,0-27.35-28.2c-9.15-8.28-19.2-15.29-30.93-19.35-24.27-8.41-51.1-4.88-75.05-14.44-11.72-4.67-21.39-13-31.79-19.92-10.19-6.78-21.11-11.49-33.44-12.31-27.12-1.79-52.76,12.59-76.29,24.14l-81.69,40.09c-24.74,12.14-51.81,22.69-72.79,41-9.67,8.44-18.65,18.56-30.54,23.95a38.77,38.77,0,0,1-17,3.63c-6.75-.21-11.15-2.91-16.39-6.71-10.64-7.7-17.62,12.3-20.58,19.3a134.76,134.76,0,0,0,6.48,117.39c1.9,3.36,7.08.34,5.18-3a127.58,127.58,0,0,1-16-68.82,128.93,128.93,0,0,1,6.18-33.54,120.1,120.1,0,0,1,7-16.9,69.55,69.55,0,0,1,3.83-7c.78-1.17,1.34-2.51,2.86-2.76,1.79-.3,2.72,1.27,4.13,2.34,17.92,13.54,40.94,1.33,55.37-11.17,9.82-8.52,18.84-17.52,30-24.36s23.15-12.35,34.9-18.12l77.26-37.91c12.37-6.07,24.72-12.18,37.11-18.21,12.16-5.93,24.58-11.61,37.75-14.9,12.91-3.22,26.58-3.79,39.15,1.13,10.62,4.16,19.57,11.62,28.86,18A90.72,90.72,0,0,0,2959.15,84c11.42,2.64,23.16,3.5,34.77,4.89,14.07,1.67,28.21,4.31,40.5,11.74,11.8,7.13,21.5,17.28,31,27.12,18.07,18.65,39.41,43.11,34,71.16-.74,3.77,5,5.39,5.78,1.6Z"/><path class="cls-2" d="M2577.43,313l9.14,7.26a3.11,3.11,0,0,0,4.24,0c1.05-1,1.28-3.24,0-4.25l-9.14-7.25a3.09,3.09,0,0,0-4.24,0c-1,1-1.28,3.23,0,4.24Z"/><path class="cls-2" d="M2571.6,366.47c-9,32-36.25,53.18-61.16,72.95-12.76,10.14-25.6,20.27-36.86,32.1A208.38,208.38,0,0,0,2444,511.19a220.83,220.83,0,0,0-13.5,192.1c7.26,18.08,15.85,35.79,20.47,54.8,5.27,21.69,1.91,43,.91,64.95-1,21.72,3.79,42.79,5.66,64.32,1.92,22.09-2.3,43-7.3,64.44-9.76,41.75-14.6,84.29-12.94,127.2.75,19.45,2.46,39.46,10.86,57.31,8.14,17.29,22.08,31.43,36,44.19,28.19,25.86,61,46.4,95.56,62.56,38.64,18.06,79.38,31,119.88,44.1l30.25,9.81c3.68,1.2,5.26-4.59,1.6-5.78-77.66-25.2-158.69-47.71-224.05-98.84-14.78-11.57-29.15-24.37-41.08-38.91-13.4-16.35-19.78-35.23-21.85-56.1-4.17-42.17-.76-85.71,7.79-127.13,4.17-20.2,10.2-40.14,11.63-60.82,1.47-21.26-3.43-42.11-5.42-63.16-2-21.49,2.09-42.62,1.69-64.08-.36-19.3-6.24-37.57-13.43-55.3-6.95-17.13-14.78-33.93-19.58-51.84a201.92,201.92,0,0,1-6.8-48.9,218.13,218.13,0,0,1,20.93-96.82c14.27-30,35.2-54.62,60.82-75.55,23.88-19.5,51.08-37.72,66.69-65.09a92,92,0,0,0,8.59-20.59c1-3.72-4.75-5.31-5.79-1.59Z"/><path class="cls-2" d="M3245.53,459.77c-33.27-33.12-68.39-67.34-112.6-85.26-23.95-9.72-48.9-12.3-74.57-11.13-26.18,1.2-52.83,5.26-78.87.46-23.43-4.31-46.81-15.3-58.29-37.23-1.79-3.42-7-.39-5.18,3,9.59,18.31,27.25,29.94,46.55,36.16,23.32,7.52,47.74,6.71,71.88,5.08,27.62-1.85,55.1-3.76,82,4.2,22.71,6.71,43.44,18.73,62.36,32.77,22.52,16.71,42.63,36.42,62.47,56.16,2.74,2.73,7-1.51,4.24-4.24Z"/><path class="cls-2" d="M2741.9,347.62c-11.82,48.26,4.48,97.34,28.54,139.09,12.63,21.91,27.34,42.61,42,63.18,6.37,8.92,13,17.83,21.31,25.1,9,7.88,19.61,13.15,30.54,17.77C2892,604.48,2920,615.59,2947.77,627c3.57,1.46,5.12-4.34,1.59-5.79l-70.82-29c-11.23-4.6-22.76-9-32.94-15.68-9.81-6.48-17.52-15.44-24.46-24.82-27.78-37.62-56.63-77.84-70-123.2-7.57-25.73-9.89-53-3.47-79.28.92-3.75-4.87-5.35-5.78-1.59Z"/><path class="cls-2" d="M2872.61,751.68c-36.71,13-72.4-9.73-97.44-34.9-12.65-12.72-24.33-26.45-36.1-40-12.08-13.86-24-27.92-35.11-42.54-21.38-28-40.48-58.47-51.61-92.12-12.66-38.29-12.66-78.58-10.54-118.43,1-19.12-.89-44.15,14.4-58.39,6.58-6.13,15-10.5,19.63-18.51,3.81-6.57,5-14.84.38-21.3-2.23-3.11-7.44-.12-5.18,3,5.87,8.21-1,17.62-7.37,23.05s-13.59,10-18.24,17.29c-9.32,14.65-8.48,34.34-9.41,51-2.26,40.47-2.76,81.61,9.53,120.69,10.78,34.32,29.66,65.44,51.19,94,11,14.65,22.76,28.75,34.76,42.61s24.13,28.08,37,41.34c26.87,27.66,65.66,53.06,105.69,38.91,3.62-1.28,2.06-7.08-1.59-5.79Z"/><path class="cls-2" d="M2597.29,367.41a365.81,365.81,0,0,1-22.35,120.3,358.51,358.51,0,0,1-26.28,56.05c-9.84,17-21.22,33.13-29.91,50.79-8.36,17-13.53,35.06-13.5,54.07,0,19.82,5,39.35,12.38,57.65,15,37.31,39.83,69.09,59.93,103.62,11.17,19.17,20.85,39.37,25.83,61.1,4.57,19.91,5.12,41.53,17.6,58.63,2.25,3.09,7.46.1,5.18-3-11.14-15.26-12.38-34.44-16-52.38-3.71-18.61-10.81-36.31-19.57-53.1-18.27-35-43.36-66-60.61-101.63-8.95-18.45-16.09-38.31-18.14-58.82a112.5,112.5,0,0,1,9.88-58.5c8-17.62,19.08-33.6,29-50.16a369.53,369.53,0,0,0,52.52-184.59c.06-3.87-5.94-3.87-6,0Z"/><path class="cls-2" d="M2724.08,333c27.79-4.06,55.55-8.32,83.37-12.18,6.37-.89,13.09-1.68,19.39,0,6.08,1.64,11.06,5.62,16,9.33,8.52,6.38,17.33,10.82,28.05,11.88,22.06,2.17,44.09-9,61.41-21.57,17.92-13,33.88-29,54.05-38.68,12.22-5.87,24.56-7.5,38-7,12.15.44,24.69,1.07,35.34-5.78,3.23-2.08.23-7.28-3-5.18-10.19,6.56-22.4,5.27-33.95,4.9-10.89-.34-21.36.7-31.62,4.57-20.33,7.66-36.87,22.39-53.64,35.72-17.51,13.92-38.84,27.58-62.08,27.29-12.41-.16-21.77-5.55-31.43-12.78s-19-10.47-31.12-9.34c-14.6,1.36-29.18,4.11-43.69,6.23l-46.65,6.81c-3.81.56-2.19,6.34,1.6,5.79Z"/><path class="cls-2" d="M2653.07,1178c-9.58.33-16.86-7.09-23.63-12.91l-22.51-19.34-45.76-39.34c-13.75-11.82-27.71-23.58-36.28-39.9-7.57-14.42-10.83-30.73-11.89-46.86-1.24-18.9.31-37.85,2.11-56.65.37-3.84-5.64-3.82-6,0-3.24,33.92-6.13,70.5,8.54,102.34,7.82,17,21,29.58,34.95,41.6q24.65,21.22,49.34,42.4c9,7.74,18,15.52,27,23.22,7,5.93,14.51,11.77,24.12,11.44,3.85-.13,3.87-6.13,0-6Z"/><path class="cls-2" d="M2771.34,1705.2c-8.09,31.18-16.13,64.3-6.14,96,4.61,14.63,12.24,28.08,20.47,40.94q11.65,18.21,24.18,35.87c15.45,21.82,32.42,43,53.69,59.5,23.19,17.93,50,27.1,79.2,29,30.74,2,62.26-1.11,92.79-4.7,29.28-3.45,58.4-8.62,86.81-16.53,56.53-15.76,108.55-43,150.49-84.45,43.4-42.84,75.66-95.4,108.71-146.22l13.9-21.37c2.11-3.25-3.08-6.26-5.18-3-32.64,50.19-63.78,102.43-103.66,147.35-19.07,21.48-40.33,41-64.31,56.92-23.82,15.77-49.82,28-76.8,37.32-54.37,18.74-112.32,26.32-169.57,28.8-30.37,1.32-61.37-.29-88.73-14.84-23.42-12.45-42.27-31.81-58.54-52.45-8.27-10.5-15.93-21.47-23.42-32.54-8.17-12.07-16.49-24.14-23.54-36.92-7.71-14-13.47-29-14.82-45-1.39-16.44,1-32.9,4.56-48.94,1.72-7.76,3.7-15.47,5.69-23.17,1-3.74-4.81-5.33-5.78-1.59Z"/><path class="cls-2" d="M2888.27,1233.51c.74,11,5.26,20.84,9,31a280.16,280.16,0,0,1,10.39,34.89,276.37,276.37,0,0,1,5.77,36.07q.81,8.84,1.06,17.71c.09,3.11.13,6.23.11,9.34,0,2.2-.53,4.83.21,6.92a3,3,0,0,0,2.89,2.2,4.59,4.59,0,0,0,4.42-4.51,3,3,0,0,0-1.49-2.59l-.5-.32c-3.27-2.07-6.28,3.12-3,5.19l.5.31-1.48-2.59,1.58-1.49,2.89,2.21c-.82-2.32,0-6.56,0-9.06,0-2.81-.09-5.61-.2-8.41q-.33-8.4-1.15-16.77a289.25,289.25,0,0,0-5.4-34,280,280,0,0,0-9.52-33.2c-3.83-10.77-9.32-21.39-10.1-33-.25-3.84-6.26-3.87-6,0Z"/><path class="cls-2" d="M3255.57,1237.36a12,12,0,0,1-10.51-4.08c-2.6-2.86-6.83,1.39-4.24,4.25a18.13,18.13,0,0,0,16.34,5.61c3.81-.54,2.19-6.32-1.59-5.78Z"/><path class="cls-2" d="M3250,876.33c-5.37,6.79-7.49,15.41-4.4,23.72,1.75,4.68,9.09,15.23,13.54,7,1.8-3.38,3.51-6.27,3.7-10.19s.43-8.89-.43-12.91c-.63-3-2.32-7.87-5.06-9.52-3.34-2-5.61,1.44-7.47,3.76-2.39,3,1.83,7.26,4.24,4.25a19.09,19.09,0,0,1,2.21-2.76l-2.92-.78c3.14,3.06,3.37,7.59,3.4,11.64,0,2.09.16,4.24,0,6.32-.16,2.48-1.35,3.74-2.36,5.84a10.84,10.84,0,0,0-.64,1.38q1.63-1.18-1-2.61a17.92,17.92,0,0,1,1.35-20.85c2.37-3-1.84-7.27-4.24-4.24Z"/><path class="cls-2" d="M3466.1,899.23c-3.64,7.93-6.31,23.5,2.77,29a3,3,0,0,0,4.1-1.07c1.76-3.21,4-4.39,4.51-8.22a61.2,61.2,0,0,0,.15-9.67c-.13-5.63-2.22-10.55-8.38-11.06-3.85-.32-3.83,5.69,0,6,3.53.3,2.41,8.45,2.38,10.67,0,2.7,0,4.07-1.78,6.39a21,21,0,0,0-2.06,2.86l4.11-1.08c-2.94-1.78-3.08-7.62-3-10.54a25.29,25.29,0,0,1,2.41-10.25c1.59-3.49-3.58-6.54-5.18-3Z"/><path class="cls-2" d="M3467.76,897.06l-2.09,12.77,5.89.8a20.57,20.57,0,0,1,1.7-10.15l-5.48-2.31c-2.68,8.64-2.74,20.31,1.86,28.28l4.71-3.63-2.86-2.3c-2.54-2-6.46.47-4.71,3.64a18.22,18.22,0,0,0,5.41,6c1.58,1.18,3.95-.09,4.41-1.79,2.92-10.78,4.41-21.11-1.7-31.09a3,3,0,0,0-4.71-.61c-2.42,2.8-2,5.69.28,8.48,1.92,2.34,2.94,4.17,2.77,7.37a22.79,22.79,0,0,1-3.46,10.66l5.49.71.22-.54c1.36-3.61-4.44-5.18-5.79-1.59a6.17,6.17,0,0,0-.22,3.73c.42,2.66,4.27,2.76,5.49.72a28.32,28.32,0,0,0,4.3-15.29,14.66,14.66,0,0,0-1.24-5.8c-.11-.22-3-4.88-3.6-4.21l-4.71-.6c5.28,8.62,3.6,17.24,1.09,26.46l4.41-1.79a11.53,11.53,0,0,1-3.26-3.89l-4.71,3.64,2.86,2.29c2.52,2,6.53-.48,4.71-3.64-3.74-6.49-3.43-16.65-1.25-23.65,1-3.18-4.07-5.45-5.49-2.31a26.73,26.73,0,0,0-2.52,13.17c.21,3.15,5.32,4.34,5.9.8l2.08-12.78c.62-3.77-5.16-5.4-5.78-1.59Z"/><path class="cls-2" d="M3471.68,909.21a12,12,0,0,1-.42,5.55c-1.11,3.71,4.68,5.29,5.79,1.59a18.69,18.69,0,0,0,.41-8.73,3,3,0,0,0-3.69-2.1,3.07,3.07,0,0,0-2.09,3.69Z"/><path class="cls-2" d="M3253.1,906.92a3.78,3.78,0,0,0,3.26,1.89,3,3,0,0,0,2.59-1.49c3.28-5.15,3.58-11.8,3.07-17.75a18.4,18.4,0,0,0-2.58-8,21.79,21.79,0,0,0-2.51-3.46,7,7,0,0,0-1.49-1.39q-1.74-1,.11,1.32l-2.2,2.9.45-.09-3.69-2.1.13.34c1.35,3.58,7.16,2,5.78-1.6l-.12-.33a3.1,3.1,0,0,0-3.69-2.1l-.46.09a3.05,3.05,0,0,0-2.2,2.89,4.34,4.34,0,0,0,1.13,3.12c1.91,2.14,3.7,2.67,4.81,5.85,1.71,4.9,1,13-1.72,17.29l2.59-1.48-.43,0,2.59,1.48-.24-.36c-2.09-3.23-7.29-.23-5.18,3Z"/><path class="cls-2" d="M3168.12,513.06c-19.54.76-39,4.24-57.1,11.75a132.06,132.06,0,0,0-25.25,13.77c-8.24,5.78-14.76,12.73-20.95,20.63-12.46,15.9-19.4,36.23-24.36,55.62-2.77,10.8-5.07,21.72-7.91,32.51-1.32,5-2.75,10-4.41,15-1.72,5.16-4.17,10.1-5.73,15.28-3,9.9-8.82,19.29-12.78,28.94-4.16,10.11-7.86,20.41-11.45,30.73-1.91,5.5-4,10.07-7.94,14.42-3.54,3.89-7.9,7-12,10.28-8.17,6.46-15.94,13-22.85,20.8-13.5,15.28-26.94,30.73-38.17,47.8a150.81,150.81,0,0,0-22,53.67c-1,5.21-3,9.85-4.33,15-1.46,5.59-2.9,11.19-4.81,16.64-4.2,12-11.76,21.62-19.36,31.69-7.25,9.62-13.36,19.33-17.93,30.5-4.81,11.75-9.64,22.29-18.66,31.47-2.71,2.75,1.53,7,4.24,4.24a77.9,77.9,0,0,0,16.25-24.44c4.18-9.75,7.79-19.4,13.74-28.27s12.92-17.08,18.94-25.93c5.66-8.33,8.95-17.91,11.59-27.56,1.33-4.85,2.44-9.55,4.41-14.15,1.76-4.1,1.93-9,3-13.37a141.43,141.43,0,0,1,9.91-28.49c8.76-18.34,21.58-34.58,34.69-50,6.56-7.69,13-15.74,20.39-22.69s15.9-12.79,23.61-19.47,11-14.59,14.3-24c3.41-9.72,7-19.42,10.93-28.93q3.34-8,7.17-15.8c1.07-2.19,2.2-4.34,3.32-6.5,1.29-2.49,1.52-4.74,2.43-7.38,3.42-9.89,7.15-19.43,9.77-29.62,5.45-21.2,9.53-42.68,18.3-62.87a107.55,107.55,0,0,1,19-29.39c7.47-8.32,16.94-14.57,26.81-19.73,20.12-10.5,42.62-15.22,65.18-16.1,3.85-.15,3.87-6.15,0-6Z"/><path class="cls-2" d="M3403.16,552.19c-6.4-12.9-14.9-25.21-26.38-34.09a57,57,0,0,0-39.49-11.4c-7.8.62-15.43,2.68-23.11,4.06a270.89,270.89,0,0,1-28.43,3.25c-17.73,1.29-35.54.64-53.28-.21-20.34-1-40.69-2.14-61-1-3.84.22-3.86,6.22,0,6,33.91-2,67.74,2.67,101.65,1.78a286.08,286.08,0,0,0,48.32-5.15c15.32-3.06,30.24-4.91,44.65,2.75,14.61,7.77,24.75,22.52,31.93,37,1.71,3.46,6.89.42,5.18-3Z"/><path class="cls-2" d="M3405,555.83c-.5-1-1-2-1.5-2.92a3,3,0,0,0-4.11-1.07,3.07,3.07,0,0,0-1.07,4.1l1.5,2.92a3,3,0,0,0,4.1,1.07,3.08,3.08,0,0,0,1.08-4.1Z"/><path class="cls-2" d="M2833.63,1009.23c-9.78-3.61-17.21-11-24.16-18.48-7.31-7.9-14.52-15.86-22.13-23.47-14.67-14.66-30.61-28.36-48.61-38.78-17.65-10.21-37.42-17.21-57.84-18.69-18.12-1.32-40.49,1.05-53.47,15.24-16.21,17.73-14.1,43.14-11.47,65.18.45,3.79,6.46,3.83,6,0-2.34-19.55-5-42.18,8-58.84,12.22-15.7,36.11-17.23,54.39-15.28,40.62,4.34,74.22,30.31,101.9,58.56,13.89,14.17,26.53,33.23,45.82,40.34,3.63,1.34,5.2-4.46,1.6-5.78Z"/><path class="cls-2" d="M2616.93,990.33A476.11,476.11,0,0,0,2634.6,1060c7.13,21.16,15.05,41.92,29.74,59.07s31.53,33.3,48,48.9,33.7,30.1,52.65,42.39a464.26,464.26,0,0,0,70.55,37c3.51,1.5,6.57-3.67,3-5.18-42.25-18-81.42-41.23-115.37-72.33-16.19-14.84-31.63-30.58-46.79-46.47-7.86-8.25-15.13-16.88-20.58-26.94-5.33-9.83-9.25-20.4-13-30.92a474.87,474.87,0,0,1-20.14-76.81c-.67-3.8-6.45-2.19-5.79,1.59Z"/><path class="cls-2" d="M2862.56,1241c9.24-.62,16.18-6.41,22.39-12.8,2.68-2.78-1.55-7-4.25-4.25-5,5.13-10.64,10.55-18.14,11-3.83.26-3.86,6.26,0,6Z"/><path class="cls-2" d="M2831.22,1206.25c12.37,41.47,15.47,83.77,14.93,126.85-.13,10.82-.38,21.64-.64,32.45-.12,4.84-.07,9.72-.38,14.54-.16,2.5-.26,6-2.19,7.91-3.43,3.37-5.62-.23-6-3.69-2-21.62-2.07-43.67-2.25-65.37q-.3-36.68,1.54-73.32c.19-3.86-5.81-3.85-6,0q-1.86,37.62-1.52,75.31.18,18.83.94,37.65.36,8.91.84,17.82c.24,4.5-.3,10.25,1.78,14.42,3.33,6.68,12.35,5.55,16.11-.15,2.37-3.59,2.6-8,2.75-12.17.25-6.63.34-13.28.49-19.92.56-24.69,1.13-49.43-.45-74.1a360.07,360.07,0,0,0-14.21-79.82c-1.1-3.69-6.9-2.12-5.79,1.59Z"/><path class="cls-2" d="M2824.72,1244.7c3.86,0,3.87-6,0-6s-3.87,6,0,6Z"/><path class="cls-2" d="M2822.46,1240.12c-6.06,10.25-6.33,22.06-6.57,33.64l-.87,43.55c-.55,27.18-.32,54.69,9.86,80.38,3.47,8.75,11.07,18.18,21.7,16,11-2.21,15-13.69,17-23.31a294.37,294.37,0,0,0,5.39-80.18,299.92,299.92,0,0,0-6.51-44.83c-3.11-13.89-6.63-28.35-14.09-40.62-2-3.29-7.2-.28-5.18,3,5.95,9.79,9,20.93,11.77,32a288.3,288.3,0,0,1,6.62,35.68,294.68,294.68,0,0,1,0,70.36c-1.29,10.76-2.19,23.53-6.81,33.47-2.5,5.36-7.76,10.34-14.11,8.16-5.84-2-8.84-8.16-10.77-13.54-8.21-22.89-9.43-46.58-8.95-70.66q.41-20.79.83-41.58c.26-12.82-.87-27.06,5.91-38.52,2-3.33-3.22-6.35-5.18-3Z"/><path class="cls-2" d="M2832.59,1207.67c3.45,1.91,4.91,5.62,6.56,9l6.11,12.6c1.69,3.47,6.86.43,5.18-3-2.47-5.1-4.85-10.25-7.43-15.3-1.78-3.49-3.91-6.53-7.39-8.46s-6.41,3.3-3,5.18Z"/><path class="cls-2" d="M2864.3,1234.87l-10.93,1.09c-3.8.38-3.84,6.38,0,6l10.93-1.09c3.8-.37,3.84-6.38,0-6Z"/><path class="cls-2" d="M2842.83,1242.2a24.75,24.75,0,0,0-7.13.42,3,3,0,0,0-2.09,3.69,3.07,3.07,0,0,0,3.69,2.1,19.35,19.35,0,0,1,5.53-.21,3,3,0,0,0,3-3,3.06,3.06,0,0,0-3-3Z"/></g></g><g id="Layer_1" data-name="Layer 1"><path class="cls-2" d="M3458.69,2079.36q-158.39-1.28-316.77.16-79.44.72-158.87,2.13c-52.36.93-104.86,1.14-157.16,3.91a620.85,620.85,0,0,0-83.45,10c-28.46,5.41-56.82,11.75-85.83,13.34a1.56,1.56,0,0,0-1.5,1.5c-12.25,114.29-2.78,229.4,12.58,342.9,4.4,32.52,9.29,65,14.31,97.4a1.44,1.44,0,0,0,1,1.05c67.09,14.86,134.37,29.74,202.8,36.92,68.08,7.15,136.71,6.5,205,2.61,69-3.93,137.64-11.11,206.45-16.87,34.41-2.88,68.85-5.41,103.35-7q25.83-1.2,51.7-1.62c10.7-.16,27.64,3,31.93-10.05,2.27-6.93,2.16-15,2.92-22.19q1.37-12.72,2.66-25.45c1.75-17.29,3.37-34.6,4.69-51.93a1036,1036,0,0,0,3-104.39c-1.76-69.56-10.66-138.67-20.08-207.53-1.08-7.85-1.29-16.47-3.67-24-1.74-5.53-5.79-8.82-11-11-14.28-5.94-30.17-9.34-45.09-13.36q-47.26-12.7-95.49-21.3a1161.25,1161.25,0,0,0-195.52-18,1148.38,1148.38,0,0,0-195.78,15.34c-67.35,11.16-134.15,28.31-202.69,30.27a400.51,400.51,0,0,1-49.84-1.6,1.51,1.51,0,0,0-1.5,1.5,2558.54,2558.54,0,0,0,12.34,393.76q5.9,54.13,14.1,108c.13.86,1.13,1.16,1.85,1,107.21-17.54,216.18-15,324.42-14.38,54,.32,108,.19,161.91-3.13,53.64-3.3,106.47-10.78,159.15-21.28,30.24-6,60.43-12.42,90.89-17.25,31.34-5,62.91-8.21,94.46-11.47.88-.09,1.81-.89,1.44-1.89a723.5,723.5,0,0,1-45.09-256.12c.35-44.93,6.92-89.37,8.85-134.21.49-11.43.62-22.88.17-34.31-.26-6.55-.22-15-6.9-18.6-3-1.62-6.68-1.65-10-1.43-6,.39-11.93,1.13-17.88,1.67q-16.65,1.5-33.31,2.76c-90.88,6.87-182.06,8.39-273.17,8.11-91.28-.28-182.55-2.37-273.83-2.73s-182.35,1-273.28,7.62q-16.68,1.22-33.33,2.67c-.85.08-1.85.92-1.45,1.9,26.91,65.38,39.49,135.27,47.48,205.2,7.95,69.54,11.77,139.54,21.84,208.84q1.88,13,4.09,25.91c1,5.58,2.23,11.73,7.42,15,6.39,4,15.37,2.55,22.48,2.41l28.94-.57,115.77-2.29,232.55-4.61,232.55-4.6,28.94-.58c1.93,0,1.94-3,0-3L3091.68,2559l-228.56,4.53-114.77,2.27-56.89,1.12-14,.28c-4.46.09-9.52.66-13.84-.74-9-2.9-9.09-13.82-10.36-21.65-11.26-68.85-15.31-138.58-22.56-207.91-7.13-68.11-17.4-136.48-40.54-201.22q-4.28-11.94-9.11-23.67l-1.45,1.89c89.51-7.81,179.38-10.17,269.2-10.34s179.92,1.81,269.88,2.54,179.72.25,269.43-4.88q33.84-1.93,67.64-4.8c10.37-.89,21.24-3,31.64-2.71,7.42.21,10.05,5,10.68,11.8.49,5.32.47,10.76.52,16.11.42,44.65-6.82,88.92-8.68,133.48a722.67,722.67,0,0,0,34.16,251q4.89,15.19,10.44,30.15l1.45-1.9c-27.25,2.81-54.51,5.63-81.63,9.52-27.37,3.93-54.51,9.24-81.61,14.7-53.75,10.83-107.34,20.27-162.08,24.46-108.46,8.3-217.3,2.38-325.92,4.4-60.36,1.12-120.76,4.78-180.39,14.53l1.84,1.05a2558.61,2558.61,0,0,1-29-390.6q.15-55.2,2.69-110.36l-1.5,1.5c80.08,7.71,158.9-12.08,237.16-26a1153.68,1153.68,0,0,1,467,12.52q28.55,6.73,56.73,14.93c8.35,2.43,18.63,4.08,26,8.8,4.58,2.93,5.92,7.62,6.68,12.73.82,5.5,1.52,11,2.28,16.52,5.63,41.16,11.08,82.35,15,123.71s6.17,83,5.45,124.59c-.7,40.65-4.22,81.19-8.37,121.61-1.07,10.44-2.19,20.88-3.3,31.32-.49,4.53-.5,10-3.33,13.88-3.44,4.65-9.47,4.43-14.7,4.47q-30.73.24-61.45,1.62c-40.69,1.82-81.31,5-121.88,8.47-81,7-162,15.51-243.36,17.82a1214.16,1214.16,0,0,1-121.41-2.15c-41.22-3-82.12-8.87-122.74-16.43-19.92-3.71-39.76-7.78-59.57-12q-14.86-3.18-29.69-6.46l-15.31-3.38c-2.54-.56-4.2-.48-5.14-3.14s-.93-6-1.35-8.75c-6.31-41.07-12.34-82.19-17.37-123.44-9.88-81.13-15.9-163-12.16-244.76q1.36-29.88,4.55-59.64l-1.5,1.5c24.82-1.36,49.22-6.13,73.57-10.91,25.54-5,51.05-9.22,77-11.21,52.1-4,104.63-3.79,156.85-4.77q158.36-3,316.75-3.22,88.93-.14,177.88.59a1.5,1.5,0,0,0,0-3Z"/><path class="cls-2" d="M2852.08,2255c-10.41-2.48-19.94,5.2-27.06,11.94a80.74,80.74,0,0,0-16.9,23.27c-8.83,18.05-11.9,38.65-10.92,58.6.48,9.74,1.54,21,9.12,28.06,7.06,6.57,17.77,7.25,26.56,4.2,10.79-3.74,18.44-12.56,25.27-21.28s13.69-18,17.39-28.7c9.12-26.33-8.5-50.09-24.28-69.49-2.44-3-6.66,1.27-4.24,4.24,12,14.74,26.09,32.23,25.05,52.39-.55,10.44-5.68,19.89-11.49,28.32-5.38,7.8-11.34,16-18.56,22.2s-17.3,10.44-26.61,6.86c-9.89-3.81-11.5-15.44-12.09-24.68-1.07-16.63.7-33.58,6.42-49.3a80.75,80.75,0,0,1,13.71-24.28c5.85-7,17-19,27-16.56,3.76.89,5.36-4.89,1.6-5.79Z"/><path class="cls-2" d="M2903.57,2313.49l-.25,47.78c0,3.28,5.28,4.2,5.89.79,1.53-8.5,3.43-16.92,5.77-25.24q1.77-6.24,3.84-12.39c1-3.1,2-9.14,4.28-11.43,3.07-3.08,5.24,4.24,6.59,6.71l6.47,11.86,12.93,23.72a3,3,0,0,0,5.18,0l24.89-47.58H2974q17.81,31.82,33.44,64.76c1.65,3.49,6.83.45,5.18-3q-15.63-32.94-33.43-64.77a3,3,0,0,0-5.19,0l-24.88,47.58h5.18l-16.63-30.5c-2.43-4.46-4.5-9.78-7.69-13.75-1.82-2.25-4.53-3.44-7.38-2.44s-4.48,3.83-5.6,6.43c-2.11,4.93-3.75,10.13-5.37,15.24a263.67,263.67,0,0,0-8.17,33.23l5.89.8.25-47.78c0-3.86-6-3.87-6,0Z"/><path class="cls-2" d="M3080.57,2325.8l-.25,47.77c0,3.28,5.28,4.21,5.89.8,1.53-8.5,3.43-16.93,5.77-25.24q1.77-6.24,3.84-12.4c1-3.09,2-9.13,4.28-11.42,3.07-3.08,5.24,4.24,6.59,6.71l6.47,11.86,12.93,23.72a3,3,0,0,0,5.18,0l24.89-47.59H3151q17.81,31.83,33.44,64.77c1.65,3.49,6.83.44,5.18-3q-15.63-32.94-33.43-64.76a3,3,0,0,0-5.19,0l-24.88,47.58h5.18l-16.63-30.5c-2.43-4.46-4.5-9.79-7.69-13.75-1.82-2.26-4.53-3.45-7.38-2.44s-4.48,3.82-5.6,6.42c-2.11,4.94-3.75,10.13-5.37,15.25a263.1,263.1,0,0,0-8.17,33.22l5.89.8.25-47.77c0-3.87-6-3.87-6,0Z"/><path class="cls-2" d="M3214.52,2341.23l-3.79,27.79c-.52,3.77,5.26,5.41,5.78,1.59l3.79-27.78c.52-3.78-5.26-5.41-5.78-1.6Z"/><path class="cls-2" d="M3227.74,2320.62c3.86,0,3.87-6,0-6s-3.87,6,0,6Z"/><path class="cls-2" d="M3293,2330.47c-11.81.05-26.13.28-34.64,9.83-6.65,7.46-8.14,19.43.55,25.94,18.27,13.69,46.27-4.14,46.49-25.27,0-4-5.54-3.72-6,0-3.92,31.91-6.93,64.1-11.93,95.86-1.95,12.33-5,25.07-12.52,35.28-8,10.77-22.07,18.25-35.27,12.79-3.57-1.47-5.12,4.33-1.6,5.79,12.2,5,26.12.4,35.53-8.16,10.38-9.45,15.51-23.11,18.28-36.55,3.29-15.92,4.57-32.33,6.56-48.45l7-56.56h-6c-.17,16.25-20.81,29.71-35.56,21.37-8.4-4.75-5-15.6,1.52-20.4,7.71-5.68,18.52-5.43,27.64-5.47,3.86,0,3.86-6,0-6Z"/><path class="cls-2" d="M1776.84,2958.61q-108.75,3-217.39,9.27t-217,16q-61.35,5.51-122.61,12.07c-1.9.21-1.92,3.21,0,3q108.18-11.59,216.68-19.85t217.2-13.1q61.54-2.76,123.12-4.42c1.93-.05,1.94-3.05,0-3Z"/><path class="cls-2" d="M1217.41,2996.31a1033.64,1033.64,0,0,0,21.18,225.36q2.85,13.8,6.08,27.51c1.57,6.63,2.88,14.39,8.35,19.07,4.82,4.13,11.56,4.6,17.59,5.32q12.69,1.51,25.41,2.63a794.92,794.92,0,0,0,103.87,2.15,810.74,810.74,0,0,0,202.15-35,797.82,797.82,0,0,0,95-36c15.69-7.11,31.2-14.67,46.34-22.9,12.86-7,24.73-15.74,27.74-30.92,1.56-7.83,1.2-15.91,1.09-23.84q-.23-14.8-.64-29.59-.79-28.61-2.3-57.17-3.07-58.12-9.1-116-1.47-14.23-3.13-28.44c-.12-1-1.25-2.07-2.26-1.29-41.86,32.05-94.29,43.84-145.7,49.66-27.16,3.08-54.47,4.71-81.74,6.64l-95.54,6.76-187.1,13.24c-6.29.45-12.68.61-18.93,1.42-4.67.6-9.53,2.13-11.62,6.74-1.87,4.14-.61,9,.21,13.2q2.26,11.71,4.58,23.43,9.15,46.88,18.31,93.73,20.2,103.5,40.43,207a1.54,1.54,0,0,0,1.85,1,2784.62,2784.62,0,0,1,360.68-61.14q51.39-5.25,103-8.6a1.55,1.55,0,0,0,1.5-1.5l10.55-127c3.49-42.07,7.65-84.16,9.38-126.35a659.82,659.82,0,0,0-.59-70.88c-.13-1.91-3.13-1.93-3,0,2.81,42,.41,84.09-2.91,126-3.34,42.28-7,84.54-10.5,126.8l-5.93,71.46,1.5-1.5A2791.74,2791.74,0,0,0,1379.7,3295q-50.67,10.09-100.93,22.06l1.84,1q-17.73-90.81-35.47-181.61l-17.55-89.82-9-45.89c-1.32-6.76-5.93-18.54,2.84-22,6.35-2.48,14.57-1.81,21.28-2.29l183.12-13c58.32-4.12,116.9-7,175.07-12.93,54.6-5.61,110.86-16.87,155.39-51l-2.25-1.3q12.86,110.74,15,222.36c.31,16.78,3,36.35-10.09,49.29-5.5,5.45-12.4,9.26-19.18,12.88q-10.87,5.8-22,11.24a787.86,787.86,0,0,1-93.17,38.63,807.78,807.78,0,0,1-195.79,40.72,799.67,799.67,0,0,1-99.48,1.85q-24.65-1.08-49.19-3.72c-7.58-.81-17.69-.45-24.23-4.88-7.07-4.8-8-16.45-9.76-24.08a1025.46,1025.46,0,0,1-25.94-219.18q-.13-13.61.1-27.21c0-1.93-3-1.93-3,0Z"/><path class="cls-2" d="M1285.49,3096.35a454.16,454.16,0,0,0,14.74,80.89c.32,1.16,2.18,1.58,2.74.36l45.82-98.8c.8-1.74-1.78-3.26-2.59-1.51q-22.92,49.39-45.82,98.8l2.75.36a449.3,449.3,0,0,1-14.64-80.1c-.17-1.91-3.17-1.92-3,0Z"/><path class="cls-2" d="M1354.59,3132.09l-3.68,28.55c-.25,1.91,2.75,1.89,3,0l3.68-28.55c.25-1.91-2.75-1.9-3,0Z"/><path class="cls-2" d="M1366.14,3108.5a1.5,1.5,0,0,0,0-3,1.5,1.5,0,0,0,0,3Z"/><path class="cls-2" d="M1414.63,3130.18c-10-2.08-23.48-2.75-26.6,9.56-2,7.92-2.81,23.67,7.82,26,12.33,2.65,19.53-17.26,23.43-25.4a243.33,243.33,0,0,0,23.86-102.86c0-1.65-2.59-2.08-3-.4a468.32,468.32,0,0,0-9.79,123.68c.11,1.92,3.11,1.93,3,0a465.23,465.23,0,0,1,9.68-122.88l-2.94-.4a241.41,241.41,0,0,1-21.19,96.48,180.33,180.33,0,0,1-10.41,20.34c-2,3.28-4.9,7.35-8.88,8.4-4.76,1.26-7.78-2.31-9-6.38-1.72-5.9-1.55-16.44,2.91-21,5-5.11,14.05-3.49,20.23-2.21,1.88.4,2.69-2.49.8-2.89Z"/><path class="cls-2" d="M1464.14,3135.09l19.25-3.61a1.49,1.49,0,0,0,1.1-1.44c.08-7-6.07-12.72-13-12.69-7.56,0-13.61,6.56-15.52,13.43a27.4,27.4,0,0,0,.11,13.7c.82,3.44,2.12,9.19,5.49,11.15s8.45-.06,11.86-.76l18.23-3.74c1.89-.39,1.09-3.28-.8-2.89l-19.13,3.92c-4.29.88-7.91,2.26-10.58-2.06-1.87-3-2.72-7.81-2.95-11.26-.43-6.41,1.87-13.33,7.63-16.79,6.42-3.86,15.8-.1,15.71,8l1.1-1.45-19.25,3.6c-1.89.36-1.09,3.25.8,2.9Z"/><path class="cls-2" d="M1527.21,3120.56c-12-2.48-17.57,10.23-17.38,20.2.09,4.43-.3,11.89,4.16,14.53,4.15,2.45,10.77,1.19,15.08-.2,10-3.22,19.59-12.22,20.43-23.21.66-8.65-8.07-18.29-16.66-12.15-1.55,1.11-.06,3.71,1.52,2.59,3.52-2.52,8-1.28,10.42,2.09,3,4.12,1.83,9.92-.3,14.17A27.6,27.6,0,0,1,1529,3152a25.19,25.19,0,0,1-10.14,1.48c-5.76-.48-5.66-6.4-5.9-10.9-.42-8,2.4-21.38,13.5-19.1,1.89.39,2.69-2.5.8-2.89Z"/><path class="cls-2" d="M1579.14,3130.09l19.25-3.61a1.49,1.49,0,0,0,1.1-1.44c.08-7-6.07-12.72-13-12.69-7.56,0-13.61,6.56-15.52,13.43a27.4,27.4,0,0,0,.11,13.7c.82,3.44,2.12,9.19,5.49,11.15s8.45-.06,11.86-.76l18.23-3.74c1.89-.39,1.09-3.28-.8-2.89l-19.13,3.92c-4.29.88-7.91,2.26-10.58-2.06-1.87-3-2.72-7.81-2.95-11.26-.43-6.41,1.87-13.33,7.63-16.79,6.42-3.86,15.8-.1,15.71,8l1.1-1.45-19.25,3.6c-1.89.36-1.09,3.25.8,2.9Z"/><path class="cls-2" d="M1627.71,3113.41a104.47,104.47,0,0,0,7.65,44.47,1.5,1.5,0,0,0,2.89-.8,185.15,185.15,0,0,1-1.85-21c-.17-5.94-.3-12.52,2.68-17.86,6-10.68,20.16-8.48,30.11-6.43,1.88.38,2.69-2.51.8-2.9-10.63-2.18-24.78-4.19-32.23,5.82-3.64,4.9-4.36,11.25-4.41,17.17a170.7,170.7,0,0,0,2,26l2.89-.8a102.48,102.48,0,0,1-7.54-43.67c.09-1.93-2.91-1.93-3,0Z"/><path class="cls-2" d="M2734.43,2924.25l-204.59.14-204.59.14-115.77.08a1.52,1.52,0,0,0-1.45,1.9q30.21,99.75,54.8,201.08,7,29,13.59,58.13a1.47,1.47,0,0,0,1,1.05q120.68,18.87,242.82,25.84,60.87,3.45,121.87,3.87c39.68.27,79.32-1.27,119-1.28,43.16,0,86.87,3.06,127.55,18.61,1.11.43,2.1-.83,1.84-1.84a1273.1,1273.1,0,0,1-37.92-264.67q-1.38-37.61-.53-75.25a1.5,1.5,0,0,0-1.5-1.5l-258.17,20-258.17,20c-8.46.65-18.69,0-26.61,3.51-7,3.11-10.13,10-13,16.66a371.84,371.84,0,0,0-17.76,53.2,384.41,384.41,0,0,0-11.24,111.84,379.22,379.22,0,0,0,6.73,55.69c1.78,9,3.76,18.1,6.39,26.93,2,6.83,5,13.56,11,17.85s13.37,5.48,20.47,6.16c9.95.95,20,1.43,29.93,2.12q31.82,2.19,63.65,4.21c84.47,5.29,169.15,9,253.8,6.58,42-1.19,84-3.91,125.8-8.7q14.79-1.7,29.53-3.73c8.11-1.13,17.81-1.39,24.7-6.41,5.62-4.1,7.82-10.88,9-17.44,1.7-9.36,2.7-18.88,4-28.31q16.95-126.9,24.67-254.81c.83-13.84,3.09-32.47-9.65-42-5.6-4.17-12.74-5.19-19.56-5.19-9.57,0-19.23,1.31-28.75,2.14q-63.49,5.58-126.81,12.89-124.89,14.41-248.88,35.52-62.84,10.7-125.36,23.1c-19.73,3.92-39.65,7.48-59.2,12.26-14.22,3.47-30.11,9.38-37.09,23.31-5.3,10.56-5.27,24.5,4.36,32.54,1.47,1.23,3.6-.88,2.12-2.12-13.3-11.11-6.12-31.46,6-40.29,13.87-10.14,32.71-12.22,49.09-15.61q59.05-12.19,118.42-22.86,119.47-21.48,240-36.73,59.82-7.56,119.83-13.59,29.76-3,59.55-5.59c15.36-1.34,41.31-7.8,50.25,9.4,3.61,7,3.63,15.37,3.31,23-.41,9.84-1.15,19.68-1.8,29.51q-2,30.09-4.48,60.14-5,60.59-12.16,121-3.67,31.23-7.92,62.37c-1.17,8.61-1.54,18.05-4.52,26.27-3.46,9.54-11.94,12-21.08,13.33-40.16,6-80.71,9.66-121.25,11.85-80.25,4.34-160.7,2.47-240.92-1.69-40.19-2.09-80.35-4.75-120.5-7.52-9.32-.64-18.67-1.08-28-2-9.15-.88-18.53-3-24-11.13-4.73-7.05-6.27-16.5-8.18-24.63q-3.13-13.35-5.27-26.91a380.64,380.64,0,0,1,10.21-164q3.8-13.18,8.54-26.06c3-8.09,5.67-17.42,10.73-24.49,6.33-8.83,19.29-7.69,28.94-8.43l30.9-2.39,60.81-4.7,122.6-9.49,245.21-19,59.81-4.62-1.5-1.5a1276.58,1276.58,0,0,0,22.08,266.29q7.11,37.45,16.48,74.42l1.84-1.84c-50.54-19.32-105.32-19.43-158.66-18.35-57.77,1.16-115.48,1.25-173.23-1.13q-87.45-3.61-174.49-13.44-44.26-5-88.33-11.59-5.36-.79-10.69-1.63c-4.63-.71-5-1-6.08-5.58q-2.61-11.46-5.27-22.89-4.9-21-10.05-41.87-23.37-95-51.77-188.73l-1.45,1.9,204.59-.14,204.59-.14,115.77-.08a1.5,1.5,0,0,0,0-3Z"/><path class="cls-2" d="M2321.08,3020.49V3133.4a1.5,1.5,0,0,0,3,0V3020.49a1.5,1.5,0,0,0-3,0Z"/><path class="cls-2" d="M2349,3026.15a822.69,822.69,0,0,1-2.05,107.29c-.17,1.92,2.83,1.91,3,0a822.69,822.69,0,0,0,2.05-107.29c-.09-1.92-3.09-1.94-3,0Z"/><path class="cls-2" d="M2328.23,3075.62h25.4a1.5,1.5,0,0,0,0-3h-25.4a1.5,1.5,0,0,0,0,3Z"/><path class="cls-2" d="M2376.21,3078.44a1.5,1.5,0,0,0,0-3,1.5,1.5,0,0,0,0,3Z"/><path class="cls-2" d="M2408.14,3106.09l19.25-3.61a1.49,1.49,0,0,0,1.1-1.44c.08-7-6.07-12.72-13-12.69-7.56,0-13.61,6.56-15.52,13.43a27.4,27.4,0,0,0,.11,13.7c.82,3.44,2.12,9.19,5.49,11.15s8.45-.06,11.86-.76l18.23-3.74c1.89-.39,1.09-3.28-.8-2.89l-19.13,3.92c-4.29.88-7.91,2.26-10.58-2.06-1.87-3-2.72-7.81-2.95-11.26-.43-6.41,1.87-13.33,7.63-16.79,6.42-3.86,15.8-.1,15.71,8l1.1-1.45-19.25,3.6c-1.89.36-1.09,3.25.8,2.9Z"/><path class="cls-2" d="M2448.94,3092.77l-.12,24.46c0,1.64,2.65,2.1,2.95.4.72-4.2,1.59-8.35,2.67-12.47.52-2,2.32-11.9,4.12-12.8s5.78,8.88,6.42,10.12l6,11.67a1.51,1.51,0,0,0,2.59,0l12.06-24.35h-2.59q8.63,16.32,16.2,33.15c.79,1.75,3.38.23,2.59-1.52q-7.57-16.83-16.2-33.15a1.51,1.51,0,0,0-2.59,0L2471,3112.64h2.59l-9-17.51c-1.13-2.18-2.69-7.5-6.25-6.43-3.06.92-3.95,6.27-4.72,8.67a144.4,144.4,0,0,0-4.71,19.46l2.94.4.12-24.46a1.5,1.5,0,0,0-3,0Z"/><path class="cls-2" d="M2511.94,3092.77l-.12,24.46c0,1.64,2.65,2.1,2.95.4.72-4.2,1.59-8.35,2.67-12.47.52-2,2.32-11.9,4.12-12.8s5.78,8.88,6.42,10.12l6,11.67a1.51,1.51,0,0,0,2.59,0l12.06-24.35h-2.59q8.63,16.32,16.2,33.15c.79,1.75,3.38.23,2.59-1.52q-7.57-16.83-16.2-33.15a1.51,1.51,0,0,0-2.59,0L2534,3112.64h2.59l-9-17.51c-1.13-2.18-2.69-7.5-6.25-6.43-3.06.92-3.95,6.27-4.72,8.67a144.4,144.4,0,0,0-4.71,19.46l2.94.4.12-24.46a1.5,1.5,0,0,0-3,0Z"/><path class="cls-2" d="M2577.14,3104.09l19.25-3.61a1.49,1.49,0,0,0,1.1-1.44c.08-7-6.07-12.72-13-12.69-7.56,0-13.61,6.56-15.52,13.43a27.4,27.4,0,0,0,.11,13.7c.82,3.44,2.12,9.19,5.49,11.15s8.45-.06,11.86-.76l18.23-3.74c1.89-.39,1.09-3.28-.8-2.89l-19.13,3.92c-4.29.88-7.91,2.26-10.58-2.06-1.87-3-2.72-7.81-2.95-11.26-.43-6.41,1.87-13.33,7.63-16.79,6.42-3.86,15.8-.1,15.71,8l1.1-1.45-19.25,3.6c-1.89.36-1.09,3.25.8,2.9Z"/><path class="cls-2" d="M2630.94,3079.45a27.1,27.1,0,0,0-21.4,14.18,1.5,1.5,0,0,0,.54,2l14.26,6.52c2.1,1,4.78,1.72,6.66,3.06,1.67,1.2,3.31,5.33,2.78,7.46-.36,1.4-2.46,3.07-3.45,4a109.51,109.51,0,0,1-23.73,17.33c-1.69.93-.18,3.52,1.51,2.59a118.45,118.45,0,0,0,16-10.52c4.5-3.55,10.93-7.94,13-13.51,1.58-4.16-.34-7.52-4-9.62-6.76-3.91-14.45-6.69-21.56-9.94l.54,2a24,24,0,0,1,18.81-12.69c1.9-.2,1.92-3.2,0-3Z"/><path class="cls-2" d="M2647.59,3099.09l-3.68,28.55c-.25,1.91,2.75,1.89,3,0l3.68-28.55c.25-1.91-2.75-1.9-3,0Z"/><path class="cls-2" d="M2659.14,3075.5a1.5,1.5,0,0,0,0-3,1.5,1.5,0,0,0,0,3Z"/><path class="cls-2" d="M2685.63,3103.18c-10-2.08-23.48-2.75-26.6,9.56-2,7.92-2.81,23.67,7.82,26,12.33,2.65,19.53-17.26,23.43-25.4a243.33,243.33,0,0,0,23.86-102.86c0-1.65-2.59-2.08-2.95-.4a468.32,468.32,0,0,0-9.79,123.68c.11,1.92,3.11,1.93,3,0a465.23,465.23,0,0,1,9.68-122.88l-2.94-.4a241.41,241.41,0,0,1-21.19,96.48,180.33,180.33,0,0,1-10.41,20.34c-2,3.28-4.9,7.35-8.88,8.4-4.76,1.26-7.78-2.31-9-6.38-1.72-5.9-1.55-16.44,2.91-21,5-5.11,14.05-3.49,20.23-2.21,1.88.4,2.69-2.49.8-2.89Z"/><path class="cls-2" d="M2727.14,3106.09l19.25-3.61a1.49,1.49,0,0,0,1.1-1.44c.08-7-6.07-12.72-13-12.69-7.56,0-13.61,6.56-15.52,13.43a27.4,27.4,0,0,0,.11,13.7c.82,3.44,2.12,9.19,5.49,11.15s8.45-.06,11.86-.76l18.23-3.74c1.89-.39,1.09-3.28-.8-2.89l-19.13,3.92c-4.29.88-7.91,2.26-10.58-2.06-1.87-3-2.72-7.81-2.95-11.26-.43-6.41,1.87-13.33,7.63-16.79,6.42-3.86,15.8-.1,15.71,8l1.1-1.45-19.25,3.6c-1.89.36-1.09,3.25.8,2.9Z"/><path class="cls-2" d="M2763.71,3088.41a104.47,104.47,0,0,0,7.65,44.47,1.5,1.5,0,0,0,2.89-.8,185.15,185.15,0,0,1-1.85-21c-.17-5.94-.3-12.52,2.68-17.86,6-10.68,20.16-8.48,30.11-6.43,1.88.38,2.69-2.51.8-2.9-10.63-2.18-24.78-4.19-32.23,5.82-3.64,4.9-4.36,11.25-4.41,17.17a170.7,170.7,0,0,0,2,26l2.89-.8a102.48,102.48,0,0,1-7.54-43.67c.09-1.93-2.91-1.93-3,0Z"/><path class="cls-2" d="M3876.16,2929c-126.44-4.5-253.18-9-379.57-.79-35.29,2.3-70.52,5.61-105.6,10.13a1.54,1.54,0,0,0-1.45,1.9A1230.82,1230.82,0,0,1,3424,3185.55a1.54,1.54,0,0,0,1.5,1.5q105.53,7.66,210.91,17.1T3847,3224.83q59.26,6.33,118.47,13.23a1.5,1.5,0,0,0,1.5-1.5q-6.88-86.08-15.68-172-4.39-43-9.29-85.86-2.42-21.21-4.94-42.39c-1.18-9.82-1.89-21.34-9.27-28.78s-18.42-7.59-28.15-7.65q-21.48-.15-43-.21-43.47-.16-86.93-.13-86.43.06-172.85.89c-57.91.55-116,.45-173.83,2.44-3.65.13-7.41.39-10,3.3-3.28,3.66-3.12,9.5-3.5,14l-3.45,41.58q-3.63,43.54-7.25,87.1c-2.31,27.81-4.87,55.61-6.91,83.45-1.56,21.36-2.15,44.51,7.84,64.12,1.56,3.06,4.4,9.57,7.63,11.34,1.63.9,5,.25,6.75.26l12,.11q22,.18,43.93.34,42.93.32,85.86.5,173.72.77,347.43-.4,21-.13,41.93-.3a1.52,1.52,0,0,0,1.5-1.5l-14.54-249.07-1.8-30.89c-.36-6-.34-13.32-6.24-16.76-6.22-3.63-15.56-2-22.34-2l-31,.11-125,.44-141,.5a1.5,1.5,0,0,0,0,3l240-.85,60-.21c4.39,0,8.94-.39,13.29.25,6.23.92,8.51,5.22,9,11.09.83,9.75,1.15,19.58,1.72,29.35l7,119.55,7.91,135.5,1.5-1.5q-166.72,1.32-333.45.89-83.37-.21-166.73-.88l-21-.17-10-.09a19.62,19.62,0,0,1-4,0c-2.39-.71-3.56-2.94-4.79-4.84-6.08-9.42-9.13-20.43-10.42-31.49-2.77-23.88,1-48.49,2.94-72.3q6.84-82.15,13.67-164.31c.54-6.5.19-14.09,2-20.36,2.28-7.86,13.09-5.93,19.48-6q21-.37,41.95-.71,42-.67,83.92-1.15,166.86-1.93,333.71-1c11.57.06,27-1.66,34.78,8.94,7.14,9.76,6.68,24.86,8,36.35q4.88,41.41,9.32,82.86,8.8,82.41,15.84,165,1.74,20.27,3.35,40.56l1.5-1.5q-105.09-12.24-210.37-22.7t-210.73-19.12q-59.4-4.87-118.86-9.19l1.5,1.5a1234,1234,0,0,0-22.56-192.08q-5.38-27.15-12-54l-1.44,1.9c125.61-16.2,252.53-16.33,378.92-12.84,35.43,1,70.84,2.24,106.25,3.5,1.93.07,1.93-2.93,0-3Z"/><path class="cls-2" d="M3588.86,3020.41c-8.82-5.36-20-1.37-26.08,6.27-3.6,4.51-5.73,10-7.23,15.48-1.21,4.43-4,11.73-1.86,16.23,1,2,2.89,3.15,4.69,4.29,3.4,2.16,7,4.12,10.44,6.17,2.81,1.67,7.65,3.46,9.9,5.9,4.56,4.93-1.83,9-4.9,12a185.63,185.63,0,0,1-36.76,27.51,1.5,1.5,0,0,0,1.51,2.59,189.65,189.65,0,0,0,31.7-22.72c4.76-4.23,19.45-14.28,11-21.24-5.06-4.16-11.73-7.1-17.37-10.44-4.1-2.43-8.52-4.49-7.54-10.22.53-3.11,1.25-6.24,2.08-9.28,1.84-6.79,4.74-13.91,10.6-18.21,5.35-3.93,12.43-5.31,18.3-1.75a1.5,1.5,0,0,0,1.52-2.59Z"/><path class="cls-2" d="M3654.59,3076.09l-3.68,28.55c-.25,1.91,2.75,1.89,3,0l3.68-28.55c.25-1.91-2.75-1.9-3,0Z"/><path class="cls-2" d="M3666.14,3052.5a1.5,1.5,0,0,0,0-3,1.5,1.5,0,0,0,0,3Z"/><path class="cls-2" d="M3691.18,3011.67a306.16,306.16,0,0,1-5.74,94.74c-.41,1.88,2.48,2.68,2.89.79a308.47,308.47,0,0,0,5.85-95.53c-.18-1.91-3.18-1.92-3,0Z"/><path class="cls-2" d="M3608.19,3065.4v78.19a1.5,1.5,0,0,0,3,0V3065.4a1.5,1.5,0,0,0-3,0Z"/><path class="cls-2" d="M3599,3068.8c6.58,1.55,14.59-2.19,20.67.73,5.34,2.57,5.23,9,2.65,13.56-2.21,3.89-6,6.64-9.56,9.23-1.53,1.13,0,3.74,1.52,2.59,6.94-5.12,16-13,11.89-22.79-4.56-10.74-17.95-4.22-26.37-6.22-1.88-.44-2.68,2.45-.8,2.9Z"/><path class="cls-2" d="M4908.84,2898.24c-96.33,10.79-193-2.54-289.43-4.06-46.88-.73-94.11,1.33-140.11,11a378.32,378.32,0,0,0-66.57,20.3c-9.88,4.09-20.48,8.14-29,14.69-8,6.12-12.17,14.55-13.7,24.39-1.58,10.11-1.42,20.62-1.49,30.83-.07,9.82.16,19.64,1,29.42,1.65,18.72,5.51,37.77,14.93,54.25,10.22,17.88,26.45,29.7,45.58,36.77,23.34,8.63,48.71,13,73.14,17.28,103.74,18.28,209.56,17.32,314.5,15.54,10.7-.18,23,1.07,33.11-3.07,8.75-3.57,13.3-11.51,16.56-20,8.91-23,14.62-47.45,18.63-71.75,8.22-49.78,8.45-100.46,7.11-150.77-.33-12.27-.75-24.54-1.19-36.81a1.52,1.52,0,0,0-1.5-1.5q-138,3.08-275.88,10.9-68.91,3.93-137.76,9-17.33,1.29-34.66,2.66c-9.44.74-19,1.07-28.38,2.74-8,1.42-16.14,4.26-21.68,10.47s-7.55,14.51-8.79,22.52c-12.88,83.64-4.16,171.65,22.11,251.89,2.44,7.45,4.72,15.71,10.13,21.65,5.95,6.51,14.51,7.3,22.83,6.69,22.31-1.63,44.61-4.61,66.81-7.26,45.34-5.4,90.59-11.49,135.92-16.95,90.13-10.86,181-19.29,271.88-14.31q16.65.9,33.26,2.44c1.08.1,1.57-1,1.44-1.9q-11.82-82.78-28.45-164.78c-5.48-27-11.29-54-17.65-80.83-2.41-10.19-5.25-20.77-11.93-29.08-6-7.4-14.48-11.89-23.64-14-9.74-2.25-19.88-2.21-29.81-1.65-13.25.75-26.49,1.94-39.73,2.93l-85.71,6.43-169.42,12.69-191.35,14.34c-.73.06-1.6.65-1.5,1.5L4364,3039.77c2.34,19.08,3.89,38.49,7.84,57.33,3.37,16.09,9.4,32.28,21.38,44,11.55,11.27,27.65,18,43.77,14.19,1.87-.45,1.08-3.35-.8-2.9-15.58,3.71-31.08-3.37-41.9-14.47-12-12.31-17.33-29.3-20.39-45.82-3.38-18.25-5-36.88-7.27-55.29l-7.16-58.47-8-65.4-1.5,1.5,332.87-24.94,82.71-6.2c25.93-1.94,52.08-5.08,78.08-5.54,10.71-.19,22.08.54,31.82,5.4,10.92,5.45,16.9,15.46,20.41,26.78,3.64,11.74,5.93,24,8.61,36q4.4,19.56,8.49,39.19,18.84,90,31.81,181.07l1.45-1.9c-87.67-8-175.78-2.48-263.09,7-43.75,4.77-87.38,10.5-131,16-21.82,2.75-43.65,5.46-65.51,7.95q-16.61,1.91-33.24,3.62c-9.39,1-21.37,3.92-30.29-.33-9.34-4.44-12.12-16.22-15.05-25.22q-4.76-14.6-8.68-29.43a557.1,557.1,0,0,1-16.75-187.64c.88-10.8,2-21.63,3.61-32.34,1.48-9.62,4.17-19.54,12.72-25.26,7.54-5,17.08-6.12,25.89-6.89,11.05-1,22.12-1.77,33.19-2.62q66.35-5.1,132.77-9.08,133.35-8,266.92-11.49,16.38-.43,32.76-.8l-1.5-1.5c1.72,48.46,3.34,97.08-.75,145.47a476.87,476.87,0,0,1-11.6,73.44c-2.83,11.53-6.18,22.94-10.1,34.15-4,11.37-8.72,22.07-21.61,24.91-11.72,2.59-24.83,1.35-36.77,1.54q-19.24.32-38.48.53c-25,.26-50.06.31-75.09-.09-50.51-.8-101.07-3.44-151.19-10-25.5-3.34-50.87-7.71-76-13.34-22.46-5-46.81-10.29-64.57-25.94-29.84-26.28-31.88-70.48-31.19-107.4.2-10.31-.17-21.25,2.87-31.2,3.6-11.78,13.21-18.14,23.77-23.2a351.08,351.08,0,0,1,65.4-23.27c44-11.16,89.62-14.63,134.94-14.82,92.23-.4,184.24,12.43,276.5,7.05q16.92-1,33.78-2.87c1.9-.21,1.92-3.21,0-3Z"/><path class="cls-2" d="M4681.94,2999.45a27.1,27.1,0,0,0-21.4,14.18,1.5,1.5,0,0,0,.54,2l14.26,6.52c2.1,1,4.78,1.72,6.66,3.06,1.67,1.2,3.31,5.33,2.78,7.46-.36,1.4-2.46,3.07-3.45,4a109.51,109.51,0,0,1-23.73,17.33c-1.69.93-.18,3.52,1.51,2.59a118.45,118.45,0,0,0,16-10.52c4.5-3.55,10.93-7.94,13.05-13.51,1.58-4.16-.34-7.52-4-9.62-6.76-3.91-14.45-6.69-21.56-9.94l.54,2a24,24,0,0,1,18.81-12.69c1.9-.2,1.92-3.2,0-3Z"/><path class="cls-2" d="M4544.32,3047a160.34,160.34,0,0,1,14.75-67.12l-2.79-.75a239.83,239.83,0,0,0,20,86.39c.77,1.76,3.36.24,2.59-1.52a235.8,235.8,0,0,1-19.57-84.87c-.06-1.37-2.13-2.2-2.8-.76a163.84,163.84,0,0,0-15.16,68.63,1.5,1.5,0,0,0,3,0Z"/><path class="cls-2" d="M4540.9,3015.61h22.64a1.5,1.5,0,0,0,0-3H4540.9a1.5,1.5,0,0,0,0,3Z"/><path class="cls-2" d="M4592.19,3013.4v78.19a1.5,1.5,0,0,0,3,0V3013.4a1.5,1.5,0,0,0-3,0Z"/><path class="cls-2" d="M4583,3016.8c6.58,1.55,14.59-2.19,20.67.73,5.34,2.57,5.23,9,2.65,13.56-2.21,3.89-6,6.64-9.56,9.23-1.53,1.13,0,3.74,1.52,2.59,6.94-5.12,16-13,11.89-22.79-4.56-10.74-17.95-4.22-26.37-6.22-1.88-.44-2.68,2.45-.8,2.9Z"/><path class="cls-2" d="M4625.19,3006.4v78.19a1.5,1.5,0,0,0,3,0V3006.4a1.5,1.5,0,0,0-3,0Z"/><path class="cls-2" d="M4616,3009.8c6.58,1.55,14.59-2.19,20.67.73,5.34,2.57,5.23,9,2.65,13.56-2.21,3.89-6,6.64-9.56,9.23-1.53,1.13,0,3.74,1.52,2.59,6.94-5.12,16-13,11.89-22.79-4.56-10.74-17.95-4.22-26.37-6.22-1.88-.44-2.68,2.45-.8,2.9Z"/></g></svg>
