<svg xmlns="http://www.w3.org/2000/svg" width="577.47" height="338.53" viewBox="0 0 577.47 338.53"><defs><style>.cls-1{fill:#c43b58;}</style></defs><title>spil</title><g id="Layer_1" data-name="Layer 1"><path class="cls-1" d="M486.67,29.47c-126.44-4.5-253.18-9-379.56-.79Q54.16,32.11,1.5,38.81a1.54,1.54,0,0,0-1.45,1.9A1230.82,1230.82,0,0,1,34.5,286a1.54,1.54,0,0,0,1.5,1.5q105.52,7.67,210.91,17.1T457.49,325.3q59.26,6.33,118.47,13.23a1.51,1.51,0,0,0,1.5-1.5q-6.88-86.08-15.68-172-4.39-43-9.29-85.86Q550.08,58,547.55,36.78C546.37,27,545.66,15.44,538.28,8S519.86.41,510.13.35q-21.48-.15-43-.21Q423.7,0,380.24,0,293.81.08,207.39.9c-57.91.55-115.95.45-173.83,2.44-3.65.13-7.41.39-10,3.3-3.28,3.66-3.12,9.5-3.49,14.05L16.6,62.27Q13,105.82,9.35,149.37C7,177.18,4.48,205,2.44,232.82.88,254.18.29,277.33,10.28,296.94c1.56,3.06,4.4,9.57,7.63,11.34,1.63.9,5,.25,6.75.26l12,.11q22,.18,43.93.34,42.93.31,85.86.5,173.71.76,347.43-.4,21-.13,41.93-.3a1.52,1.52,0,0,0,1.5-1.5L542.75,58.22,541,27.33c-.36-6-.34-13.32-6.24-16.76-6.22-3.63-15.56-2-22.34-2l-31,.11-125,.44-141,.5a1.5,1.5,0,0,0,0,3l240-.85,60-.21c4.39,0,8.94-.39,13.29.25,6.23.92,8.51,5.22,9,11.08.83,9.76,1.15,19.59,1.72,29.36l7,119.55,7.91,135.5,1.5-1.5q-166.72,1.32-333.45.89-83.37-.21-166.73-.88l-21-.17-10-.09a19.62,19.62,0,0,1-4,0c-2.39-.71-3.56-2.94-4.79-4.84-6.08-9.42-9.13-20.43-10.42-31.49-2.77-23.88,1-48.49,2.94-72.3q6.84-82.15,13.67-164.31c.54-6.5.19-14.09,2-20.36,2.28-7.86,13.09-5.94,19.48-6.05q21-.37,42-.71,42-.67,83.92-1.15,166.86-1.93,333.71-1c11.57.06,27-1.66,34.78,8.94,7.14,9.76,6.68,24.86,8,36.35q4.88,41.41,9.32,82.86,8.81,82.41,15.85,165,1.73,20.26,3.34,40.56l1.5-1.5q-105.09-12.24-210.37-22.7T154.86,293.71Q95.46,288.83,36,284.52l1.5,1.5A1234.29,1234.29,0,0,0,14.94,93.93q-5.38-27.14-12-54L1.5,41.81C127.11,25.61,254,25.48,380.42,29c35.43,1,70.84,2.24,106.25,3.5,1.93.07,1.93-2.93,0-3Z"/><path class="cls-1" d="M199.37,120.88c-8.82-5.36-20-1.37-26.08,6.27-3.6,4.51-5.73,9.95-7.23,15.48-1.21,4.43-4,11.73-1.86,16.23,1,2,2.89,3.15,4.69,4.29,3.4,2.16,7,4.12,10.44,6.17,2.81,1.67,7.65,3.46,9.9,5.9,4.56,4.93-1.83,9-4.9,12a185.63,185.63,0,0,1-36.76,27.51,1.5,1.5,0,0,0,1.51,2.59,190.22,190.22,0,0,0,31.7-22.72c4.76-4.23,19.45-14.28,11-21.24-5.06-4.16-11.73-7.1-17.36-10.44-4.11-2.43-8.53-4.49-7.55-10.22.53-3.11,1.25-6.24,2.08-9.28,1.84-6.79,4.74-13.91,10.6-18.21,5.35-3.93,12.43-5.32,18.3-1.75a1.5,1.5,0,0,0,1.52-2.59Z"/><path class="cls-1" d="M265.1,176.56l-3.68,28.55c-.25,1.91,2.75,1.89,3,0l3.68-28.55c.25-1.91-2.75-1.9-3,0Z"/><path class="cls-1" d="M276.65,153a1.5,1.5,0,0,0,0-3,1.5,1.5,0,0,0,0,3Z"/><path class="cls-1" d="M301.69,112.14A306.16,306.16,0,0,1,296,206.88c-.41,1.88,2.48,2.68,2.89.79a308.47,308.47,0,0,0,5.85-95.53c-.18-1.91-3.18-1.92-3,0Z"/><path class="cls-1" d="M218.71,165.87v78.19a1.5,1.5,0,0,0,3,0V165.87a1.5,1.5,0,0,0-3,0Z"/><path class="cls-1" d="M209.55,169.27c6.58,1.55,14.59-2.19,20.67.73,5.34,2.57,5.23,9,2.65,13.56-2.21,3.89-6,6.64-9.56,9.23-1.53,1.13,0,3.74,1.52,2.59,6.94-5.12,16-13,11.89-22.79-4.56-10.74-17.95-4.22-26.37-6.22-1.88-.44-2.68,2.45-.8,2.9Z"/></g></svg>
