<svg xmlns="http://www.w3.org/2000/svg" width="860" height="661" viewBox="0 0 860 661"><defs><style>.cls-1{fill:#c43b58;}</style></defs><title>tilbageknap</title><g id="Layer_1" data-name="Layer 1"><path class="cls-1" d="M312.86,261q64.67-2.92,129.42-1.13,32.69.93,65.34,3.09c18.68,1.24,37.62,3,55.42,9.18,17,5.93,32.07,16.24,41.5,31.84,8.93,14.74,11.54,32.92,3.12,48.49-8.73,16.17-25.5,27.68-40.29,37.84a323.36,323.36,0,0,1-170.28,56.55v3q39.27-4,78.52-7.93c23.63-2.42,47.39-5.19,70.32-11.6,37.26-10.43,74.47-32.65,90.28-69.6,3.67-8.6,7.64-19.45,3.23-28.5-4.21-8.65-14.51-13.89-22.37-18.64a269.28,269.28,0,0,0-58.19-26.05c-41.29-13-85.13-16.9-128.24-14.64a511.55,511.55,0,0,0-72.29,9.36c-26.87,5.3-55.37,11.49-81.83,1.1l1.1,1.45c.59-9.62,11.33-12.51,19.34-13.27,9.77-.93,19.84.78,29.57,1.6q36.54,3.09,73.05,6.42c48.12,4.4,96.36,8.52,144.35,14.26,21.49,2.57,41.74,8.24,58.7,22.2a97,97,0,0,1,30.73,44.84c2.93,9.17,7.26,23.46-.7,31.18-3.56,3.46-8.7,5.38-13.12,7.47q-8,3.78-16.09,7.4-32.16,14.43-65.34,26.39-36,13-72.91,23-18.9,5.12-38,9.45c-3.77.86-34.47,9.82-32.23-.85.4-1.89-2.5-2.69-2.89-.8-1.39,6.57,5.57,9,11,9.24,4.71.2,9.45-1.31,14-2.28q10-2.16,20-4.52,38.1-9,75.37-21.24,36.78-12,72.49-27.08,16.93-7.14,33.59-14.92c9-4.23,19.45-8,21.21-19.05,1.47-9.22-1.72-19.72-4.92-28.28a99,99,0,0,0-14.21-25.61A97.82,97.82,0,0,0,574.5,297c-11.68-3.91-24-5.49-36.16-6.81-13.37-1.44-26.75-2.78-40.13-4.14q-41.41-4.19-82.85-8-46.37-4.32-92.78-8.21c-13.47-1.13-46.64-6.55-48,15a1.54,1.54,0,0,0,1.1,1.44c20.49,8.05,42.59,6.31,63.83,2.63,21.55-3.72,42.8-8.41,64.57-10.81,41.74-4.6,84.4-3.88,125.56,4.89a290,290,0,0,1,58.43,18.87,257.26,257.26,0,0,1,27.44,14.35c9.57,5.77,22.89,12.36,22.81,25.19-.06,10.31-5.75,21.4-11,30a106.66,106.66,0,0,1-18.16,22c-14.81,13.84-32.86,23.72-51.94,30.33-24.55,8.49-50.46,12-76.18,14.7-28,3-56,5.67-84,8.49-1.88.19-2,3.08,0,3a327.21,327.21,0,0,0,113.66-25.26,325.68,325.68,0,0,0,51.11-27c15.42-10,32.11-21.22,43.4-36,21-27.38,7.23-63.23-19.11-81.38-15.53-10.71-34.47-15.41-52.92-17.88-20.86-2.8-42.08-3.54-63.09-4.47q-78.6-3.5-157.28.11c-1.92.08-1.93,3.08,0,3Z"/><path class="cls-1" d="M298.57,215.35q2.58,77.55-2.26,155.08l2.56-1.06c-35.5-37.94-91.63-49.15-123.87-90.71l-.3,2.36Q230.82,254,287.8,228.74c9.39-4.15,18.83-9.09,28.55-12.38,3.1-1.05,8-2.29,11-.49,4.88,2.89,1.54,12.64.88,17.3q-4.36,30.75-10,61.29t-12.68,60.8c-1,4.22-1.29,13.19-7,13.35-1.8.05-4.55-1.67-6.21-2.31q-3.63-1.43-7.23-2.92-13.39-5.56-26.3-12.27a352.3,352.3,0,0,1-47-29.25q-11.69-8.62-22.62-18.22c-3.79-3.33-13.18-9.89-7.09-15.49,3.43-3.14,9.17-4.78,13.32-6.78l130.48-62.83-2.2-1.7L302.3,352.57l1.84-1.05a199.83,199.83,0,0,1-88.3-63.71c-1.2-1.51-3.31.63-2.13,2.13a202.71,202.71,0,0,0,89.64,64.47,1.49,1.49,0,0,0,1.84-1.05L326.6,217.64a1.52,1.52,0,0,0-2.2-1.7L192.11,279.65c-5.93,2.85-17.75,6.2-14.77,15.13,1.28,3.84,4.89,6.68,7.79,9.26q5.82,5.19,11.87,10.1a353.75,353.75,0,0,0,51.89,35.06q13.64,7.55,27.9,13.86,6.51,2.88,13.13,5.5c3.28,1.29,7.94,4.16,11.57,3,2.64-.81,3.82-3.32,4.62-5.76,1.93-5.88,2.92-12.26,4.27-18.3q3.84-17,7.25-34.18,7-35.21,12.29-70.75,1.2-8.16,2.32-16.33c.47-3.44,1.5-7.49-.62-10.6-3.32-4.87-10.69-3.9-15.49-2.39-11.41,3.56-22.48,9.59-33.4,14.44q-18.24,8.09-36.4,16.37-36.75,16.77-73.14,34.33a1.52,1.52,0,0,0-.31,2.36c32.27,41.59,88.38,52.76,123.87,90.7a1.51,1.51,0,0,0,2.56-1.06q4.83-77.44,2.26-155.08c-.07-1.93-3.07-1.94-3,0Z"/></g></svg>
