<svg xmlns="http://www.w3.org/2000/svg" width="565.07" height="423.17" viewBox="0 0 565.07 423.17"><defs><style>.cls-1{fill:#c43b58;}</style></defs><title>videoer</title><g id="Layer_1" data-name="Layer 1"><path class="cls-1" d="M563.62,61.76q-108.75,3-217.39,9.27t-217,16Q67.88,92.55,6.62,99.13c-1.9.2-1.92,3.21,0,3Q114.8,90.54,223.3,82.28T440.5,69.17Q502,66.43,563.62,64.76c1.93-.06,1.94-3.06,0-3Z"/><path class="cls-1" d="M4.19,99.46A1033.49,1033.49,0,0,0,25.37,324.81q2.85,13.8,6.08,27.52C33,359,34.33,366.71,39.8,371.39c4.82,4.13,11.56,4.6,17.59,5.32q12.67,1.53,25.41,2.63a791.44,791.44,0,0,0,103.87,2.15,810.73,810.73,0,0,0,202.15-35,801.29,801.29,0,0,0,95-36c15.69-7.12,31.2-14.68,46.34-22.9,12.86-7,24.73-15.74,27.74-30.92,1.56-7.83,1.2-15.91,1.09-23.85q-.22-14.79-.64-29.59-.79-28.59-2.3-57.17Q553,87.92,547,30q-1.47-14.22-3.13-28.43c-.12-1-1.25-2.07-2.26-1.3C499.74,32.31,447.31,44.1,395.9,49.93c-27.16,3.08-54.47,4.71-81.74,6.64l-95.54,6.76L31.52,76.57c-6.29.44-12.68.6-18.93,1.41C7.92,78.59,3.06,80.12,1,84.73c-1.87,4.14-.61,9,.21,13.19q2.27,11.73,4.58,23.44,9.15,46.86,18.31,93.73,20.2,103.5,40.43,207a1.52,1.52,0,0,0,1.85,1.05A2784.6,2784.6,0,0,1,427,362q51.39-5.26,103-8.61a1.54,1.54,0,0,0,1.5-1.5l10.55-127c3.49-42.07,7.65-84.16,9.38-126.35a659.61,659.61,0,0,0-.59-70.87c-.13-1.92-3.13-1.93-3,0,2.81,42,.41,84.09-2.91,126-3.34,42.28-7,84.54-10.5,126.81l-5.93,71.45,1.5-1.5a2791.75,2791.75,0,0,0-363.5,47.79q-50.67,10.08-100.93,22.06l1.84,1.05Q49.66,330.48,31.92,239.68L14.37,149.85,5.41,104C4.09,97.2-.52,85.42,8.25,82c6.35-2.48,14.57-1.81,21.28-2.28l183.12-13c58.32-4.13,116.9-7,175.07-12.94,54.6-5.6,110.86-16.86,155.39-51l-2.25-1.29q12.85,110.73,15,222.36c.31,16.77,3,36.35-10.09,49.29-5.5,5.45-12.4,9.26-19.18,12.87q-10.87,5.82-22,11.25A789.49,789.49,0,0,1,411.48,336a806.84,806.84,0,0,1-195.79,40.72,797.74,797.74,0,0,1-99.48,1.85Q91.57,377.44,67,374.81c-7.58-.81-17.69-.46-24.23-4.89-7.07-4.8-8-16.44-9.76-24.07A1025.54,1025.54,0,0,1,7.09,126.67q-.13-13.61.1-27.21c0-1.93-3-1.93-3,0Z"/><path class="cls-1" d="M72.27,199.5A454.32,454.32,0,0,0,87,280.39c.32,1.16,2.18,1.57,2.74.36q22.91-49.41,45.82-98.8c.8-1.74-1.78-3.27-2.59-1.51q-22.92,49.4-45.82,98.79l2.75.36A449,449,0,0,1,75.27,199.5c-.17-1.91-3.17-1.93-3,0Z"/><path class="cls-1" d="M141.37,235.23l-3.68,28.56c-.25,1.91,2.75,1.89,3,0l3.68-28.56c.25-1.91-2.75-1.89-3,0Z"/><path class="cls-1" d="M152.92,211.65a1.5,1.5,0,0,0,0-3,1.5,1.5,0,0,0,0,3Z"/><path class="cls-1" d="M201.41,233.33c-10-2.09-23.48-2.75-26.6,9.55-2,7.93-2.81,23.67,7.82,25.95,12.33,2.65,19.53-17.26,23.43-25.39a243.51,243.51,0,0,0,16.74-46.63,245.6,245.6,0,0,0,7.12-56.23c0-1.66-2.59-2.08-2.95-.4a468.32,468.32,0,0,0-9.79,123.68c.11,1.92,3.11,1.93,3,0A465.23,465.23,0,0,1,229.86,141l-2.94-.4a241.33,241.33,0,0,1-21.19,96.47,179.49,179.49,0,0,1-10.41,20.34c-2,3.28-4.9,7.36-8.88,8.41-4.76,1.25-7.78-2.32-9-6.39-1.72-5.89-1.55-16.44,2.91-21,5-5.1,14.05-3.49,20.23-2.2,1.88.39,2.69-2.5.8-2.89Z"/><path class="cls-1" d="M250.92,238.23l19.25-3.6a1.5,1.5,0,0,0,1.1-1.45c.08-7-6.07-12.72-13-12.69-7.56,0-13.61,6.57-15.52,13.44a27.4,27.4,0,0,0,.11,13.7c.82,3.44,2.12,9.18,5.49,11.14s8.45-.06,11.86-.76l18.23-3.73c1.89-.39,1.09-3.28-.8-2.9l-19.13,3.93c-4.29.88-7.91,2.25-10.59-2.06-1.86-3-2.71-7.81-2.94-11.26-.43-6.41,1.87-13.33,7.63-16.8,6.42-3.86,15.8-.09,15.71,8l1.1-1.44-19.25,3.6c-1.89.35-1.09,3.25.8,2.89Z"/><path class="cls-1" d="M314,223.7c-12.05-2.47-17.57,10.23-17.38,20.2.09,4.43-.3,11.89,4.16,14.53,4.15,2.45,10.77,1.19,15.08-.19,10-3.22,19.59-12.22,20.43-23.21.66-8.65-8.07-18.3-16.66-12.16-1.55,1.11-.06,3.72,1.52,2.59,3.52-2.52,8-1.27,10.42,2.09,3,4.12,1.83,9.93-.3,14.18a27.55,27.55,0,0,1-15.53,13.38,25,25,0,0,1-10.14,1.49c-5.76-.48-5.66-6.41-5.9-10.9-.42-8,2.4-21.38,13.5-19.1,1.89.38,2.69-2.51.8-2.9Z"/><path class="cls-1" d="M365.92,233.23l19.25-3.6a1.5,1.5,0,0,0,1.1-1.45c.08-7-6.07-12.72-13-12.69-7.56,0-13.61,6.57-15.52,13.44a27.4,27.4,0,0,0,.11,13.7c.82,3.44,2.12,9.18,5.49,11.14s8.45-.06,11.86-.76l18.23-3.73c1.89-.39,1.09-3.28-.8-2.9l-19.13,3.93c-4.29.88-7.91,2.25-10.59-2.06-1.86-3-2.71-7.81-2.94-11.26-.43-6.41,1.87-13.33,7.63-16.8,6.42-3.86,15.8-.09,15.71,8l1.1-1.44-19.25,3.6c-1.89.35-1.09,3.25.8,2.89Z"/><path class="cls-1" d="M414.49,216.55A104.44,104.44,0,0,0,422.14,261a1.5,1.5,0,0,0,2.89-.79,185.35,185.35,0,0,1-1.85-21c-.17-5.94-.3-12.52,2.68-17.87,5.95-10.67,20.16-8.47,30.11-6.43,1.88.39,2.69-2.5.8-2.89-10.63-2.19-24.78-4.19-32.23,5.82-3.64,4.89-4.36,11.24-4.41,17.16a170.5,170.5,0,0,0,2,26l2.89-.79a102.53,102.53,0,0,1-7.54-43.68c.09-1.93-2.91-1.92-3,0Z"/></g></svg>
